G04 #@! TF.GenerationSoftware,KiCad,Pcbnew,5.1.5*
G04 #@! TF.CreationDate,2020-05-13T22:07:09+08:00*
G04 #@! TF.ProjectId,Balisong,42616c69-736f-46e6-972e-6b696361645f,rev?*
G04 #@! TF.SameCoordinates,Original*
G04 #@! TF.FileFunction,Copper,L2,Bot*
G04 #@! TF.FilePolarity,Positive*
%FSLAX46Y46*%
G04 Gerber Fmt 4.6, Leading zero omitted, Abs format (unit mm)*
G04 Created by KiCad (PCBNEW 5.1.5) date 2020-05-13 22:07:09*
%MOMM*%
%LPD*%
G04 APERTURE LIST*
%ADD10R,1.400000X1.200000*%
%ADD11O,1.700000X2.700000*%
%ADD12R,0.500000X2.250000*%
%ADD13R,0.550000X1.500000*%
%ADD14R,1.500000X0.550000*%
%ADD15R,1.800000X1.100000*%
%ADD16C,0.100000*%
%ADD17R,1.905000X1.905000*%
%ADD18C,1.905000*%
%ADD19C,2.250000*%
%ADD20C,2.250000*%
%ADD21R,1.200000X0.900000*%
%ADD22C,0.800000*%
%ADD23C,0.254000*%
%ADD24C,0.381000*%
G04 APERTURE END LIST*
D10*
X56048000Y-60452000D03*
X53848000Y-60452000D03*
X53848000Y-62152000D03*
X56048000Y-62152000D03*
D11*
X32545000Y-55753000D03*
X39845000Y-55753000D03*
X39845000Y-60253000D03*
X32545000Y-60253000D03*
D12*
X34595000Y-60253000D03*
X35395000Y-60253000D03*
X36195000Y-60253000D03*
X36995000Y-60253000D03*
X37795000Y-60253000D03*
D13*
X51245000Y-78725000D03*
X52045000Y-78725000D03*
X52845000Y-78725000D03*
X53645000Y-78725000D03*
X54445000Y-78725000D03*
X55245000Y-78725000D03*
X56045000Y-78725000D03*
X56845000Y-78725000D03*
X57645000Y-78725000D03*
X58445000Y-78725000D03*
X59245000Y-78725000D03*
D14*
X60945000Y-77025000D03*
X60945000Y-76225000D03*
X60945000Y-75425000D03*
X60945000Y-74625000D03*
X60945000Y-73825000D03*
X60945000Y-73025000D03*
X60945000Y-72225000D03*
X60945000Y-71425000D03*
X60945000Y-70625000D03*
X60945000Y-69825000D03*
X60945000Y-69025000D03*
D13*
X59245000Y-67325000D03*
X58445000Y-67325000D03*
X57645000Y-67325000D03*
X56845000Y-67325000D03*
X56045000Y-67325000D03*
X55245000Y-67325000D03*
X54445000Y-67325000D03*
X53645000Y-67325000D03*
X52845000Y-67325000D03*
X52045000Y-67325000D03*
X51245000Y-67325000D03*
D14*
X49545000Y-69025000D03*
X49545000Y-69825000D03*
X49545000Y-70625000D03*
X49545000Y-71425000D03*
X49545000Y-72225000D03*
X49545000Y-73025000D03*
X49545000Y-73825000D03*
X49545000Y-74625000D03*
X49545000Y-75425000D03*
X49545000Y-76225000D03*
X49545000Y-77025000D03*
D15*
X47931000Y-83638000D03*
X41731000Y-79938000D03*
X47931000Y-79938000D03*
X41731000Y-83638000D03*
G04 #@! TA.AperFunction,SMDPad,CuDef*
D16*
G36*
X47978142Y-66061674D02*
G01*
X48001803Y-66065184D01*
X48025007Y-66070996D01*
X48047529Y-66079054D01*
X48069153Y-66089282D01*
X48089670Y-66101579D01*
X48108883Y-66115829D01*
X48126607Y-66131893D01*
X48142671Y-66149617D01*
X48156921Y-66168830D01*
X48169218Y-66189347D01*
X48179446Y-66210971D01*
X48187504Y-66233493D01*
X48193316Y-66256697D01*
X48196826Y-66280358D01*
X48198000Y-66304250D01*
X48198000Y-66791750D01*
X48196826Y-66815642D01*
X48193316Y-66839303D01*
X48187504Y-66862507D01*
X48179446Y-66885029D01*
X48169218Y-66906653D01*
X48156921Y-66927170D01*
X48142671Y-66946383D01*
X48126607Y-66964107D01*
X48108883Y-66980171D01*
X48089670Y-66994421D01*
X48069153Y-67006718D01*
X48047529Y-67016946D01*
X48025007Y-67025004D01*
X48001803Y-67030816D01*
X47978142Y-67034326D01*
X47954250Y-67035500D01*
X47041750Y-67035500D01*
X47017858Y-67034326D01*
X46994197Y-67030816D01*
X46970993Y-67025004D01*
X46948471Y-67016946D01*
X46926847Y-67006718D01*
X46906330Y-66994421D01*
X46887117Y-66980171D01*
X46869393Y-66964107D01*
X46853329Y-66946383D01*
X46839079Y-66927170D01*
X46826782Y-66906653D01*
X46816554Y-66885029D01*
X46808496Y-66862507D01*
X46802684Y-66839303D01*
X46799174Y-66815642D01*
X46798000Y-66791750D01*
X46798000Y-66304250D01*
X46799174Y-66280358D01*
X46802684Y-66256697D01*
X46808496Y-66233493D01*
X46816554Y-66210971D01*
X46826782Y-66189347D01*
X46839079Y-66168830D01*
X46853329Y-66149617D01*
X46869393Y-66131893D01*
X46887117Y-66115829D01*
X46906330Y-66101579D01*
X46926847Y-66089282D01*
X46948471Y-66079054D01*
X46970993Y-66070996D01*
X46994197Y-66065184D01*
X47017858Y-66061674D01*
X47041750Y-66060500D01*
X47954250Y-66060500D01*
X47978142Y-66061674D01*
G37*
G04 #@! TD.AperFunction*
G04 #@! TA.AperFunction,SMDPad,CuDef*
G36*
X47978142Y-67936674D02*
G01*
X48001803Y-67940184D01*
X48025007Y-67945996D01*
X48047529Y-67954054D01*
X48069153Y-67964282D01*
X48089670Y-67976579D01*
X48108883Y-67990829D01*
X48126607Y-68006893D01*
X48142671Y-68024617D01*
X48156921Y-68043830D01*
X48169218Y-68064347D01*
X48179446Y-68085971D01*
X48187504Y-68108493D01*
X48193316Y-68131697D01*
X48196826Y-68155358D01*
X48198000Y-68179250D01*
X48198000Y-68666750D01*
X48196826Y-68690642D01*
X48193316Y-68714303D01*
X48187504Y-68737507D01*
X48179446Y-68760029D01*
X48169218Y-68781653D01*
X48156921Y-68802170D01*
X48142671Y-68821383D01*
X48126607Y-68839107D01*
X48108883Y-68855171D01*
X48089670Y-68869421D01*
X48069153Y-68881718D01*
X48047529Y-68891946D01*
X48025007Y-68900004D01*
X48001803Y-68905816D01*
X47978142Y-68909326D01*
X47954250Y-68910500D01*
X47041750Y-68910500D01*
X47017858Y-68909326D01*
X46994197Y-68905816D01*
X46970993Y-68900004D01*
X46948471Y-68891946D01*
X46926847Y-68881718D01*
X46906330Y-68869421D01*
X46887117Y-68855171D01*
X46869393Y-68839107D01*
X46853329Y-68821383D01*
X46839079Y-68802170D01*
X46826782Y-68781653D01*
X46816554Y-68760029D01*
X46808496Y-68737507D01*
X46802684Y-68714303D01*
X46799174Y-68690642D01*
X46798000Y-68666750D01*
X46798000Y-68179250D01*
X46799174Y-68155358D01*
X46802684Y-68131697D01*
X46808496Y-68108493D01*
X46816554Y-68085971D01*
X46826782Y-68064347D01*
X46839079Y-68043830D01*
X46853329Y-68024617D01*
X46869393Y-68006893D01*
X46887117Y-67990829D01*
X46906330Y-67976579D01*
X46926847Y-67964282D01*
X46948471Y-67954054D01*
X46970993Y-67945996D01*
X46994197Y-67940184D01*
X47017858Y-67936674D01*
X47041750Y-67935500D01*
X47954250Y-67935500D01*
X47978142Y-67936674D01*
G37*
G04 #@! TD.AperFunction*
G04 #@! TA.AperFunction,SMDPad,CuDef*
G36*
X37224642Y-68389174D02*
G01*
X37248303Y-68392684D01*
X37271507Y-68398496D01*
X37294029Y-68406554D01*
X37315653Y-68416782D01*
X37336170Y-68429079D01*
X37355383Y-68443329D01*
X37373107Y-68459393D01*
X37389171Y-68477117D01*
X37403421Y-68496330D01*
X37415718Y-68516847D01*
X37425946Y-68538471D01*
X37434004Y-68560993D01*
X37439816Y-68584197D01*
X37443326Y-68607858D01*
X37444500Y-68631750D01*
X37444500Y-69544250D01*
X37443326Y-69568142D01*
X37439816Y-69591803D01*
X37434004Y-69615007D01*
X37425946Y-69637529D01*
X37415718Y-69659153D01*
X37403421Y-69679670D01*
X37389171Y-69698883D01*
X37373107Y-69716607D01*
X37355383Y-69732671D01*
X37336170Y-69746921D01*
X37315653Y-69759218D01*
X37294029Y-69769446D01*
X37271507Y-69777504D01*
X37248303Y-69783316D01*
X37224642Y-69786826D01*
X37200750Y-69788000D01*
X36713250Y-69788000D01*
X36689358Y-69786826D01*
X36665697Y-69783316D01*
X36642493Y-69777504D01*
X36619971Y-69769446D01*
X36598347Y-69759218D01*
X36577830Y-69746921D01*
X36558617Y-69732671D01*
X36540893Y-69716607D01*
X36524829Y-69698883D01*
X36510579Y-69679670D01*
X36498282Y-69659153D01*
X36488054Y-69637529D01*
X36479996Y-69615007D01*
X36474184Y-69591803D01*
X36470674Y-69568142D01*
X36469500Y-69544250D01*
X36469500Y-68631750D01*
X36470674Y-68607858D01*
X36474184Y-68584197D01*
X36479996Y-68560993D01*
X36488054Y-68538471D01*
X36498282Y-68516847D01*
X36510579Y-68496330D01*
X36524829Y-68477117D01*
X36540893Y-68459393D01*
X36558617Y-68443329D01*
X36577830Y-68429079D01*
X36598347Y-68416782D01*
X36619971Y-68406554D01*
X36642493Y-68398496D01*
X36665697Y-68392684D01*
X36689358Y-68389174D01*
X36713250Y-68388000D01*
X37200750Y-68388000D01*
X37224642Y-68389174D01*
G37*
G04 #@! TD.AperFunction*
G04 #@! TA.AperFunction,SMDPad,CuDef*
G36*
X39099642Y-68389174D02*
G01*
X39123303Y-68392684D01*
X39146507Y-68398496D01*
X39169029Y-68406554D01*
X39190653Y-68416782D01*
X39211170Y-68429079D01*
X39230383Y-68443329D01*
X39248107Y-68459393D01*
X39264171Y-68477117D01*
X39278421Y-68496330D01*
X39290718Y-68516847D01*
X39300946Y-68538471D01*
X39309004Y-68560993D01*
X39314816Y-68584197D01*
X39318326Y-68607858D01*
X39319500Y-68631750D01*
X39319500Y-69544250D01*
X39318326Y-69568142D01*
X39314816Y-69591803D01*
X39309004Y-69615007D01*
X39300946Y-69637529D01*
X39290718Y-69659153D01*
X39278421Y-69679670D01*
X39264171Y-69698883D01*
X39248107Y-69716607D01*
X39230383Y-69732671D01*
X39211170Y-69746921D01*
X39190653Y-69759218D01*
X39169029Y-69769446D01*
X39146507Y-69777504D01*
X39123303Y-69783316D01*
X39099642Y-69786826D01*
X39075750Y-69788000D01*
X38588250Y-69788000D01*
X38564358Y-69786826D01*
X38540697Y-69783316D01*
X38517493Y-69777504D01*
X38494971Y-69769446D01*
X38473347Y-69759218D01*
X38452830Y-69746921D01*
X38433617Y-69732671D01*
X38415893Y-69716607D01*
X38399829Y-69698883D01*
X38385579Y-69679670D01*
X38373282Y-69659153D01*
X38363054Y-69637529D01*
X38354996Y-69615007D01*
X38349184Y-69591803D01*
X38345674Y-69568142D01*
X38344500Y-69544250D01*
X38344500Y-68631750D01*
X38345674Y-68607858D01*
X38349184Y-68584197D01*
X38354996Y-68560993D01*
X38363054Y-68538471D01*
X38373282Y-68516847D01*
X38385579Y-68496330D01*
X38399829Y-68477117D01*
X38415893Y-68459393D01*
X38433617Y-68443329D01*
X38452830Y-68429079D01*
X38473347Y-68416782D01*
X38494971Y-68406554D01*
X38517493Y-68398496D01*
X38540697Y-68392684D01*
X38564358Y-68389174D01*
X38588250Y-68388000D01*
X39075750Y-68388000D01*
X39099642Y-68389174D01*
G37*
G04 #@! TD.AperFunction*
G04 #@! TA.AperFunction,SMDPad,CuDef*
G36*
X34938642Y-68389174D02*
G01*
X34962303Y-68392684D01*
X34985507Y-68398496D01*
X35008029Y-68406554D01*
X35029653Y-68416782D01*
X35050170Y-68429079D01*
X35069383Y-68443329D01*
X35087107Y-68459393D01*
X35103171Y-68477117D01*
X35117421Y-68496330D01*
X35129718Y-68516847D01*
X35139946Y-68538471D01*
X35148004Y-68560993D01*
X35153816Y-68584197D01*
X35157326Y-68607858D01*
X35158500Y-68631750D01*
X35158500Y-69544250D01*
X35157326Y-69568142D01*
X35153816Y-69591803D01*
X35148004Y-69615007D01*
X35139946Y-69637529D01*
X35129718Y-69659153D01*
X35117421Y-69679670D01*
X35103171Y-69698883D01*
X35087107Y-69716607D01*
X35069383Y-69732671D01*
X35050170Y-69746921D01*
X35029653Y-69759218D01*
X35008029Y-69769446D01*
X34985507Y-69777504D01*
X34962303Y-69783316D01*
X34938642Y-69786826D01*
X34914750Y-69788000D01*
X34427250Y-69788000D01*
X34403358Y-69786826D01*
X34379697Y-69783316D01*
X34356493Y-69777504D01*
X34333971Y-69769446D01*
X34312347Y-69759218D01*
X34291830Y-69746921D01*
X34272617Y-69732671D01*
X34254893Y-69716607D01*
X34238829Y-69698883D01*
X34224579Y-69679670D01*
X34212282Y-69659153D01*
X34202054Y-69637529D01*
X34193996Y-69615007D01*
X34188184Y-69591803D01*
X34184674Y-69568142D01*
X34183500Y-69544250D01*
X34183500Y-68631750D01*
X34184674Y-68607858D01*
X34188184Y-68584197D01*
X34193996Y-68560993D01*
X34202054Y-68538471D01*
X34212282Y-68516847D01*
X34224579Y-68496330D01*
X34238829Y-68477117D01*
X34254893Y-68459393D01*
X34272617Y-68443329D01*
X34291830Y-68429079D01*
X34312347Y-68416782D01*
X34333971Y-68406554D01*
X34356493Y-68398496D01*
X34379697Y-68392684D01*
X34403358Y-68389174D01*
X34427250Y-68388000D01*
X34914750Y-68388000D01*
X34938642Y-68389174D01*
G37*
G04 #@! TD.AperFunction*
G04 #@! TA.AperFunction,SMDPad,CuDef*
G36*
X33063642Y-68389174D02*
G01*
X33087303Y-68392684D01*
X33110507Y-68398496D01*
X33133029Y-68406554D01*
X33154653Y-68416782D01*
X33175170Y-68429079D01*
X33194383Y-68443329D01*
X33212107Y-68459393D01*
X33228171Y-68477117D01*
X33242421Y-68496330D01*
X33254718Y-68516847D01*
X33264946Y-68538471D01*
X33273004Y-68560993D01*
X33278816Y-68584197D01*
X33282326Y-68607858D01*
X33283500Y-68631750D01*
X33283500Y-69544250D01*
X33282326Y-69568142D01*
X33278816Y-69591803D01*
X33273004Y-69615007D01*
X33264946Y-69637529D01*
X33254718Y-69659153D01*
X33242421Y-69679670D01*
X33228171Y-69698883D01*
X33212107Y-69716607D01*
X33194383Y-69732671D01*
X33175170Y-69746921D01*
X33154653Y-69759218D01*
X33133029Y-69769446D01*
X33110507Y-69777504D01*
X33087303Y-69783316D01*
X33063642Y-69786826D01*
X33039750Y-69788000D01*
X32552250Y-69788000D01*
X32528358Y-69786826D01*
X32504697Y-69783316D01*
X32481493Y-69777504D01*
X32458971Y-69769446D01*
X32437347Y-69759218D01*
X32416830Y-69746921D01*
X32397617Y-69732671D01*
X32379893Y-69716607D01*
X32363829Y-69698883D01*
X32349579Y-69679670D01*
X32337282Y-69659153D01*
X32327054Y-69637529D01*
X32318996Y-69615007D01*
X32313184Y-69591803D01*
X32309674Y-69568142D01*
X32308500Y-69544250D01*
X32308500Y-68631750D01*
X32309674Y-68607858D01*
X32313184Y-68584197D01*
X32318996Y-68560993D01*
X32327054Y-68538471D01*
X32337282Y-68516847D01*
X32349579Y-68496330D01*
X32363829Y-68477117D01*
X32379893Y-68459393D01*
X32397617Y-68443329D01*
X32416830Y-68429079D01*
X32437347Y-68416782D01*
X32458971Y-68406554D01*
X32481493Y-68398496D01*
X32504697Y-68392684D01*
X32528358Y-68389174D01*
X32552250Y-68388000D01*
X33039750Y-68388000D01*
X33063642Y-68389174D01*
G37*
G04 #@! TD.AperFunction*
G04 #@! TA.AperFunction,SMDPad,CuDef*
G36*
X66393142Y-80158674D02*
G01*
X66416803Y-80162184D01*
X66440007Y-80167996D01*
X66462529Y-80176054D01*
X66484153Y-80186282D01*
X66504670Y-80198579D01*
X66523883Y-80212829D01*
X66541607Y-80228893D01*
X66557671Y-80246617D01*
X66571921Y-80265830D01*
X66584218Y-80286347D01*
X66594446Y-80307971D01*
X66602504Y-80330493D01*
X66608316Y-80353697D01*
X66611826Y-80377358D01*
X66613000Y-80401250D01*
X66613000Y-80888750D01*
X66611826Y-80912642D01*
X66608316Y-80936303D01*
X66602504Y-80959507D01*
X66594446Y-80982029D01*
X66584218Y-81003653D01*
X66571921Y-81024170D01*
X66557671Y-81043383D01*
X66541607Y-81061107D01*
X66523883Y-81077171D01*
X66504670Y-81091421D01*
X66484153Y-81103718D01*
X66462529Y-81113946D01*
X66440007Y-81122004D01*
X66416803Y-81127816D01*
X66393142Y-81131326D01*
X66369250Y-81132500D01*
X65456750Y-81132500D01*
X65432858Y-81131326D01*
X65409197Y-81127816D01*
X65385993Y-81122004D01*
X65363471Y-81113946D01*
X65341847Y-81103718D01*
X65321330Y-81091421D01*
X65302117Y-81077171D01*
X65284393Y-81061107D01*
X65268329Y-81043383D01*
X65254079Y-81024170D01*
X65241782Y-81003653D01*
X65231554Y-80982029D01*
X65223496Y-80959507D01*
X65217684Y-80936303D01*
X65214174Y-80912642D01*
X65213000Y-80888750D01*
X65213000Y-80401250D01*
X65214174Y-80377358D01*
X65217684Y-80353697D01*
X65223496Y-80330493D01*
X65231554Y-80307971D01*
X65241782Y-80286347D01*
X65254079Y-80265830D01*
X65268329Y-80246617D01*
X65284393Y-80228893D01*
X65302117Y-80212829D01*
X65321330Y-80198579D01*
X65341847Y-80186282D01*
X65363471Y-80176054D01*
X65385993Y-80167996D01*
X65409197Y-80162184D01*
X65432858Y-80158674D01*
X65456750Y-80157500D01*
X66369250Y-80157500D01*
X66393142Y-80158674D01*
G37*
G04 #@! TD.AperFunction*
G04 #@! TA.AperFunction,SMDPad,CuDef*
G36*
X66393142Y-78283674D02*
G01*
X66416803Y-78287184D01*
X66440007Y-78292996D01*
X66462529Y-78301054D01*
X66484153Y-78311282D01*
X66504670Y-78323579D01*
X66523883Y-78337829D01*
X66541607Y-78353893D01*
X66557671Y-78371617D01*
X66571921Y-78390830D01*
X66584218Y-78411347D01*
X66594446Y-78432971D01*
X66602504Y-78455493D01*
X66608316Y-78478697D01*
X66611826Y-78502358D01*
X66613000Y-78526250D01*
X66613000Y-79013750D01*
X66611826Y-79037642D01*
X66608316Y-79061303D01*
X66602504Y-79084507D01*
X66594446Y-79107029D01*
X66584218Y-79128653D01*
X66571921Y-79149170D01*
X66557671Y-79168383D01*
X66541607Y-79186107D01*
X66523883Y-79202171D01*
X66504670Y-79216421D01*
X66484153Y-79228718D01*
X66462529Y-79238946D01*
X66440007Y-79247004D01*
X66416803Y-79252816D01*
X66393142Y-79256326D01*
X66369250Y-79257500D01*
X65456750Y-79257500D01*
X65432858Y-79256326D01*
X65409197Y-79252816D01*
X65385993Y-79247004D01*
X65363471Y-79238946D01*
X65341847Y-79228718D01*
X65321330Y-79216421D01*
X65302117Y-79202171D01*
X65284393Y-79186107D01*
X65268329Y-79168383D01*
X65254079Y-79149170D01*
X65241782Y-79128653D01*
X65231554Y-79107029D01*
X65223496Y-79084507D01*
X65217684Y-79061303D01*
X65214174Y-79037642D01*
X65213000Y-79013750D01*
X65213000Y-78526250D01*
X65214174Y-78502358D01*
X65217684Y-78478697D01*
X65223496Y-78455493D01*
X65231554Y-78432971D01*
X65241782Y-78411347D01*
X65254079Y-78390830D01*
X65268329Y-78371617D01*
X65284393Y-78353893D01*
X65302117Y-78337829D01*
X65321330Y-78323579D01*
X65341847Y-78311282D01*
X65363471Y-78301054D01*
X65385993Y-78292996D01*
X65409197Y-78287184D01*
X65432858Y-78283674D01*
X65456750Y-78282500D01*
X66369250Y-78282500D01*
X66393142Y-78283674D01*
G37*
G04 #@! TD.AperFunction*
D17*
X102870000Y-87630000D03*
D18*
X100330000Y-87630000D03*
D19*
X99100000Y-78550000D03*
D20*
X97790000Y-80010000D02*
X99100002Y-78550000D01*
D19*
X104140000Y-77470000D03*
D20*
X104100000Y-78050000D02*
X104140000Y-77470000D01*
D17*
X102870000Y-68580000D03*
D18*
X100330000Y-68580000D03*
D19*
X99100000Y-59500000D03*
D20*
X97790000Y-60960000D02*
X99100002Y-59500000D01*
D19*
X104140000Y-58420000D03*
D20*
X104100000Y-59000000D02*
X104140000Y-58420000D01*
D17*
X83820000Y-87630000D03*
D18*
X81280000Y-87630000D03*
D19*
X80050000Y-78550000D03*
D20*
X78740000Y-80010000D02*
X80050002Y-78550000D01*
D19*
X85090000Y-77470000D03*
D20*
X85050000Y-78050000D02*
X85090000Y-77470000D01*
D17*
X83820000Y-68580000D03*
D18*
X81280000Y-68580000D03*
D19*
X80050000Y-59500000D03*
D20*
X78740000Y-60960000D02*
X80050002Y-59500000D01*
D19*
X85090000Y-58420000D03*
D20*
X85050000Y-59000000D02*
X85090000Y-58420000D01*
G04 #@! TA.AperFunction,SMDPad,CuDef*
D16*
G36*
X38460004Y-75834204D02*
G01*
X38484273Y-75837804D01*
X38508071Y-75843765D01*
X38531171Y-75852030D01*
X38553349Y-75862520D01*
X38574393Y-75875133D01*
X38594098Y-75889747D01*
X38612277Y-75906223D01*
X38628753Y-75924402D01*
X38643367Y-75944107D01*
X38655980Y-75965151D01*
X38666470Y-75987329D01*
X38674735Y-76010429D01*
X38680696Y-76034227D01*
X38684296Y-76058496D01*
X38685500Y-76083000D01*
X38685500Y-77333000D01*
X38684296Y-77357504D01*
X38680696Y-77381773D01*
X38674735Y-77405571D01*
X38666470Y-77428671D01*
X38655980Y-77450849D01*
X38643367Y-77471893D01*
X38628753Y-77491598D01*
X38612277Y-77509777D01*
X38594098Y-77526253D01*
X38574393Y-77540867D01*
X38553349Y-77553480D01*
X38531171Y-77563970D01*
X38508071Y-77572235D01*
X38484273Y-77578196D01*
X38460004Y-77581796D01*
X38435500Y-77583000D01*
X37510500Y-77583000D01*
X37485996Y-77581796D01*
X37461727Y-77578196D01*
X37437929Y-77572235D01*
X37414829Y-77563970D01*
X37392651Y-77553480D01*
X37371607Y-77540867D01*
X37351902Y-77526253D01*
X37333723Y-77509777D01*
X37317247Y-77491598D01*
X37302633Y-77471893D01*
X37290020Y-77450849D01*
X37279530Y-77428671D01*
X37271265Y-77405571D01*
X37265304Y-77381773D01*
X37261704Y-77357504D01*
X37260500Y-77333000D01*
X37260500Y-76083000D01*
X37261704Y-76058496D01*
X37265304Y-76034227D01*
X37271265Y-76010429D01*
X37279530Y-75987329D01*
X37290020Y-75965151D01*
X37302633Y-75944107D01*
X37317247Y-75924402D01*
X37333723Y-75906223D01*
X37351902Y-75889747D01*
X37371607Y-75875133D01*
X37392651Y-75862520D01*
X37414829Y-75852030D01*
X37437929Y-75843765D01*
X37461727Y-75837804D01*
X37485996Y-75834204D01*
X37510500Y-75833000D01*
X38435500Y-75833000D01*
X38460004Y-75834204D01*
G37*
G04 #@! TD.AperFunction*
G04 #@! TA.AperFunction,SMDPad,CuDef*
G36*
X35485004Y-75834204D02*
G01*
X35509273Y-75837804D01*
X35533071Y-75843765D01*
X35556171Y-75852030D01*
X35578349Y-75862520D01*
X35599393Y-75875133D01*
X35619098Y-75889747D01*
X35637277Y-75906223D01*
X35653753Y-75924402D01*
X35668367Y-75944107D01*
X35680980Y-75965151D01*
X35691470Y-75987329D01*
X35699735Y-76010429D01*
X35705696Y-76034227D01*
X35709296Y-76058496D01*
X35710500Y-76083000D01*
X35710500Y-77333000D01*
X35709296Y-77357504D01*
X35705696Y-77381773D01*
X35699735Y-77405571D01*
X35691470Y-77428671D01*
X35680980Y-77450849D01*
X35668367Y-77471893D01*
X35653753Y-77491598D01*
X35637277Y-77509777D01*
X35619098Y-77526253D01*
X35599393Y-77540867D01*
X35578349Y-77553480D01*
X35556171Y-77563970D01*
X35533071Y-77572235D01*
X35509273Y-77578196D01*
X35485004Y-77581796D01*
X35460500Y-77583000D01*
X34535500Y-77583000D01*
X34510996Y-77581796D01*
X34486727Y-77578196D01*
X34462929Y-77572235D01*
X34439829Y-77563970D01*
X34417651Y-77553480D01*
X34396607Y-77540867D01*
X34376902Y-77526253D01*
X34358723Y-77509777D01*
X34342247Y-77491598D01*
X34327633Y-77471893D01*
X34315020Y-77450849D01*
X34304530Y-77428671D01*
X34296265Y-77405571D01*
X34290304Y-77381773D01*
X34286704Y-77357504D01*
X34285500Y-77333000D01*
X34285500Y-76083000D01*
X34286704Y-76058496D01*
X34290304Y-76034227D01*
X34296265Y-76010429D01*
X34304530Y-75987329D01*
X34315020Y-75965151D01*
X34327633Y-75944107D01*
X34342247Y-75924402D01*
X34358723Y-75906223D01*
X34376902Y-75889747D01*
X34396607Y-75875133D01*
X34417651Y-75862520D01*
X34439829Y-75852030D01*
X34462929Y-75843765D01*
X34486727Y-75837804D01*
X34510996Y-75834204D01*
X34535500Y-75833000D01*
X35460500Y-75833000D01*
X35485004Y-75834204D01*
G37*
G04 #@! TD.AperFunction*
D21*
X109537500Y-80900000D03*
X109537500Y-84200000D03*
X109537500Y-61850000D03*
X109537500Y-65150000D03*
X90487500Y-80900000D03*
X90487500Y-84200000D03*
X90487500Y-61850000D03*
X90487500Y-65150000D03*
G04 #@! TA.AperFunction,SMDPad,CuDef*
D16*
G36*
X45057142Y-67936674D02*
G01*
X45080803Y-67940184D01*
X45104007Y-67945996D01*
X45126529Y-67954054D01*
X45148153Y-67964282D01*
X45168670Y-67976579D01*
X45187883Y-67990829D01*
X45205607Y-68006893D01*
X45221671Y-68024617D01*
X45235921Y-68043830D01*
X45248218Y-68064347D01*
X45258446Y-68085971D01*
X45266504Y-68108493D01*
X45272316Y-68131697D01*
X45275826Y-68155358D01*
X45277000Y-68179250D01*
X45277000Y-68666750D01*
X45275826Y-68690642D01*
X45272316Y-68714303D01*
X45266504Y-68737507D01*
X45258446Y-68760029D01*
X45248218Y-68781653D01*
X45235921Y-68802170D01*
X45221671Y-68821383D01*
X45205607Y-68839107D01*
X45187883Y-68855171D01*
X45168670Y-68869421D01*
X45148153Y-68881718D01*
X45126529Y-68891946D01*
X45104007Y-68900004D01*
X45080803Y-68905816D01*
X45057142Y-68909326D01*
X45033250Y-68910500D01*
X44120750Y-68910500D01*
X44096858Y-68909326D01*
X44073197Y-68905816D01*
X44049993Y-68900004D01*
X44027471Y-68891946D01*
X44005847Y-68881718D01*
X43985330Y-68869421D01*
X43966117Y-68855171D01*
X43948393Y-68839107D01*
X43932329Y-68821383D01*
X43918079Y-68802170D01*
X43905782Y-68781653D01*
X43895554Y-68760029D01*
X43887496Y-68737507D01*
X43881684Y-68714303D01*
X43878174Y-68690642D01*
X43877000Y-68666750D01*
X43877000Y-68179250D01*
X43878174Y-68155358D01*
X43881684Y-68131697D01*
X43887496Y-68108493D01*
X43895554Y-68085971D01*
X43905782Y-68064347D01*
X43918079Y-68043830D01*
X43932329Y-68024617D01*
X43948393Y-68006893D01*
X43966117Y-67990829D01*
X43985330Y-67976579D01*
X44005847Y-67964282D01*
X44027471Y-67954054D01*
X44049993Y-67945996D01*
X44073197Y-67940184D01*
X44096858Y-67936674D01*
X44120750Y-67935500D01*
X45033250Y-67935500D01*
X45057142Y-67936674D01*
G37*
G04 #@! TD.AperFunction*
G04 #@! TA.AperFunction,SMDPad,CuDef*
G36*
X45057142Y-66061674D02*
G01*
X45080803Y-66065184D01*
X45104007Y-66070996D01*
X45126529Y-66079054D01*
X45148153Y-66089282D01*
X45168670Y-66101579D01*
X45187883Y-66115829D01*
X45205607Y-66131893D01*
X45221671Y-66149617D01*
X45235921Y-66168830D01*
X45248218Y-66189347D01*
X45258446Y-66210971D01*
X45266504Y-66233493D01*
X45272316Y-66256697D01*
X45275826Y-66280358D01*
X45277000Y-66304250D01*
X45277000Y-66791750D01*
X45275826Y-66815642D01*
X45272316Y-66839303D01*
X45266504Y-66862507D01*
X45258446Y-66885029D01*
X45248218Y-66906653D01*
X45235921Y-66927170D01*
X45221671Y-66946383D01*
X45205607Y-66964107D01*
X45187883Y-66980171D01*
X45168670Y-66994421D01*
X45148153Y-67006718D01*
X45126529Y-67016946D01*
X45104007Y-67025004D01*
X45080803Y-67030816D01*
X45057142Y-67034326D01*
X45033250Y-67035500D01*
X44120750Y-67035500D01*
X44096858Y-67034326D01*
X44073197Y-67030816D01*
X44049993Y-67025004D01*
X44027471Y-67016946D01*
X44005847Y-67006718D01*
X43985330Y-66994421D01*
X43966117Y-66980171D01*
X43948393Y-66964107D01*
X43932329Y-66946383D01*
X43918079Y-66927170D01*
X43905782Y-66906653D01*
X43895554Y-66885029D01*
X43887496Y-66862507D01*
X43881684Y-66839303D01*
X43878174Y-66815642D01*
X43877000Y-66791750D01*
X43877000Y-66304250D01*
X43878174Y-66280358D01*
X43881684Y-66256697D01*
X43887496Y-66233493D01*
X43895554Y-66210971D01*
X43905782Y-66189347D01*
X43918079Y-66168830D01*
X43932329Y-66149617D01*
X43948393Y-66131893D01*
X43966117Y-66115829D01*
X43985330Y-66101579D01*
X44005847Y-66089282D01*
X44027471Y-66079054D01*
X44049993Y-66070996D01*
X44073197Y-66065184D01*
X44096858Y-66061674D01*
X44120750Y-66060500D01*
X45033250Y-66060500D01*
X45057142Y-66061674D01*
G37*
G04 #@! TD.AperFunction*
G04 #@! TA.AperFunction,SMDPad,CuDef*
G36*
X53323642Y-82994174D02*
G01*
X53347303Y-82997684D01*
X53370507Y-83003496D01*
X53393029Y-83011554D01*
X53414653Y-83021782D01*
X53435170Y-83034079D01*
X53454383Y-83048329D01*
X53472107Y-83064393D01*
X53488171Y-83082117D01*
X53502421Y-83101330D01*
X53514718Y-83121847D01*
X53524946Y-83143471D01*
X53533004Y-83165993D01*
X53538816Y-83189197D01*
X53542326Y-83212858D01*
X53543500Y-83236750D01*
X53543500Y-84149250D01*
X53542326Y-84173142D01*
X53538816Y-84196803D01*
X53533004Y-84220007D01*
X53524946Y-84242529D01*
X53514718Y-84264153D01*
X53502421Y-84284670D01*
X53488171Y-84303883D01*
X53472107Y-84321607D01*
X53454383Y-84337671D01*
X53435170Y-84351921D01*
X53414653Y-84364218D01*
X53393029Y-84374446D01*
X53370507Y-84382504D01*
X53347303Y-84388316D01*
X53323642Y-84391826D01*
X53299750Y-84393000D01*
X52812250Y-84393000D01*
X52788358Y-84391826D01*
X52764697Y-84388316D01*
X52741493Y-84382504D01*
X52718971Y-84374446D01*
X52697347Y-84364218D01*
X52676830Y-84351921D01*
X52657617Y-84337671D01*
X52639893Y-84321607D01*
X52623829Y-84303883D01*
X52609579Y-84284670D01*
X52597282Y-84264153D01*
X52587054Y-84242529D01*
X52578996Y-84220007D01*
X52573184Y-84196803D01*
X52569674Y-84173142D01*
X52568500Y-84149250D01*
X52568500Y-83236750D01*
X52569674Y-83212858D01*
X52573184Y-83189197D01*
X52578996Y-83165993D01*
X52587054Y-83143471D01*
X52597282Y-83121847D01*
X52609579Y-83101330D01*
X52623829Y-83082117D01*
X52639893Y-83064393D01*
X52657617Y-83048329D01*
X52676830Y-83034079D01*
X52697347Y-83021782D01*
X52718971Y-83011554D01*
X52741493Y-83003496D01*
X52764697Y-82997684D01*
X52788358Y-82994174D01*
X52812250Y-82993000D01*
X53299750Y-82993000D01*
X53323642Y-82994174D01*
G37*
G04 #@! TD.AperFunction*
G04 #@! TA.AperFunction,SMDPad,CuDef*
G36*
X51448642Y-82994174D02*
G01*
X51472303Y-82997684D01*
X51495507Y-83003496D01*
X51518029Y-83011554D01*
X51539653Y-83021782D01*
X51560170Y-83034079D01*
X51579383Y-83048329D01*
X51597107Y-83064393D01*
X51613171Y-83082117D01*
X51627421Y-83101330D01*
X51639718Y-83121847D01*
X51649946Y-83143471D01*
X51658004Y-83165993D01*
X51663816Y-83189197D01*
X51667326Y-83212858D01*
X51668500Y-83236750D01*
X51668500Y-84149250D01*
X51667326Y-84173142D01*
X51663816Y-84196803D01*
X51658004Y-84220007D01*
X51649946Y-84242529D01*
X51639718Y-84264153D01*
X51627421Y-84284670D01*
X51613171Y-84303883D01*
X51597107Y-84321607D01*
X51579383Y-84337671D01*
X51560170Y-84351921D01*
X51539653Y-84364218D01*
X51518029Y-84374446D01*
X51495507Y-84382504D01*
X51472303Y-84388316D01*
X51448642Y-84391826D01*
X51424750Y-84393000D01*
X50937250Y-84393000D01*
X50913358Y-84391826D01*
X50889697Y-84388316D01*
X50866493Y-84382504D01*
X50843971Y-84374446D01*
X50822347Y-84364218D01*
X50801830Y-84351921D01*
X50782617Y-84337671D01*
X50764893Y-84321607D01*
X50748829Y-84303883D01*
X50734579Y-84284670D01*
X50722282Y-84264153D01*
X50712054Y-84242529D01*
X50703996Y-84220007D01*
X50698184Y-84196803D01*
X50694674Y-84173142D01*
X50693500Y-84149250D01*
X50693500Y-83236750D01*
X50694674Y-83212858D01*
X50698184Y-83189197D01*
X50703996Y-83165993D01*
X50712054Y-83143471D01*
X50722282Y-83121847D01*
X50734579Y-83101330D01*
X50748829Y-83082117D01*
X50764893Y-83064393D01*
X50782617Y-83048329D01*
X50801830Y-83034079D01*
X50822347Y-83021782D01*
X50843971Y-83011554D01*
X50866493Y-83003496D01*
X50889697Y-82997684D01*
X50913358Y-82994174D01*
X50937250Y-82993000D01*
X51424750Y-82993000D01*
X51448642Y-82994174D01*
G37*
G04 #@! TD.AperFunction*
G04 #@! TA.AperFunction,SMDPad,CuDef*
G36*
X51534142Y-59838674D02*
G01*
X51557803Y-59842184D01*
X51581007Y-59847996D01*
X51603529Y-59856054D01*
X51625153Y-59866282D01*
X51645670Y-59878579D01*
X51664883Y-59892829D01*
X51682607Y-59908893D01*
X51698671Y-59926617D01*
X51712921Y-59945830D01*
X51725218Y-59966347D01*
X51735446Y-59987971D01*
X51743504Y-60010493D01*
X51749316Y-60033697D01*
X51752826Y-60057358D01*
X51754000Y-60081250D01*
X51754000Y-60568750D01*
X51752826Y-60592642D01*
X51749316Y-60616303D01*
X51743504Y-60639507D01*
X51735446Y-60662029D01*
X51725218Y-60683653D01*
X51712921Y-60704170D01*
X51698671Y-60723383D01*
X51682607Y-60741107D01*
X51664883Y-60757171D01*
X51645670Y-60771421D01*
X51625153Y-60783718D01*
X51603529Y-60793946D01*
X51581007Y-60802004D01*
X51557803Y-60807816D01*
X51534142Y-60811326D01*
X51510250Y-60812500D01*
X50597750Y-60812500D01*
X50573858Y-60811326D01*
X50550197Y-60807816D01*
X50526993Y-60802004D01*
X50504471Y-60793946D01*
X50482847Y-60783718D01*
X50462330Y-60771421D01*
X50443117Y-60757171D01*
X50425393Y-60741107D01*
X50409329Y-60723383D01*
X50395079Y-60704170D01*
X50382782Y-60683653D01*
X50372554Y-60662029D01*
X50364496Y-60639507D01*
X50358684Y-60616303D01*
X50355174Y-60592642D01*
X50354000Y-60568750D01*
X50354000Y-60081250D01*
X50355174Y-60057358D01*
X50358684Y-60033697D01*
X50364496Y-60010493D01*
X50372554Y-59987971D01*
X50382782Y-59966347D01*
X50395079Y-59945830D01*
X50409329Y-59926617D01*
X50425393Y-59908893D01*
X50443117Y-59892829D01*
X50462330Y-59878579D01*
X50482847Y-59866282D01*
X50504471Y-59856054D01*
X50526993Y-59847996D01*
X50550197Y-59842184D01*
X50573858Y-59838674D01*
X50597750Y-59837500D01*
X51510250Y-59837500D01*
X51534142Y-59838674D01*
G37*
G04 #@! TD.AperFunction*
G04 #@! TA.AperFunction,SMDPad,CuDef*
G36*
X51534142Y-61713674D02*
G01*
X51557803Y-61717184D01*
X51581007Y-61722996D01*
X51603529Y-61731054D01*
X51625153Y-61741282D01*
X51645670Y-61753579D01*
X51664883Y-61767829D01*
X51682607Y-61783893D01*
X51698671Y-61801617D01*
X51712921Y-61820830D01*
X51725218Y-61841347D01*
X51735446Y-61862971D01*
X51743504Y-61885493D01*
X51749316Y-61908697D01*
X51752826Y-61932358D01*
X51754000Y-61956250D01*
X51754000Y-62443750D01*
X51752826Y-62467642D01*
X51749316Y-62491303D01*
X51743504Y-62514507D01*
X51735446Y-62537029D01*
X51725218Y-62558653D01*
X51712921Y-62579170D01*
X51698671Y-62598383D01*
X51682607Y-62616107D01*
X51664883Y-62632171D01*
X51645670Y-62646421D01*
X51625153Y-62658718D01*
X51603529Y-62668946D01*
X51581007Y-62677004D01*
X51557803Y-62682816D01*
X51534142Y-62686326D01*
X51510250Y-62687500D01*
X50597750Y-62687500D01*
X50573858Y-62686326D01*
X50550197Y-62682816D01*
X50526993Y-62677004D01*
X50504471Y-62668946D01*
X50482847Y-62658718D01*
X50462330Y-62646421D01*
X50443117Y-62632171D01*
X50425393Y-62616107D01*
X50409329Y-62598383D01*
X50395079Y-62579170D01*
X50382782Y-62558653D01*
X50372554Y-62537029D01*
X50364496Y-62514507D01*
X50358684Y-62491303D01*
X50355174Y-62467642D01*
X50354000Y-62443750D01*
X50354000Y-61956250D01*
X50355174Y-61932358D01*
X50358684Y-61908697D01*
X50364496Y-61885493D01*
X50372554Y-61862971D01*
X50382782Y-61841347D01*
X50395079Y-61820830D01*
X50409329Y-61801617D01*
X50425393Y-61783893D01*
X50443117Y-61767829D01*
X50462330Y-61753579D01*
X50482847Y-61741282D01*
X50504471Y-61731054D01*
X50526993Y-61722996D01*
X50550197Y-61717184D01*
X50573858Y-61713674D01*
X50597750Y-61712500D01*
X51510250Y-61712500D01*
X51534142Y-61713674D01*
G37*
G04 #@! TD.AperFunction*
G04 #@! TA.AperFunction,SMDPad,CuDef*
G36*
X59408142Y-61743674D02*
G01*
X59431803Y-61747184D01*
X59455007Y-61752996D01*
X59477529Y-61761054D01*
X59499153Y-61771282D01*
X59519670Y-61783579D01*
X59538883Y-61797829D01*
X59556607Y-61813893D01*
X59572671Y-61831617D01*
X59586921Y-61850830D01*
X59599218Y-61871347D01*
X59609446Y-61892971D01*
X59617504Y-61915493D01*
X59623316Y-61938697D01*
X59626826Y-61962358D01*
X59628000Y-61986250D01*
X59628000Y-62473750D01*
X59626826Y-62497642D01*
X59623316Y-62521303D01*
X59617504Y-62544507D01*
X59609446Y-62567029D01*
X59599218Y-62588653D01*
X59586921Y-62609170D01*
X59572671Y-62628383D01*
X59556607Y-62646107D01*
X59538883Y-62662171D01*
X59519670Y-62676421D01*
X59499153Y-62688718D01*
X59477529Y-62698946D01*
X59455007Y-62707004D01*
X59431803Y-62712816D01*
X59408142Y-62716326D01*
X59384250Y-62717500D01*
X58471750Y-62717500D01*
X58447858Y-62716326D01*
X58424197Y-62712816D01*
X58400993Y-62707004D01*
X58378471Y-62698946D01*
X58356847Y-62688718D01*
X58336330Y-62676421D01*
X58317117Y-62662171D01*
X58299393Y-62646107D01*
X58283329Y-62628383D01*
X58269079Y-62609170D01*
X58256782Y-62588653D01*
X58246554Y-62567029D01*
X58238496Y-62544507D01*
X58232684Y-62521303D01*
X58229174Y-62497642D01*
X58228000Y-62473750D01*
X58228000Y-61986250D01*
X58229174Y-61962358D01*
X58232684Y-61938697D01*
X58238496Y-61915493D01*
X58246554Y-61892971D01*
X58256782Y-61871347D01*
X58269079Y-61850830D01*
X58283329Y-61831617D01*
X58299393Y-61813893D01*
X58317117Y-61797829D01*
X58336330Y-61783579D01*
X58356847Y-61771282D01*
X58378471Y-61761054D01*
X58400993Y-61752996D01*
X58424197Y-61747184D01*
X58447858Y-61743674D01*
X58471750Y-61742500D01*
X59384250Y-61742500D01*
X59408142Y-61743674D01*
G37*
G04 #@! TD.AperFunction*
G04 #@! TA.AperFunction,SMDPad,CuDef*
G36*
X59408142Y-59868674D02*
G01*
X59431803Y-59872184D01*
X59455007Y-59877996D01*
X59477529Y-59886054D01*
X59499153Y-59896282D01*
X59519670Y-59908579D01*
X59538883Y-59922829D01*
X59556607Y-59938893D01*
X59572671Y-59956617D01*
X59586921Y-59975830D01*
X59599218Y-59996347D01*
X59609446Y-60017971D01*
X59617504Y-60040493D01*
X59623316Y-60063697D01*
X59626826Y-60087358D01*
X59628000Y-60111250D01*
X59628000Y-60598750D01*
X59626826Y-60622642D01*
X59623316Y-60646303D01*
X59617504Y-60669507D01*
X59609446Y-60692029D01*
X59599218Y-60713653D01*
X59586921Y-60734170D01*
X59572671Y-60753383D01*
X59556607Y-60771107D01*
X59538883Y-60787171D01*
X59519670Y-60801421D01*
X59499153Y-60813718D01*
X59477529Y-60823946D01*
X59455007Y-60832004D01*
X59431803Y-60837816D01*
X59408142Y-60841326D01*
X59384250Y-60842500D01*
X58471750Y-60842500D01*
X58447858Y-60841326D01*
X58424197Y-60837816D01*
X58400993Y-60832004D01*
X58378471Y-60823946D01*
X58356847Y-60813718D01*
X58336330Y-60801421D01*
X58317117Y-60787171D01*
X58299393Y-60771107D01*
X58283329Y-60753383D01*
X58269079Y-60734170D01*
X58256782Y-60713653D01*
X58246554Y-60692029D01*
X58238496Y-60669507D01*
X58232684Y-60646303D01*
X58229174Y-60622642D01*
X58228000Y-60598750D01*
X58228000Y-60111250D01*
X58229174Y-60087358D01*
X58232684Y-60063697D01*
X58238496Y-60040493D01*
X58246554Y-60017971D01*
X58256782Y-59996347D01*
X58269079Y-59975830D01*
X58283329Y-59956617D01*
X58299393Y-59938893D01*
X58317117Y-59922829D01*
X58336330Y-59908579D01*
X58356847Y-59896282D01*
X58378471Y-59886054D01*
X58400993Y-59877996D01*
X58424197Y-59872184D01*
X58447858Y-59868674D01*
X58471750Y-59867500D01*
X59384250Y-59867500D01*
X59408142Y-59868674D01*
G37*
G04 #@! TD.AperFunction*
G04 #@! TA.AperFunction,SMDPad,CuDef*
G36*
X58052642Y-82994174D02*
G01*
X58076303Y-82997684D01*
X58099507Y-83003496D01*
X58122029Y-83011554D01*
X58143653Y-83021782D01*
X58164170Y-83034079D01*
X58183383Y-83048329D01*
X58201107Y-83064393D01*
X58217171Y-83082117D01*
X58231421Y-83101330D01*
X58243718Y-83121847D01*
X58253946Y-83143471D01*
X58262004Y-83165993D01*
X58267816Y-83189197D01*
X58271326Y-83212858D01*
X58272500Y-83236750D01*
X58272500Y-84149250D01*
X58271326Y-84173142D01*
X58267816Y-84196803D01*
X58262004Y-84220007D01*
X58253946Y-84242529D01*
X58243718Y-84264153D01*
X58231421Y-84284670D01*
X58217171Y-84303883D01*
X58201107Y-84321607D01*
X58183383Y-84337671D01*
X58164170Y-84351921D01*
X58143653Y-84364218D01*
X58122029Y-84374446D01*
X58099507Y-84382504D01*
X58076303Y-84388316D01*
X58052642Y-84391826D01*
X58028750Y-84393000D01*
X57541250Y-84393000D01*
X57517358Y-84391826D01*
X57493697Y-84388316D01*
X57470493Y-84382504D01*
X57447971Y-84374446D01*
X57426347Y-84364218D01*
X57405830Y-84351921D01*
X57386617Y-84337671D01*
X57368893Y-84321607D01*
X57352829Y-84303883D01*
X57338579Y-84284670D01*
X57326282Y-84264153D01*
X57316054Y-84242529D01*
X57307996Y-84220007D01*
X57302184Y-84196803D01*
X57298674Y-84173142D01*
X57297500Y-84149250D01*
X57297500Y-83236750D01*
X57298674Y-83212858D01*
X57302184Y-83189197D01*
X57307996Y-83165993D01*
X57316054Y-83143471D01*
X57326282Y-83121847D01*
X57338579Y-83101330D01*
X57352829Y-83082117D01*
X57368893Y-83064393D01*
X57386617Y-83048329D01*
X57405830Y-83034079D01*
X57426347Y-83021782D01*
X57447971Y-83011554D01*
X57470493Y-83003496D01*
X57493697Y-82997684D01*
X57517358Y-82994174D01*
X57541250Y-82993000D01*
X58028750Y-82993000D01*
X58052642Y-82994174D01*
G37*
G04 #@! TD.AperFunction*
G04 #@! TA.AperFunction,SMDPad,CuDef*
G36*
X59927642Y-82994174D02*
G01*
X59951303Y-82997684D01*
X59974507Y-83003496D01*
X59997029Y-83011554D01*
X60018653Y-83021782D01*
X60039170Y-83034079D01*
X60058383Y-83048329D01*
X60076107Y-83064393D01*
X60092171Y-83082117D01*
X60106421Y-83101330D01*
X60118718Y-83121847D01*
X60128946Y-83143471D01*
X60137004Y-83165993D01*
X60142816Y-83189197D01*
X60146326Y-83212858D01*
X60147500Y-83236750D01*
X60147500Y-84149250D01*
X60146326Y-84173142D01*
X60142816Y-84196803D01*
X60137004Y-84220007D01*
X60128946Y-84242529D01*
X60118718Y-84264153D01*
X60106421Y-84284670D01*
X60092171Y-84303883D01*
X60076107Y-84321607D01*
X60058383Y-84337671D01*
X60039170Y-84351921D01*
X60018653Y-84364218D01*
X59997029Y-84374446D01*
X59974507Y-84382504D01*
X59951303Y-84388316D01*
X59927642Y-84391826D01*
X59903750Y-84393000D01*
X59416250Y-84393000D01*
X59392358Y-84391826D01*
X59368697Y-84388316D01*
X59345493Y-84382504D01*
X59322971Y-84374446D01*
X59301347Y-84364218D01*
X59280830Y-84351921D01*
X59261617Y-84337671D01*
X59243893Y-84321607D01*
X59227829Y-84303883D01*
X59213579Y-84284670D01*
X59201282Y-84264153D01*
X59191054Y-84242529D01*
X59182996Y-84220007D01*
X59177184Y-84196803D01*
X59173674Y-84173142D01*
X59172500Y-84149250D01*
X59172500Y-83236750D01*
X59173674Y-83212858D01*
X59177184Y-83189197D01*
X59182996Y-83165993D01*
X59191054Y-83143471D01*
X59201282Y-83121847D01*
X59213579Y-83101330D01*
X59227829Y-83082117D01*
X59243893Y-83064393D01*
X59261617Y-83048329D01*
X59280830Y-83034079D01*
X59301347Y-83021782D01*
X59322971Y-83011554D01*
X59345493Y-83003496D01*
X59368697Y-82997684D01*
X59392358Y-82994174D01*
X59416250Y-82993000D01*
X59903750Y-82993000D01*
X59927642Y-82994174D01*
G37*
G04 #@! TD.AperFunction*
G04 #@! TA.AperFunction,SMDPad,CuDef*
G36*
X45057142Y-69744674D02*
G01*
X45080803Y-69748184D01*
X45104007Y-69753996D01*
X45126529Y-69762054D01*
X45148153Y-69772282D01*
X45168670Y-69784579D01*
X45187883Y-69798829D01*
X45205607Y-69814893D01*
X45221671Y-69832617D01*
X45235921Y-69851830D01*
X45248218Y-69872347D01*
X45258446Y-69893971D01*
X45266504Y-69916493D01*
X45272316Y-69939697D01*
X45275826Y-69963358D01*
X45277000Y-69987250D01*
X45277000Y-70474750D01*
X45275826Y-70498642D01*
X45272316Y-70522303D01*
X45266504Y-70545507D01*
X45258446Y-70568029D01*
X45248218Y-70589653D01*
X45235921Y-70610170D01*
X45221671Y-70629383D01*
X45205607Y-70647107D01*
X45187883Y-70663171D01*
X45168670Y-70677421D01*
X45148153Y-70689718D01*
X45126529Y-70699946D01*
X45104007Y-70708004D01*
X45080803Y-70713816D01*
X45057142Y-70717326D01*
X45033250Y-70718500D01*
X44120750Y-70718500D01*
X44096858Y-70717326D01*
X44073197Y-70713816D01*
X44049993Y-70708004D01*
X44027471Y-70699946D01*
X44005847Y-70689718D01*
X43985330Y-70677421D01*
X43966117Y-70663171D01*
X43948393Y-70647107D01*
X43932329Y-70629383D01*
X43918079Y-70610170D01*
X43905782Y-70589653D01*
X43895554Y-70568029D01*
X43887496Y-70545507D01*
X43881684Y-70522303D01*
X43878174Y-70498642D01*
X43877000Y-70474750D01*
X43877000Y-69987250D01*
X43878174Y-69963358D01*
X43881684Y-69939697D01*
X43887496Y-69916493D01*
X43895554Y-69893971D01*
X43905782Y-69872347D01*
X43918079Y-69851830D01*
X43932329Y-69832617D01*
X43948393Y-69814893D01*
X43966117Y-69798829D01*
X43985330Y-69784579D01*
X44005847Y-69772282D01*
X44027471Y-69762054D01*
X44049993Y-69753996D01*
X44073197Y-69748184D01*
X44096858Y-69744674D01*
X44120750Y-69743500D01*
X45033250Y-69743500D01*
X45057142Y-69744674D01*
G37*
G04 #@! TD.AperFunction*
G04 #@! TA.AperFunction,SMDPad,CuDef*
G36*
X45057142Y-71619674D02*
G01*
X45080803Y-71623184D01*
X45104007Y-71628996D01*
X45126529Y-71637054D01*
X45148153Y-71647282D01*
X45168670Y-71659579D01*
X45187883Y-71673829D01*
X45205607Y-71689893D01*
X45221671Y-71707617D01*
X45235921Y-71726830D01*
X45248218Y-71747347D01*
X45258446Y-71768971D01*
X45266504Y-71791493D01*
X45272316Y-71814697D01*
X45275826Y-71838358D01*
X45277000Y-71862250D01*
X45277000Y-72349750D01*
X45275826Y-72373642D01*
X45272316Y-72397303D01*
X45266504Y-72420507D01*
X45258446Y-72443029D01*
X45248218Y-72464653D01*
X45235921Y-72485170D01*
X45221671Y-72504383D01*
X45205607Y-72522107D01*
X45187883Y-72538171D01*
X45168670Y-72552421D01*
X45148153Y-72564718D01*
X45126529Y-72574946D01*
X45104007Y-72583004D01*
X45080803Y-72588816D01*
X45057142Y-72592326D01*
X45033250Y-72593500D01*
X44120750Y-72593500D01*
X44096858Y-72592326D01*
X44073197Y-72588816D01*
X44049993Y-72583004D01*
X44027471Y-72574946D01*
X44005847Y-72564718D01*
X43985330Y-72552421D01*
X43966117Y-72538171D01*
X43948393Y-72522107D01*
X43932329Y-72504383D01*
X43918079Y-72485170D01*
X43905782Y-72464653D01*
X43895554Y-72443029D01*
X43887496Y-72420507D01*
X43881684Y-72397303D01*
X43878174Y-72373642D01*
X43877000Y-72349750D01*
X43877000Y-71862250D01*
X43878174Y-71838358D01*
X43881684Y-71814697D01*
X43887496Y-71791493D01*
X43895554Y-71768971D01*
X43905782Y-71747347D01*
X43918079Y-71726830D01*
X43932329Y-71707617D01*
X43948393Y-71689893D01*
X43966117Y-71673829D01*
X43985330Y-71659579D01*
X44005847Y-71647282D01*
X44027471Y-71637054D01*
X44049993Y-71628996D01*
X44073197Y-71623184D01*
X44096858Y-71619674D01*
X44120750Y-71618500D01*
X45033250Y-71618500D01*
X45057142Y-71619674D01*
G37*
G04 #@! TD.AperFunction*
G04 #@! TA.AperFunction,SMDPad,CuDef*
G36*
X66393142Y-68601674D02*
G01*
X66416803Y-68605184D01*
X66440007Y-68610996D01*
X66462529Y-68619054D01*
X66484153Y-68629282D01*
X66504670Y-68641579D01*
X66523883Y-68655829D01*
X66541607Y-68671893D01*
X66557671Y-68689617D01*
X66571921Y-68708830D01*
X66584218Y-68729347D01*
X66594446Y-68750971D01*
X66602504Y-68773493D01*
X66608316Y-68796697D01*
X66611826Y-68820358D01*
X66613000Y-68844250D01*
X66613000Y-69331750D01*
X66611826Y-69355642D01*
X66608316Y-69379303D01*
X66602504Y-69402507D01*
X66594446Y-69425029D01*
X66584218Y-69446653D01*
X66571921Y-69467170D01*
X66557671Y-69486383D01*
X66541607Y-69504107D01*
X66523883Y-69520171D01*
X66504670Y-69534421D01*
X66484153Y-69546718D01*
X66462529Y-69556946D01*
X66440007Y-69565004D01*
X66416803Y-69570816D01*
X66393142Y-69574326D01*
X66369250Y-69575500D01*
X65456750Y-69575500D01*
X65432858Y-69574326D01*
X65409197Y-69570816D01*
X65385993Y-69565004D01*
X65363471Y-69556946D01*
X65341847Y-69546718D01*
X65321330Y-69534421D01*
X65302117Y-69520171D01*
X65284393Y-69504107D01*
X65268329Y-69486383D01*
X65254079Y-69467170D01*
X65241782Y-69446653D01*
X65231554Y-69425029D01*
X65223496Y-69402507D01*
X65217684Y-69379303D01*
X65214174Y-69355642D01*
X65213000Y-69331750D01*
X65213000Y-68844250D01*
X65214174Y-68820358D01*
X65217684Y-68796697D01*
X65223496Y-68773493D01*
X65231554Y-68750971D01*
X65241782Y-68729347D01*
X65254079Y-68708830D01*
X65268329Y-68689617D01*
X65284393Y-68671893D01*
X65302117Y-68655829D01*
X65321330Y-68641579D01*
X65341847Y-68629282D01*
X65363471Y-68619054D01*
X65385993Y-68610996D01*
X65409197Y-68605184D01*
X65432858Y-68601674D01*
X65456750Y-68600500D01*
X66369250Y-68600500D01*
X66393142Y-68601674D01*
G37*
G04 #@! TD.AperFunction*
G04 #@! TA.AperFunction,SMDPad,CuDef*
G36*
X66393142Y-70476674D02*
G01*
X66416803Y-70480184D01*
X66440007Y-70485996D01*
X66462529Y-70494054D01*
X66484153Y-70504282D01*
X66504670Y-70516579D01*
X66523883Y-70530829D01*
X66541607Y-70546893D01*
X66557671Y-70564617D01*
X66571921Y-70583830D01*
X66584218Y-70604347D01*
X66594446Y-70625971D01*
X66602504Y-70648493D01*
X66608316Y-70671697D01*
X66611826Y-70695358D01*
X66613000Y-70719250D01*
X66613000Y-71206750D01*
X66611826Y-71230642D01*
X66608316Y-71254303D01*
X66602504Y-71277507D01*
X66594446Y-71300029D01*
X66584218Y-71321653D01*
X66571921Y-71342170D01*
X66557671Y-71361383D01*
X66541607Y-71379107D01*
X66523883Y-71395171D01*
X66504670Y-71409421D01*
X66484153Y-71421718D01*
X66462529Y-71431946D01*
X66440007Y-71440004D01*
X66416803Y-71445816D01*
X66393142Y-71449326D01*
X66369250Y-71450500D01*
X65456750Y-71450500D01*
X65432858Y-71449326D01*
X65409197Y-71445816D01*
X65385993Y-71440004D01*
X65363471Y-71431946D01*
X65341847Y-71421718D01*
X65321330Y-71409421D01*
X65302117Y-71395171D01*
X65284393Y-71379107D01*
X65268329Y-71361383D01*
X65254079Y-71342170D01*
X65241782Y-71321653D01*
X65231554Y-71300029D01*
X65223496Y-71277507D01*
X65217684Y-71254303D01*
X65214174Y-71230642D01*
X65213000Y-71206750D01*
X65213000Y-70719250D01*
X65214174Y-70695358D01*
X65217684Y-70671697D01*
X65223496Y-70648493D01*
X65231554Y-70625971D01*
X65241782Y-70604347D01*
X65254079Y-70583830D01*
X65268329Y-70564617D01*
X65284393Y-70546893D01*
X65302117Y-70530829D01*
X65321330Y-70516579D01*
X65341847Y-70504282D01*
X65363471Y-70494054D01*
X65385993Y-70485996D01*
X65409197Y-70480184D01*
X65432858Y-70476674D01*
X65456750Y-70475500D01*
X66369250Y-70475500D01*
X66393142Y-70476674D01*
G37*
G04 #@! TD.AperFunction*
D22*
X62865000Y-82677000D03*
X56007000Y-81788000D03*
X63373000Y-69850000D03*
X46888000Y-76225000D03*
X46228000Y-73406000D03*
X47952100Y-71935900D03*
X70612000Y-70993000D03*
X68107000Y-70993000D03*
X49911000Y-79502000D03*
X73787000Y-72263000D03*
X67564000Y-72263000D03*
X73787000Y-75692000D03*
X67691000Y-75692000D03*
X73787000Y-74533003D03*
X67564000Y-74549000D03*
X73787000Y-73533000D03*
X67564000Y-73533000D03*
X44196000Y-76200000D03*
X44399200Y-65074800D03*
D23*
X56145000Y-60355000D02*
X56048000Y-60452000D01*
X58928000Y-60355000D02*
X56145000Y-60355000D01*
X55648000Y-60452000D02*
X53948000Y-62152000D01*
X53948000Y-62152000D02*
X53848000Y-62152000D01*
X56048000Y-60452000D02*
X55648000Y-60452000D01*
X53800000Y-62200000D02*
X53848000Y-62152000D01*
X51054000Y-62200000D02*
X49149000Y-60295000D01*
X49149000Y-60295000D02*
X49149000Y-58928000D01*
X49149000Y-58928000D02*
X49657000Y-58420000D01*
X49657000Y-58420000D02*
X55499000Y-58420000D01*
X56048000Y-58969000D02*
X56048000Y-60452000D01*
X55499000Y-58420000D02*
X56048000Y-58969000D01*
X61008000Y-69088000D02*
X60945000Y-69025000D01*
X65913000Y-69088000D02*
X61008000Y-69088000D01*
X52045000Y-77721000D02*
X52045000Y-78725000D01*
X52045000Y-75321000D02*
X52045000Y-77721000D01*
X50549000Y-73825000D02*
X52045000Y-75321000D01*
X49545000Y-73825000D02*
X50549000Y-73825000D01*
X49545000Y-73825000D02*
X51778000Y-73825000D01*
X51778000Y-73825000D02*
X53645000Y-71958000D01*
X55181000Y-69025000D02*
X53594000Y-70612000D01*
X60945000Y-69025000D02*
X55181000Y-69025000D01*
X53645000Y-71958000D02*
X53594000Y-70612000D01*
X53594000Y-70612000D02*
X53645000Y-67325000D01*
X58445000Y-77721000D02*
X58420000Y-77696000D01*
X58445000Y-78725000D02*
X58445000Y-77721000D01*
X58420000Y-77696000D02*
X58420000Y-73914000D01*
X56464000Y-71958000D02*
X53645000Y-71958000D01*
X58420000Y-73914000D02*
X56464000Y-71958000D01*
X58445000Y-83033000D02*
X58445000Y-78725000D01*
X57785000Y-83693000D02*
X58445000Y-83033000D01*
X37795000Y-61641000D02*
X44577000Y-68423000D01*
X37795000Y-60253000D02*
X37795000Y-61641000D01*
X48171000Y-73825000D02*
X49545000Y-73825000D01*
X44577000Y-70231000D02*
X48171000Y-73825000D01*
X44577000Y-68423000D02*
X44577000Y-70231000D01*
D24*
X65913000Y-78770000D02*
X69342000Y-75341000D01*
X69342000Y-70612000D02*
X67818000Y-69088000D01*
X69342000Y-75341000D02*
X69342000Y-70612000D01*
X67818000Y-69088000D02*
X65913000Y-69088000D01*
X53645000Y-64791000D02*
X51054000Y-62200000D01*
X53645000Y-67325000D02*
X53645000Y-64791000D01*
X41731000Y-84569000D02*
X42439001Y-85277001D01*
X41731000Y-83638000D02*
X41731000Y-84569000D01*
X42439001Y-85277001D02*
X51471999Y-85277001D01*
X51471999Y-85277001D02*
X53056000Y-83693000D01*
X53056000Y-83693000D02*
X57785000Y-83693000D01*
D23*
X61949000Y-69825000D02*
X60945000Y-69825000D01*
X65213000Y-70963000D02*
X64075000Y-69825000D01*
X65913000Y-70963000D02*
X65213000Y-70963000D01*
X59660000Y-79140000D02*
X59245000Y-78725000D01*
X59660000Y-83693000D02*
X59660000Y-79140000D01*
X51181000Y-78789000D02*
X51245000Y-78725000D01*
X51181000Y-83693000D02*
X51181000Y-78789000D01*
D24*
X44577000Y-72593500D02*
X45389500Y-73406000D01*
X44577000Y-72106000D02*
X44577000Y-72593500D01*
X45389500Y-73406000D02*
X46101000Y-73406000D01*
X49520000Y-76200000D02*
X49545000Y-76225000D01*
X60676000Y-82677000D02*
X59660000Y-83693000D01*
X62865000Y-82677000D02*
X60676000Y-82677000D01*
X51181000Y-83693000D02*
X53086000Y-81788000D01*
X53086000Y-81788000D02*
X56007000Y-81788000D01*
D23*
X46888000Y-76225000D02*
X46863000Y-76200000D01*
X49545000Y-76225000D02*
X46888000Y-76225000D01*
X63398000Y-69825000D02*
X61949000Y-69825000D01*
X63398000Y-69825000D02*
X63373000Y-69850000D01*
X64075000Y-69825000D02*
X63398000Y-69825000D01*
X46101000Y-73406000D02*
X46228000Y-73406000D01*
D24*
X48241200Y-72225000D02*
X49545000Y-72225000D01*
X47952100Y-71935900D02*
X48241200Y-72225000D01*
X72136000Y-81026000D02*
X72136000Y-77089000D01*
X62865000Y-82677000D02*
X70485000Y-82677000D01*
X70485000Y-82677000D02*
X72136000Y-81026000D01*
X72136000Y-77089000D02*
X72136000Y-72517000D01*
X72136000Y-72517000D02*
X70612000Y-70993000D01*
X65943000Y-70993000D02*
X65913000Y-70963000D01*
X68107000Y-70993000D02*
X65943000Y-70993000D01*
X47498000Y-71481800D02*
X47952100Y-71935900D01*
X47498000Y-68423000D02*
X47498000Y-71481800D01*
X47498000Y-68423000D02*
X50074690Y-65846310D01*
X49911000Y-79248000D02*
X49911000Y-79502000D01*
X46888000Y-76225000D02*
X49911000Y-79248000D01*
X42548098Y-76708000D02*
X47879000Y-82038902D01*
X37973000Y-76708000D02*
X42548098Y-76708000D01*
X49526902Y-82038902D02*
X51181000Y-83693000D01*
X47879000Y-82038902D02*
X49526902Y-82038902D01*
D23*
X56126000Y-62230000D02*
X56048000Y-62152000D01*
X58928000Y-62230000D02*
X56126000Y-62230000D01*
X55245000Y-66321000D02*
X55245000Y-67325000D01*
X55245000Y-63809000D02*
X55245000Y-66321000D01*
X56048000Y-63006000D02*
X55245000Y-63809000D01*
X56048000Y-62152000D02*
X56048000Y-63006000D01*
X53721000Y-60325000D02*
X53848000Y-60452000D01*
X51054000Y-60325000D02*
X53721000Y-60325000D01*
X52451000Y-60895000D02*
X52894000Y-60452000D01*
X52451000Y-62865132D02*
X52451000Y-60895000D01*
X54445000Y-67325000D02*
X54445000Y-64859131D01*
X52894000Y-60452000D02*
X53848000Y-60452000D01*
X54445000Y-64859131D02*
X52451000Y-62865132D01*
X44577000Y-66548000D02*
X44577000Y-66915822D01*
X45850533Y-67821533D02*
X44577000Y-66548000D01*
X45850533Y-70862467D02*
X45850533Y-67821533D01*
X49545000Y-73025000D02*
X48013066Y-73025000D01*
X48013066Y-73025000D02*
X45850533Y-70862467D01*
X87900000Y-61850000D02*
X90487500Y-61850000D01*
X85050000Y-59000000D02*
X87900000Y-61850000D01*
X90487500Y-65150000D02*
X97662000Y-65150000D01*
X97662000Y-65150000D02*
X99314000Y-66802000D01*
X109537500Y-65854000D02*
X109537500Y-65150000D01*
X108589500Y-66802000D02*
X109537500Y-65854000D01*
X99314000Y-66802000D02*
X108589500Y-66802000D01*
X90487500Y-65150000D02*
X89633500Y-65150000D01*
X60983000Y-72263000D02*
X60945000Y-72225000D01*
X67564000Y-72263000D02*
X60983000Y-72263000D01*
X89633500Y-65150000D02*
X88902250Y-65881250D01*
X88902250Y-65881250D02*
X76200000Y-65881250D01*
X73787000Y-68294250D02*
X73787000Y-72263000D01*
X76200000Y-65881250D02*
X73787000Y-68294250D01*
X87900000Y-80900000D02*
X90931000Y-80900000D01*
X85050000Y-78050000D02*
X87900000Y-80900000D01*
X90487500Y-84200000D02*
X97662000Y-84200000D01*
X97662000Y-84200000D02*
X99314000Y-85852000D01*
X109537500Y-84904000D02*
X109537500Y-84200000D01*
X108589500Y-85852000D02*
X109537500Y-84904000D01*
X99314000Y-85852000D02*
X108589500Y-85852000D01*
X89633500Y-84904000D02*
X74871000Y-84904000D01*
X90487500Y-84200000D02*
X90337500Y-84200000D01*
X90337500Y-84200000D02*
X89633500Y-84904000D01*
X74871000Y-84904000D02*
X73787000Y-83820000D01*
X73787000Y-83820000D02*
X73787000Y-75692000D01*
X61758602Y-74625000D02*
X60945000Y-74625000D01*
X62825602Y-75692000D02*
X61758602Y-74625000D01*
X67691000Y-75692000D02*
X62825602Y-75692000D01*
X106950000Y-61850000D02*
X109537500Y-61850000D01*
X104100000Y-59000000D02*
X106950000Y-61850000D01*
X106950000Y-80900000D02*
X109537500Y-80900000D01*
X104100000Y-78050000D02*
X106950000Y-80900000D01*
D24*
X34998000Y-75171000D02*
X34998000Y-76708000D01*
X34595000Y-66941500D02*
X33718500Y-67818000D01*
X32131000Y-67818000D02*
X31623000Y-68326000D01*
X34595000Y-60253000D02*
X34595000Y-66941500D01*
X33718500Y-67818000D02*
X32131000Y-67818000D01*
X31623000Y-71796000D02*
X34998000Y-75171000D01*
X31623000Y-68326000D02*
X31623000Y-71796000D01*
D23*
X78740000Y-80010000D02*
X78740000Y-77978000D01*
X78740000Y-77978000D02*
X75184000Y-74422000D01*
X75184000Y-74422000D02*
X73787000Y-74422000D01*
X73787000Y-74422000D02*
X73787000Y-74533003D01*
X61949000Y-73825000D02*
X60945000Y-73825000D01*
X62273001Y-74149001D02*
X61949000Y-73825000D01*
X67164001Y-74149001D02*
X62273001Y-74149001D01*
X67564000Y-74549000D02*
X67164001Y-74149001D01*
X67056000Y-73025000D02*
X60945000Y-73025000D01*
X67564000Y-73533000D02*
X67056000Y-73025000D01*
X93016102Y-80010000D02*
X89274101Y-83752001D01*
X97790000Y-80010000D02*
X93016102Y-80010000D01*
X89274101Y-83752001D02*
X86133251Y-83752001D01*
X86133251Y-83752001D02*
X85725000Y-83343750D01*
X84931250Y-80994250D02*
X85725000Y-81788000D01*
X85725000Y-83343750D02*
X85725000Y-81788000D01*
X73787000Y-73533000D02*
X77343000Y-73533000D01*
X84931250Y-80994250D02*
X77470000Y-73660000D01*
X77343000Y-73533000D02*
X77470000Y-73660000D01*
X60979000Y-77059000D02*
X60945000Y-77025000D01*
X64036000Y-80645000D02*
X65213000Y-80645000D01*
X60945000Y-77554000D02*
X64036000Y-80645000D01*
X65213000Y-80645000D02*
X65913000Y-80645000D01*
X60945000Y-77025000D02*
X60945000Y-77554000D01*
X35395000Y-60253000D02*
X35395000Y-60998000D01*
X35395000Y-60253000D02*
X35395000Y-68364000D01*
X35395000Y-68364000D02*
X34671000Y-69088000D01*
X33939000Y-70231000D02*
X32796000Y-69088000D01*
X39751000Y-70231000D02*
X33939000Y-70231000D01*
X49545000Y-75425000D02*
X44945000Y-75425000D01*
X44945000Y-75425000D02*
X39751000Y-70231000D01*
X36195000Y-60253000D02*
X36195000Y-68326000D01*
X36195000Y-68326000D02*
X36957000Y-69088000D01*
X39878000Y-69088000D02*
X38832000Y-69088000D01*
X49545000Y-74625000D02*
X45415000Y-74625000D01*
X45415000Y-74625000D02*
X39878000Y-69088000D01*
X46024800Y-65074800D02*
X47498000Y-66548000D01*
X44399200Y-65074800D02*
X46024800Y-65074800D01*
X51333400Y-65328800D02*
X52045000Y-66040400D01*
X49417200Y-65328800D02*
X51333400Y-65328800D01*
X47498000Y-66548000D02*
X48198000Y-66548000D01*
X52045000Y-66040400D02*
X52045000Y-67325000D01*
X48198000Y-66548000D02*
X49417200Y-65328800D01*
X47931000Y-79938000D02*
X47931000Y-77999868D01*
X44595999Y-76599999D02*
X44196000Y-76200000D01*
X44948001Y-76952001D02*
X44595999Y-76599999D01*
X46883133Y-76952001D02*
X44948001Y-76952001D01*
X47931000Y-77999868D02*
X46883133Y-76952001D01*
G36*
X31166401Y-54681966D02*
G01*
X31081487Y-54961889D01*
X31060000Y-55180050D01*
X31060000Y-56325949D01*
X31081487Y-56544110D01*
X31166401Y-56824033D01*
X31304294Y-57082013D01*
X31489866Y-57308134D01*
X31715986Y-57493706D01*
X31973966Y-57631599D01*
X32253889Y-57716513D01*
X32545000Y-57745185D01*
X32836110Y-57716513D01*
X33116033Y-57631599D01*
X33374013Y-57493706D01*
X33600134Y-57308134D01*
X33785706Y-57082014D01*
X33923599Y-56824034D01*
X34008513Y-56544111D01*
X34030000Y-56325950D01*
X34030000Y-55180050D01*
X34008513Y-54961889D01*
X33923599Y-54681966D01*
X33898495Y-54635000D01*
X38491505Y-54635000D01*
X38466401Y-54681966D01*
X38381487Y-54961889D01*
X38360000Y-55180050D01*
X38360000Y-56325949D01*
X38381487Y-56544110D01*
X38466401Y-56824033D01*
X38604294Y-57082013D01*
X38789866Y-57308134D01*
X39015986Y-57493706D01*
X39273966Y-57631599D01*
X39553889Y-57716513D01*
X39845000Y-57745185D01*
X40136110Y-57716513D01*
X40416033Y-57631599D01*
X40674013Y-57493706D01*
X40900134Y-57308134D01*
X41085706Y-57082014D01*
X41223599Y-56824034D01*
X41308513Y-56544111D01*
X41330000Y-56325950D01*
X41330000Y-55180050D01*
X41308513Y-54961889D01*
X41223599Y-54681966D01*
X41198495Y-54635000D01*
X108552721Y-54635000D01*
X108949545Y-54673909D01*
X109300208Y-54779780D01*
X109623625Y-54951744D01*
X109907484Y-55183254D01*
X110140965Y-55465486D01*
X110315183Y-55787695D01*
X110423502Y-56137614D01*
X110465000Y-56532443D01*
X110465000Y-60855034D01*
X110381680Y-60810498D01*
X110261982Y-60774188D01*
X110137500Y-60761928D01*
X108937500Y-60761928D01*
X108813018Y-60774188D01*
X108693320Y-60810498D01*
X108583006Y-60869463D01*
X108486315Y-60948815D01*
X108406963Y-61045506D01*
X108384249Y-61088000D01*
X107265630Y-61088000D01*
X105761085Y-59583455D01*
X105806684Y-59463541D01*
X105849881Y-59207339D01*
X105888099Y-58653175D01*
X105900000Y-58593345D01*
X105900000Y-58480611D01*
X105901777Y-58454844D01*
X105900000Y-58394256D01*
X105900000Y-58246655D01*
X105894922Y-58221128D01*
X105894160Y-58195137D01*
X105861159Y-58051387D01*
X105832364Y-57906627D01*
X105822407Y-57882588D01*
X105816587Y-57857238D01*
X105756177Y-57722694D01*
X105699692Y-57586327D01*
X105685230Y-57564683D01*
X105674581Y-57540966D01*
X105589096Y-57420809D01*
X105507081Y-57298065D01*
X105488678Y-57279662D01*
X105473604Y-57258474D01*
X105366311Y-57157295D01*
X105261935Y-57052919D01*
X105240294Y-57038459D01*
X105221376Y-57020619D01*
X105096407Y-56942316D01*
X104973673Y-56860308D01*
X104949628Y-56850348D01*
X104927592Y-56836541D01*
X104789740Y-56784121D01*
X104653373Y-56727636D01*
X104627846Y-56722558D01*
X104603541Y-56713316D01*
X104458108Y-56688795D01*
X104313345Y-56660000D01*
X104287323Y-56660000D01*
X104261677Y-56655676D01*
X104114237Y-56660000D01*
X103966655Y-56660000D01*
X103941133Y-56665077D01*
X103915138Y-56665839D01*
X103771375Y-56698844D01*
X103626627Y-56727636D01*
X103602587Y-56737594D01*
X103577239Y-56743413D01*
X103442689Y-56803825D01*
X103306327Y-56860308D01*
X103284687Y-56874767D01*
X103260966Y-56885418D01*
X103140796Y-56970913D01*
X103018065Y-57052919D01*
X102999662Y-57071322D01*
X102978474Y-57086396D01*
X102877288Y-57193696D01*
X102772919Y-57298065D01*
X102758461Y-57319703D01*
X102740619Y-57338623D01*
X102662310Y-57463602D01*
X102580308Y-57586327D01*
X102570348Y-57610372D01*
X102556541Y-57632408D01*
X102504119Y-57770264D01*
X102447636Y-57906627D01*
X102442559Y-57932152D01*
X102433316Y-57956458D01*
X102408794Y-58101898D01*
X102380000Y-58246655D01*
X102380000Y-58359386D01*
X102338223Y-58965157D01*
X102345840Y-59224862D01*
X102423413Y-59562761D01*
X102565419Y-59879034D01*
X102766396Y-60161526D01*
X103018624Y-60399381D01*
X103312408Y-60583459D01*
X103636459Y-60706684D01*
X103978323Y-60764324D01*
X104324862Y-60754160D01*
X104662761Y-60676587D01*
X104687741Y-60665371D01*
X106119942Y-62097572D01*
X105964747Y-62161856D01*
X105717431Y-62327107D01*
X105507107Y-62537431D01*
X105341856Y-62784747D01*
X105228029Y-63059549D01*
X105170000Y-63351278D01*
X105170000Y-63648722D01*
X105228029Y-63940451D01*
X105341856Y-64215253D01*
X105507107Y-64462569D01*
X105717431Y-64672893D01*
X105964747Y-64838144D01*
X106239549Y-64951971D01*
X106531278Y-65010000D01*
X106828722Y-65010000D01*
X107120451Y-64951971D01*
X107395253Y-64838144D01*
X107642569Y-64672893D01*
X107852893Y-64462569D01*
X108018144Y-64215253D01*
X108131971Y-63940451D01*
X108190000Y-63648722D01*
X108190000Y-63351278D01*
X108131971Y-63059549D01*
X108018144Y-62784747D01*
X107902718Y-62612000D01*
X108384249Y-62612000D01*
X108406963Y-62654494D01*
X108486315Y-62751185D01*
X108583006Y-62830537D01*
X108693320Y-62889502D01*
X108813018Y-62925812D01*
X108937500Y-62938072D01*
X110137500Y-62938072D01*
X110261982Y-62925812D01*
X110381680Y-62889502D01*
X110465000Y-62844966D01*
X110465000Y-64155034D01*
X110381680Y-64110498D01*
X110261982Y-64074188D01*
X110137500Y-64061928D01*
X108937500Y-64061928D01*
X108813018Y-64074188D01*
X108693320Y-64110498D01*
X108583006Y-64169463D01*
X108486315Y-64248815D01*
X108406963Y-64345506D01*
X108347998Y-64455820D01*
X108311688Y-64575518D01*
X108299428Y-64700000D01*
X108299428Y-65600000D01*
X108311688Y-65724482D01*
X108347998Y-65844180D01*
X108390387Y-65923483D01*
X108273870Y-66040000D01*
X102305855Y-66040000D01*
X102366822Y-66027873D01*
X102845251Y-65829701D01*
X103275826Y-65542000D01*
X103642000Y-65175826D01*
X103929701Y-64745251D01*
X104127873Y-64266822D01*
X104228900Y-63758924D01*
X104228900Y-63241076D01*
X104127873Y-62733178D01*
X103929701Y-62254749D01*
X103642000Y-61824174D01*
X103275826Y-61458000D01*
X102845251Y-61170299D01*
X102366822Y-60972127D01*
X101858924Y-60871100D01*
X101341076Y-60871100D01*
X100833178Y-60972127D01*
X100354749Y-61170299D01*
X99924174Y-61458000D01*
X99558000Y-61824174D01*
X99270299Y-62254749D01*
X99072127Y-62733178D01*
X98971100Y-63241076D01*
X98971100Y-63758924D01*
X99072127Y-64266822D01*
X99270299Y-64745251D01*
X99558000Y-65175826D01*
X99924174Y-65542000D01*
X100354749Y-65829701D01*
X100833178Y-66027873D01*
X100894145Y-66040000D01*
X99629631Y-66040000D01*
X98227284Y-64637654D01*
X98203422Y-64608578D01*
X98087392Y-64513355D01*
X97955015Y-64442598D01*
X97811378Y-64399026D01*
X97740045Y-64392001D01*
X97858144Y-64215253D01*
X97971971Y-63940451D01*
X98030000Y-63648722D01*
X98030000Y-63351278D01*
X97971971Y-63059549D01*
X97858144Y-62784747D01*
X97816814Y-62722892D01*
X97885626Y-62725927D01*
X98228304Y-62673339D01*
X98554139Y-62554909D01*
X98850607Y-62375187D01*
X99042243Y-62199742D01*
X100378200Y-60710816D01*
X100467081Y-60621935D01*
X100541827Y-60510070D01*
X100621444Y-60401587D01*
X100637979Y-60366169D01*
X100659692Y-60333673D01*
X100711175Y-60209382D01*
X100768101Y-60087445D01*
X100777410Y-60049476D01*
X100792364Y-60013373D01*
X100818610Y-59881426D01*
X100850653Y-59750727D01*
X100852375Y-59711677D01*
X100860000Y-59673345D01*
X100860000Y-59538802D01*
X100865929Y-59404374D01*
X100860000Y-59365739D01*
X100860000Y-59326655D01*
X100833751Y-59194691D01*
X100813341Y-59061696D01*
X100799989Y-59024961D01*
X100792364Y-58986627D01*
X100740874Y-58862320D01*
X100694911Y-58735861D01*
X100674650Y-58702438D01*
X100659692Y-58666327D01*
X100584935Y-58554446D01*
X100515189Y-58439393D01*
X100488798Y-58410566D01*
X100467081Y-58378065D01*
X100371934Y-58282918D01*
X100281083Y-58183683D01*
X100249575Y-58160559D01*
X100221935Y-58132919D01*
X100110050Y-58058159D01*
X100001588Y-57978558D01*
X99966176Y-57962026D01*
X99933673Y-57940308D01*
X99809353Y-57888813D01*
X99687446Y-57831901D01*
X99649486Y-57822595D01*
X99613373Y-57807636D01*
X99481388Y-57781382D01*
X99350728Y-57749349D01*
X99311689Y-57747627D01*
X99273345Y-57740000D01*
X99138758Y-57740000D01*
X99004375Y-57734073D01*
X98965753Y-57740000D01*
X98926655Y-57740000D01*
X98794644Y-57766259D01*
X98661697Y-57786661D01*
X98624976Y-57800008D01*
X98586627Y-57807636D01*
X98462269Y-57859147D01*
X98335863Y-57905091D01*
X98302454Y-57925344D01*
X98266327Y-57940308D01*
X98154400Y-58015095D01*
X98039394Y-58084813D01*
X98010578Y-58111195D01*
X97978065Y-58132919D01*
X97882887Y-58228097D01*
X97847758Y-58260258D01*
X97821837Y-58289147D01*
X97732919Y-58378065D01*
X97706273Y-58417943D01*
X96422284Y-59848953D01*
X96268558Y-60058414D01*
X96121901Y-60372556D01*
X96039349Y-60709274D01*
X96024073Y-61055626D01*
X96076661Y-61398304D01*
X96195091Y-61724139D01*
X96357875Y-61992666D01*
X96079549Y-62048029D01*
X95804747Y-62161856D01*
X95557431Y-62327107D01*
X95347107Y-62537431D01*
X95181856Y-62784747D01*
X95068029Y-63059549D01*
X95010000Y-63351278D01*
X95010000Y-63648722D01*
X95068029Y-63940451D01*
X95181856Y-64215253D01*
X95297282Y-64388000D01*
X91640751Y-64388000D01*
X91618037Y-64345506D01*
X91538685Y-64248815D01*
X91441994Y-64169463D01*
X91331680Y-64110498D01*
X91211982Y-64074188D01*
X91087500Y-64061928D01*
X89887500Y-64061928D01*
X89763018Y-64074188D01*
X89643320Y-64110498D01*
X89533006Y-64169463D01*
X89436315Y-64248815D01*
X89356963Y-64345506D01*
X89297998Y-64455820D01*
X89294563Y-64467144D01*
X89208107Y-64513355D01*
X89165719Y-64548143D01*
X89092078Y-64608578D01*
X89068216Y-64637654D01*
X88586620Y-65119250D01*
X84629803Y-65119250D01*
X84879701Y-64745251D01*
X85077873Y-64266822D01*
X85178900Y-63758924D01*
X85178900Y-63241076D01*
X85077873Y-62733178D01*
X84879701Y-62254749D01*
X84592000Y-61824174D01*
X84225826Y-61458000D01*
X83795251Y-61170299D01*
X83316822Y-60972127D01*
X82808924Y-60871100D01*
X82291076Y-60871100D01*
X81783178Y-60972127D01*
X81304749Y-61170299D01*
X80874174Y-61458000D01*
X80508000Y-61824174D01*
X80220299Y-62254749D01*
X80022127Y-62733178D01*
X79921100Y-63241076D01*
X79921100Y-63758924D01*
X80022127Y-64266822D01*
X80220299Y-64745251D01*
X80470197Y-65119250D01*
X76237422Y-65119250D01*
X76199999Y-65115564D01*
X76162576Y-65119250D01*
X76162574Y-65119250D01*
X76050622Y-65130276D01*
X75906985Y-65173848D01*
X75774608Y-65244605D01*
X75658578Y-65339828D01*
X75634721Y-65368898D01*
X73274654Y-67728966D01*
X73245578Y-67752828D01*
X73207915Y-67798721D01*
X73150355Y-67868858D01*
X73134489Y-67898542D01*
X73079598Y-68001236D01*
X73036026Y-68144873D01*
X73030648Y-68199482D01*
X73021314Y-68294250D01*
X73025000Y-68331673D01*
X73025001Y-71561288D01*
X72983063Y-71603226D01*
X72869795Y-71772744D01*
X72791774Y-71961102D01*
X72783173Y-72004340D01*
X72748391Y-71961958D01*
X72722541Y-71930459D01*
X72691039Y-71904606D01*
X71639429Y-70852996D01*
X71607226Y-70691102D01*
X71529205Y-70502744D01*
X71415937Y-70333226D01*
X71271774Y-70189063D01*
X71102256Y-70075795D01*
X70913898Y-69997774D01*
X70713939Y-69958000D01*
X70510061Y-69958000D01*
X70310102Y-69997774D01*
X70121744Y-70075795D01*
X69952226Y-70189063D01*
X69808063Y-70333226D01*
X69694795Y-70502744D01*
X69616774Y-70691102D01*
X69577000Y-70891061D01*
X69577000Y-71094939D01*
X69616774Y-71294898D01*
X69694795Y-71483256D01*
X69808063Y-71652774D01*
X69952226Y-71796937D01*
X70121744Y-71910205D01*
X70310102Y-71988226D01*
X70471996Y-72020429D01*
X71310501Y-72858934D01*
X71310500Y-77129552D01*
X71310501Y-77129562D01*
X71310500Y-80684066D01*
X70143068Y-81851500D01*
X63492503Y-81851500D01*
X63355256Y-81759795D01*
X63166898Y-81681774D01*
X62966939Y-81642000D01*
X62763061Y-81642000D01*
X62563102Y-81681774D01*
X62374744Y-81759795D01*
X62237497Y-81851500D01*
X60716550Y-81851500D01*
X60676000Y-81847506D01*
X60635449Y-81851500D01*
X60635447Y-81851500D01*
X60514174Y-81863444D01*
X60422000Y-81891405D01*
X60422000Y-79177423D01*
X60425686Y-79140000D01*
X60420385Y-79086175D01*
X60410974Y-78990622D01*
X60367402Y-78846985D01*
X60296645Y-78714608D01*
X60201422Y-78598578D01*
X60172341Y-78574712D01*
X60158072Y-78560443D01*
X60158072Y-77975000D01*
X60154038Y-77934038D01*
X60195000Y-77938072D01*
X60286269Y-77938072D01*
X60308355Y-77979392D01*
X60366302Y-78050000D01*
X60403579Y-78095422D01*
X60432649Y-78119279D01*
X63470721Y-81157352D01*
X63494578Y-81186422D01*
X63610608Y-81281645D01*
X63742985Y-81352402D01*
X63886622Y-81395974D01*
X63998574Y-81407000D01*
X63998576Y-81407000D01*
X64035999Y-81410686D01*
X64073422Y-81407000D01*
X64746797Y-81407000D01*
X64833208Y-81512292D01*
X64966836Y-81621958D01*
X65119291Y-81703447D01*
X65284715Y-81753628D01*
X65456750Y-81770572D01*
X66369250Y-81770572D01*
X66541285Y-81753628D01*
X66706709Y-81703447D01*
X66859164Y-81621958D01*
X66992792Y-81512292D01*
X67102458Y-81378664D01*
X67183947Y-81226209D01*
X67234128Y-81060785D01*
X67251072Y-80888750D01*
X67251072Y-80401250D01*
X67234128Y-80229215D01*
X67183947Y-80063791D01*
X67102458Y-79911336D01*
X66992792Y-79777708D01*
X66986436Y-79772492D01*
X67064185Y-79708685D01*
X67143537Y-79611994D01*
X67202502Y-79501680D01*
X67238812Y-79381982D01*
X67251072Y-79257500D01*
X67248000Y-79055750D01*
X67089250Y-78897000D01*
X66040000Y-78897000D01*
X66040000Y-78917000D01*
X65786000Y-78917000D01*
X65786000Y-78897000D01*
X64736750Y-78897000D01*
X64578000Y-79055750D01*
X64574928Y-79257500D01*
X64587188Y-79381982D01*
X64623498Y-79501680D01*
X64682463Y-79611994D01*
X64761815Y-79708685D01*
X64839564Y-79772492D01*
X64833208Y-79777708D01*
X64746797Y-79883000D01*
X64351631Y-79883000D01*
X62751131Y-78282500D01*
X64574928Y-78282500D01*
X64578000Y-78484250D01*
X64736750Y-78643000D01*
X65786000Y-78643000D01*
X65786000Y-77806250D01*
X66040000Y-77806250D01*
X66040000Y-78643000D01*
X67089250Y-78643000D01*
X67248000Y-78484250D01*
X67251072Y-78282500D01*
X67238812Y-78158018D01*
X67202502Y-78038320D01*
X67143537Y-77928006D01*
X67064185Y-77831315D01*
X66967494Y-77751963D01*
X66857180Y-77692998D01*
X66737482Y-77656688D01*
X66613000Y-77644428D01*
X66198750Y-77647500D01*
X66040000Y-77806250D01*
X65786000Y-77806250D01*
X65627250Y-77647500D01*
X65213000Y-77644428D01*
X65088518Y-77656688D01*
X64968820Y-77692998D01*
X64858506Y-77751963D01*
X64761815Y-77831315D01*
X64682463Y-77928006D01*
X64623498Y-78038320D01*
X64587188Y-78158018D01*
X64574928Y-78282500D01*
X62751131Y-78282500D01*
X62179374Y-77710744D01*
X62225537Y-77654494D01*
X62284502Y-77544180D01*
X62320812Y-77424482D01*
X62333072Y-77300000D01*
X62333072Y-76750000D01*
X62320812Y-76625518D01*
X62320655Y-76625000D01*
X62320812Y-76624482D01*
X62333072Y-76500000D01*
X62333072Y-76273547D01*
X62400209Y-76328645D01*
X62443481Y-76351774D01*
X62532587Y-76399402D01*
X62676224Y-76442974D01*
X62788176Y-76454000D01*
X62788179Y-76454000D01*
X62825602Y-76457686D01*
X62863025Y-76454000D01*
X66989289Y-76454000D01*
X67031226Y-76495937D01*
X67200744Y-76609205D01*
X67389102Y-76687226D01*
X67589061Y-76727000D01*
X67792939Y-76727000D01*
X67992898Y-76687226D01*
X68181256Y-76609205D01*
X68350774Y-76495937D01*
X68494937Y-76351774D01*
X68608205Y-76182256D01*
X68686226Y-75993898D01*
X68726000Y-75793939D01*
X68726000Y-75590061D01*
X68686226Y-75390102D01*
X68608205Y-75201744D01*
X68494937Y-75032226D01*
X68487286Y-75024575D01*
X68559226Y-74850898D01*
X68599000Y-74650939D01*
X68599000Y-74447061D01*
X68559226Y-74247102D01*
X68481205Y-74058744D01*
X68469349Y-74041000D01*
X68481205Y-74023256D01*
X68559226Y-73834898D01*
X68599000Y-73634939D01*
X68599000Y-73431061D01*
X68559226Y-73231102D01*
X68481205Y-73042744D01*
X68384490Y-72898000D01*
X68481205Y-72753256D01*
X68559226Y-72564898D01*
X68599000Y-72364939D01*
X68599000Y-72161061D01*
X68559226Y-71961102D01*
X68546801Y-71931104D01*
X68597256Y-71910205D01*
X68766774Y-71796937D01*
X68910937Y-71652774D01*
X69024205Y-71483256D01*
X69102226Y-71294898D01*
X69142000Y-71094939D01*
X69142000Y-70891061D01*
X69102226Y-70691102D01*
X69024205Y-70502744D01*
X68910937Y-70333226D01*
X68766774Y-70189063D01*
X68597256Y-70075795D01*
X68408898Y-69997774D01*
X68208939Y-69958000D01*
X68005061Y-69958000D01*
X67805102Y-69997774D01*
X67616744Y-70075795D01*
X67479497Y-70167500D01*
X67051710Y-70167500D01*
X66992792Y-70095708D01*
X66986436Y-70090492D01*
X67064185Y-70026685D01*
X67143537Y-69929994D01*
X67202502Y-69819680D01*
X67238812Y-69699982D01*
X67251072Y-69575500D01*
X67248000Y-69373750D01*
X67089250Y-69215000D01*
X66040000Y-69215000D01*
X66040000Y-69235000D01*
X65786000Y-69235000D01*
X65786000Y-69215000D01*
X64736750Y-69215000D01*
X64639748Y-69312002D01*
X64616422Y-69283578D01*
X64500392Y-69188355D01*
X64368015Y-69117598D01*
X64224378Y-69074026D01*
X64112426Y-69063000D01*
X64112423Y-69063000D01*
X64075000Y-69059314D01*
X64048623Y-69061912D01*
X64032774Y-69046063D01*
X63863256Y-68932795D01*
X63674898Y-68854774D01*
X63474939Y-68815000D01*
X63271061Y-68815000D01*
X63071102Y-68854774D01*
X62882744Y-68932795D01*
X62713226Y-69046063D01*
X62696289Y-69063000D01*
X62102544Y-69063000D01*
X62049494Y-69019463D01*
X61939180Y-68960498D01*
X61819482Y-68924188D01*
X61695000Y-68911928D01*
X60195000Y-68911928D01*
X60070518Y-68924188D01*
X59950820Y-68960498D01*
X59840506Y-69019463D01*
X59743815Y-69098815D01*
X59664463Y-69195506D01*
X59652083Y-69218667D01*
X59560000Y-69310750D01*
X59569546Y-69424337D01*
X59569188Y-69425518D01*
X59556928Y-69550000D01*
X59556928Y-70100000D01*
X59569188Y-70224482D01*
X59569345Y-70225000D01*
X59569188Y-70225518D01*
X59556928Y-70350000D01*
X59556928Y-70900000D01*
X59569188Y-71024482D01*
X59569345Y-71025000D01*
X59569188Y-71025518D01*
X59556928Y-71150000D01*
X59556928Y-71700000D01*
X59569188Y-71824482D01*
X59569345Y-71825000D01*
X59569188Y-71825518D01*
X59556928Y-71950000D01*
X59556928Y-72500000D01*
X59569188Y-72624482D01*
X59569345Y-72625000D01*
X59569188Y-72625518D01*
X59556928Y-72750000D01*
X59556928Y-73300000D01*
X59569188Y-73424482D01*
X59569345Y-73425000D01*
X59569188Y-73425518D01*
X59556928Y-73550000D01*
X59556928Y-74100000D01*
X59569188Y-74224482D01*
X59569345Y-74225000D01*
X59569188Y-74225518D01*
X59556928Y-74350000D01*
X59556928Y-74900000D01*
X59569188Y-75024482D01*
X59569345Y-75025000D01*
X59569188Y-75025518D01*
X59556928Y-75150000D01*
X59556928Y-75700000D01*
X59569188Y-75824482D01*
X59569345Y-75825000D01*
X59569188Y-75825518D01*
X59556928Y-75950000D01*
X59556928Y-76500000D01*
X59569188Y-76624482D01*
X59569345Y-76625000D01*
X59569188Y-76625518D01*
X59556928Y-76750000D01*
X59556928Y-77300000D01*
X59560962Y-77340962D01*
X59520000Y-77336928D01*
X58970000Y-77336928D01*
X58845518Y-77349188D01*
X58844337Y-77349546D01*
X58730750Y-77340000D01*
X58638667Y-77432083D01*
X58615506Y-77444463D01*
X58518815Y-77523815D01*
X58445000Y-77613759D01*
X58371185Y-77523815D01*
X58274494Y-77444463D01*
X58251333Y-77432083D01*
X58159250Y-77340000D01*
X58045663Y-77349546D01*
X58044482Y-77349188D01*
X57920000Y-77336928D01*
X57370000Y-77336928D01*
X57245518Y-77349188D01*
X57245000Y-77349345D01*
X57244482Y-77349188D01*
X57120000Y-77336928D01*
X56570000Y-77336928D01*
X56445518Y-77349188D01*
X56445000Y-77349345D01*
X56444482Y-77349188D01*
X56320000Y-77336928D01*
X55770000Y-77336928D01*
X55645518Y-77349188D01*
X55645000Y-77349345D01*
X55644482Y-77349188D01*
X55520000Y-77336928D01*
X54970000Y-77336928D01*
X54845518Y-77349188D01*
X54845000Y-77349345D01*
X54844482Y-77349188D01*
X54720000Y-77336928D01*
X54170000Y-77336928D01*
X54045518Y-77349188D01*
X54045000Y-77349345D01*
X54044482Y-77349188D01*
X53920000Y-77336928D01*
X53370000Y-77336928D01*
X53245518Y-77349188D01*
X53245000Y-77349345D01*
X53244482Y-77349188D01*
X53120000Y-77336928D01*
X52570000Y-77336928D01*
X52445518Y-77349188D01*
X52444337Y-77349546D01*
X52330750Y-77340000D01*
X52238667Y-77432083D01*
X52215506Y-77444463D01*
X52118815Y-77523815D01*
X52045000Y-77613759D01*
X51971185Y-77523815D01*
X51874494Y-77444463D01*
X51851333Y-77432083D01*
X51759250Y-77340000D01*
X51645663Y-77349546D01*
X51644482Y-77349188D01*
X51520000Y-77336928D01*
X50970000Y-77336928D01*
X50929038Y-77340962D01*
X50933072Y-77300000D01*
X50933072Y-76750000D01*
X50920812Y-76625518D01*
X50920655Y-76625000D01*
X50920812Y-76624482D01*
X50933072Y-76500000D01*
X50933072Y-75950000D01*
X50920812Y-75825518D01*
X50920655Y-75825000D01*
X50920812Y-75824482D01*
X50933072Y-75700000D01*
X50933072Y-75150000D01*
X50920812Y-75025518D01*
X50920655Y-75025000D01*
X50920812Y-75024482D01*
X50933072Y-74900000D01*
X50933072Y-74350000D01*
X50920812Y-74225518D01*
X50920454Y-74224337D01*
X50930000Y-74110750D01*
X50837917Y-74018667D01*
X50825537Y-73995506D01*
X50746185Y-73898815D01*
X50656241Y-73825000D01*
X50746185Y-73751185D01*
X50825537Y-73654494D01*
X50837917Y-73631333D01*
X50930000Y-73539250D01*
X50920454Y-73425663D01*
X50920812Y-73424482D01*
X50933072Y-73300000D01*
X50933072Y-72750000D01*
X50920812Y-72625518D01*
X50920655Y-72625000D01*
X50920812Y-72624482D01*
X50933072Y-72500000D01*
X50933072Y-71950000D01*
X50920812Y-71825518D01*
X50920655Y-71825000D01*
X50920812Y-71824482D01*
X50933072Y-71700000D01*
X50933072Y-71150000D01*
X50920812Y-71025518D01*
X50920655Y-71025000D01*
X50920812Y-71024482D01*
X50933072Y-70900000D01*
X50933072Y-70350000D01*
X50920812Y-70225518D01*
X50920655Y-70225000D01*
X50920812Y-70224482D01*
X50933072Y-70100000D01*
X50933072Y-69550000D01*
X50920812Y-69425518D01*
X50920655Y-69425000D01*
X50920812Y-69424482D01*
X50933072Y-69300000D01*
X50933072Y-68750000D01*
X50929038Y-68709038D01*
X50970000Y-68713072D01*
X51520000Y-68713072D01*
X51644482Y-68700812D01*
X51645000Y-68700655D01*
X51645518Y-68700812D01*
X51770000Y-68713072D01*
X52320000Y-68713072D01*
X52444482Y-68700812D01*
X52445000Y-68700655D01*
X52445518Y-68700812D01*
X52570000Y-68713072D01*
X53120000Y-68713072D01*
X53244482Y-68700812D01*
X53245663Y-68700454D01*
X53359250Y-68710000D01*
X53451333Y-68617917D01*
X53474494Y-68605537D01*
X53571185Y-68526185D01*
X53645000Y-68436241D01*
X53718815Y-68526185D01*
X53815506Y-68605537D01*
X53838667Y-68617917D01*
X53930750Y-68710000D01*
X54044337Y-68700454D01*
X54045518Y-68700812D01*
X54170000Y-68713072D01*
X54720000Y-68713072D01*
X54844482Y-68700812D01*
X54845000Y-68700655D01*
X54845518Y-68700812D01*
X54970000Y-68713072D01*
X55520000Y-68713072D01*
X55644482Y-68700812D01*
X55645000Y-68700655D01*
X55645518Y-68700812D01*
X55770000Y-68713072D01*
X56320000Y-68713072D01*
X56444482Y-68700812D01*
X56445000Y-68700655D01*
X56445518Y-68700812D01*
X56570000Y-68713072D01*
X57120000Y-68713072D01*
X57244482Y-68700812D01*
X57245000Y-68700655D01*
X57245518Y-68700812D01*
X57370000Y-68713072D01*
X57920000Y-68713072D01*
X58044482Y-68700812D01*
X58045000Y-68700655D01*
X58045518Y-68700812D01*
X58170000Y-68713072D01*
X58720000Y-68713072D01*
X58844482Y-68700812D01*
X58845000Y-68700655D01*
X58845518Y-68700812D01*
X58970000Y-68713072D01*
X59520000Y-68713072D01*
X59562552Y-68708881D01*
X59560000Y-68739250D01*
X59718750Y-68898000D01*
X60818000Y-68898000D01*
X60818000Y-68273750D01*
X61072000Y-68273750D01*
X61072000Y-68898000D01*
X62171250Y-68898000D01*
X62330000Y-68739250D01*
X62320177Y-68622369D01*
X62313423Y-68600500D01*
X64574928Y-68600500D01*
X64578000Y-68802250D01*
X64736750Y-68961000D01*
X65786000Y-68961000D01*
X65786000Y-68124250D01*
X66040000Y-68124250D01*
X66040000Y-68961000D01*
X67089250Y-68961000D01*
X67248000Y-68802250D01*
X67251072Y-68600500D01*
X67238812Y-68476018D01*
X67202502Y-68356320D01*
X67143537Y-68246006D01*
X67064185Y-68149315D01*
X66967494Y-68069963D01*
X66857180Y-68010998D01*
X66737482Y-67974688D01*
X66613000Y-67962428D01*
X66198750Y-67965500D01*
X66040000Y-68124250D01*
X65786000Y-68124250D01*
X65627250Y-67965500D01*
X65213000Y-67962428D01*
X65088518Y-67974688D01*
X64968820Y-68010998D01*
X64858506Y-68069963D01*
X64761815Y-68149315D01*
X64682463Y-68246006D01*
X64623498Y-68356320D01*
X64587188Y-68476018D01*
X64574928Y-68600500D01*
X62313423Y-68600500D01*
X62283265Y-68502855D01*
X62223746Y-68392839D01*
X62143908Y-68296549D01*
X62046818Y-68217684D01*
X61936208Y-68159276D01*
X61816329Y-68123570D01*
X61691787Y-68111936D01*
X61230750Y-68115000D01*
X61072000Y-68273750D01*
X60818000Y-68273750D01*
X60659250Y-68115000D01*
X60198213Y-68111936D01*
X60154028Y-68116064D01*
X60158072Y-68075000D01*
X60158072Y-66575000D01*
X60145812Y-66450518D01*
X60109502Y-66330820D01*
X60050537Y-66220506D01*
X59971185Y-66123815D01*
X59874494Y-66044463D01*
X59764180Y-65985498D01*
X59644482Y-65949188D01*
X59520000Y-65936928D01*
X58970000Y-65936928D01*
X58845518Y-65949188D01*
X58845000Y-65949345D01*
X58844482Y-65949188D01*
X58720000Y-65936928D01*
X58170000Y-65936928D01*
X58045518Y-65949188D01*
X58045000Y-65949345D01*
X58044482Y-65949188D01*
X57920000Y-65936928D01*
X57370000Y-65936928D01*
X57245518Y-65949188D01*
X57245000Y-65949345D01*
X57244482Y-65949188D01*
X57120000Y-65936928D01*
X56570000Y-65936928D01*
X56445518Y-65949188D01*
X56445000Y-65949345D01*
X56444482Y-65949188D01*
X56320000Y-65936928D01*
X56007000Y-65936928D01*
X56007000Y-64124630D01*
X56560351Y-63571280D01*
X56589422Y-63547422D01*
X56684645Y-63431392D01*
X56706731Y-63390072D01*
X56748000Y-63390072D01*
X56872482Y-63377812D01*
X56992180Y-63341502D01*
X57102494Y-63282537D01*
X57199185Y-63203185D01*
X57278537Y-63106494D01*
X57337502Y-62996180D01*
X57338770Y-62992000D01*
X57761797Y-62992000D01*
X57848208Y-63097292D01*
X57981836Y-63206958D01*
X58134291Y-63288447D01*
X58299715Y-63338628D01*
X58471750Y-63355572D01*
X59384250Y-63355572D01*
X59427847Y-63351278D01*
X75960000Y-63351278D01*
X75960000Y-63648722D01*
X76018029Y-63940451D01*
X76131856Y-64215253D01*
X76297107Y-64462569D01*
X76507431Y-64672893D01*
X76754747Y-64838144D01*
X77029549Y-64951971D01*
X77321278Y-65010000D01*
X77618722Y-65010000D01*
X77910451Y-64951971D01*
X78185253Y-64838144D01*
X78432569Y-64672893D01*
X78642893Y-64462569D01*
X78808144Y-64215253D01*
X78921971Y-63940451D01*
X78980000Y-63648722D01*
X78980000Y-63351278D01*
X78921971Y-63059549D01*
X78808144Y-62784747D01*
X78766814Y-62722892D01*
X78835626Y-62725927D01*
X79178304Y-62673339D01*
X79504139Y-62554909D01*
X79800607Y-62375187D01*
X79992243Y-62199742D01*
X81328200Y-60710816D01*
X81417081Y-60621935D01*
X81491827Y-60510070D01*
X81571444Y-60401587D01*
X81587979Y-60366169D01*
X81609692Y-60333673D01*
X81661175Y-60209382D01*
X81718101Y-60087445D01*
X81727410Y-60049476D01*
X81742364Y-60013373D01*
X81768610Y-59881426D01*
X81800653Y-59750727D01*
X81802375Y-59711677D01*
X81810000Y-59673345D01*
X81810000Y-59538802D01*
X81815929Y-59404374D01*
X81810000Y-59365739D01*
X81810000Y-59326655D01*
X81783751Y-59194691D01*
X81763341Y-59061696D01*
X81749989Y-59024961D01*
X81742364Y-58986627D01*
X81733471Y-58965157D01*
X83288223Y-58965157D01*
X83295840Y-59224862D01*
X83373413Y-59562761D01*
X83515419Y-59879034D01*
X83716396Y-60161526D01*
X83968624Y-60399381D01*
X84262408Y-60583459D01*
X84586459Y-60706684D01*
X84928323Y-60764324D01*
X85274862Y-60754160D01*
X85612761Y-60676587D01*
X85637741Y-60665371D01*
X87069942Y-62097572D01*
X86914747Y-62161856D01*
X86667431Y-62327107D01*
X86457107Y-62537431D01*
X86291856Y-62784747D01*
X86178029Y-63059549D01*
X86120000Y-63351278D01*
X86120000Y-63648722D01*
X86178029Y-63940451D01*
X86291856Y-64215253D01*
X86457107Y-64462569D01*
X86667431Y-64672893D01*
X86914747Y-64838144D01*
X87189549Y-64951971D01*
X87481278Y-65010000D01*
X87778722Y-65010000D01*
X88070451Y-64951971D01*
X88345253Y-64838144D01*
X88592569Y-64672893D01*
X88802893Y-64462569D01*
X88968144Y-64215253D01*
X89081971Y-63940451D01*
X89140000Y-63648722D01*
X89140000Y-63351278D01*
X89081971Y-63059549D01*
X88968144Y-62784747D01*
X88852718Y-62612000D01*
X89334249Y-62612000D01*
X89356963Y-62654494D01*
X89436315Y-62751185D01*
X89533006Y-62830537D01*
X89643320Y-62889502D01*
X89763018Y-62925812D01*
X89887500Y-62938072D01*
X91087500Y-62938072D01*
X91211982Y-62925812D01*
X91331680Y-62889502D01*
X91441994Y-62830537D01*
X91538685Y-62751185D01*
X91618037Y-62654494D01*
X91677002Y-62544180D01*
X91713312Y-62424482D01*
X91725572Y-62300000D01*
X91725572Y-61400000D01*
X91713312Y-61275518D01*
X91677002Y-61155820D01*
X91618037Y-61045506D01*
X91538685Y-60948815D01*
X91441994Y-60869463D01*
X91331680Y-60810498D01*
X91211982Y-60774188D01*
X91087500Y-60761928D01*
X89887500Y-60761928D01*
X89763018Y-60774188D01*
X89643320Y-60810498D01*
X89533006Y-60869463D01*
X89436315Y-60948815D01*
X89356963Y-61045506D01*
X89334249Y-61088000D01*
X88215630Y-61088000D01*
X86711085Y-59583455D01*
X86756684Y-59463541D01*
X86799881Y-59207339D01*
X86838099Y-58653175D01*
X86850000Y-58593345D01*
X86850000Y-58480611D01*
X86851777Y-58454844D01*
X86850000Y-58394256D01*
X86850000Y-58246655D01*
X86844922Y-58221128D01*
X86844160Y-58195137D01*
X86811159Y-58051387D01*
X86782364Y-57906627D01*
X86772407Y-57882588D01*
X86766587Y-57857238D01*
X86706177Y-57722694D01*
X86649692Y-57586327D01*
X86635230Y-57564683D01*
X86624581Y-57540966D01*
X86539096Y-57420809D01*
X86457081Y-57298065D01*
X86438678Y-57279662D01*
X86423604Y-57258474D01*
X86316311Y-57157295D01*
X86211935Y-57052919D01*
X86190294Y-57038459D01*
X86171376Y-57020619D01*
X86046407Y-56942316D01*
X85923673Y-56860308D01*
X85899628Y-56850348D01*
X85877592Y-56836541D01*
X85739740Y-56784121D01*
X85603373Y-56727636D01*
X85577846Y-56722558D01*
X85553541Y-56713316D01*
X85408108Y-56688795D01*
X85263345Y-56660000D01*
X85237323Y-56660000D01*
X85211677Y-56655676D01*
X85064237Y-56660000D01*
X84916655Y-56660000D01*
X84891133Y-56665077D01*
X84865138Y-56665839D01*
X84721375Y-56698844D01*
X84576627Y-56727636D01*
X84552587Y-56737594D01*
X84527239Y-56743413D01*
X84392689Y-56803825D01*
X84256327Y-56860308D01*
X84234687Y-56874767D01*
X84210966Y-56885418D01*
X84090796Y-56970913D01*
X83968065Y-57052919D01*
X83949662Y-57071322D01*
X83928474Y-57086396D01*
X83827288Y-57193696D01*
X83722919Y-57298065D01*
X83708461Y-57319703D01*
X83690619Y-57338623D01*
X83612310Y-57463602D01*
X83530308Y-57586327D01*
X83520348Y-57610372D01*
X83506541Y-57632408D01*
X83454119Y-57770264D01*
X83397636Y-57906627D01*
X83392559Y-57932152D01*
X83383316Y-57956458D01*
X83358794Y-58101898D01*
X83330000Y-58246655D01*
X83330000Y-58359386D01*
X83288223Y-58965157D01*
X81733471Y-58965157D01*
X81690874Y-58862320D01*
X81644911Y-58735861D01*
X81624650Y-58702438D01*
X81609692Y-58666327D01*
X81534935Y-58554446D01*
X81465189Y-58439393D01*
X81438798Y-58410566D01*
X81417081Y-58378065D01*
X81321934Y-58282918D01*
X81231083Y-58183683D01*
X81199575Y-58160559D01*
X81171935Y-58132919D01*
X81060050Y-58058159D01*
X80951588Y-57978558D01*
X80916176Y-57962026D01*
X80883673Y-57940308D01*
X80759353Y-57888813D01*
X80637446Y-57831901D01*
X80599486Y-57822595D01*
X80563373Y-57807636D01*
X80431388Y-57781382D01*
X80300728Y-57749349D01*
X80261689Y-57747627D01*
X80223345Y-57740000D01*
X80088758Y-57740000D01*
X79954375Y-57734073D01*
X79915753Y-57740000D01*
X79876655Y-57740000D01*
X79744644Y-57766259D01*
X79611697Y-57786661D01*
X79574976Y-57800008D01*
X79536627Y-57807636D01*
X79412269Y-57859147D01*
X79285863Y-57905091D01*
X79252454Y-57925344D01*
X79216327Y-57940308D01*
X79104400Y-58015095D01*
X78989394Y-58084813D01*
X78960578Y-58111195D01*
X78928065Y-58132919D01*
X78832887Y-58228097D01*
X78797758Y-58260258D01*
X78771837Y-58289147D01*
X78682919Y-58378065D01*
X78656273Y-58417943D01*
X77372284Y-59848953D01*
X77218558Y-60058414D01*
X77071901Y-60372556D01*
X76989349Y-60709274D01*
X76974073Y-61055626D01*
X77026661Y-61398304D01*
X77145091Y-61724139D01*
X77307875Y-61992666D01*
X77029549Y-62048029D01*
X76754747Y-62161856D01*
X76507431Y-62327107D01*
X76297107Y-62537431D01*
X76131856Y-62784747D01*
X76018029Y-63059549D01*
X75960000Y-63351278D01*
X59427847Y-63351278D01*
X59556285Y-63338628D01*
X59721709Y-63288447D01*
X59874164Y-63206958D01*
X60007792Y-63097292D01*
X60117458Y-62963664D01*
X60198947Y-62811209D01*
X60249128Y-62645785D01*
X60266072Y-62473750D01*
X60266072Y-61986250D01*
X60249128Y-61814215D01*
X60198947Y-61648791D01*
X60117458Y-61496336D01*
X60007792Y-61362708D01*
X60001436Y-61357492D01*
X60079185Y-61293685D01*
X60158537Y-61196994D01*
X60217502Y-61086680D01*
X60253812Y-60966982D01*
X60266072Y-60842500D01*
X60263000Y-60640750D01*
X60104250Y-60482000D01*
X59055000Y-60482000D01*
X59055000Y-60502000D01*
X58801000Y-60502000D01*
X58801000Y-60482000D01*
X57751750Y-60482000D01*
X57593000Y-60640750D01*
X57589928Y-60842500D01*
X57602188Y-60966982D01*
X57638498Y-61086680D01*
X57697463Y-61196994D01*
X57776815Y-61293685D01*
X57854564Y-61357492D01*
X57848208Y-61362708D01*
X57761797Y-61468000D01*
X57377799Y-61468000D01*
X57373812Y-61427518D01*
X57337502Y-61307820D01*
X57334391Y-61302000D01*
X57337502Y-61296180D01*
X57373812Y-61176482D01*
X57386072Y-61052000D01*
X57383000Y-60737750D01*
X57224250Y-60579000D01*
X56175000Y-60579000D01*
X56175000Y-60599000D01*
X55921000Y-60599000D01*
X55921000Y-60579000D01*
X55901000Y-60579000D01*
X55901000Y-60325000D01*
X55921000Y-60325000D01*
X55921000Y-59375750D01*
X56175000Y-59375750D01*
X56175000Y-60325000D01*
X57224250Y-60325000D01*
X57383000Y-60166250D01*
X57385920Y-59867500D01*
X57589928Y-59867500D01*
X57593000Y-60069250D01*
X57751750Y-60228000D01*
X58801000Y-60228000D01*
X58801000Y-59391250D01*
X59055000Y-59391250D01*
X59055000Y-60228000D01*
X60104250Y-60228000D01*
X60263000Y-60069250D01*
X60266072Y-59867500D01*
X60253812Y-59743018D01*
X60217502Y-59623320D01*
X60158537Y-59513006D01*
X60079185Y-59416315D01*
X59982494Y-59336963D01*
X59872180Y-59277998D01*
X59752482Y-59241688D01*
X59628000Y-59229428D01*
X59213750Y-59232500D01*
X59055000Y-59391250D01*
X58801000Y-59391250D01*
X58642250Y-59232500D01*
X58228000Y-59229428D01*
X58103518Y-59241688D01*
X57983820Y-59277998D01*
X57873506Y-59336963D01*
X57776815Y-59416315D01*
X57697463Y-59513006D01*
X57638498Y-59623320D01*
X57602188Y-59743018D01*
X57589928Y-59867500D01*
X57385920Y-59867500D01*
X57386072Y-59852000D01*
X57373812Y-59727518D01*
X57337502Y-59607820D01*
X57278537Y-59497506D01*
X57199185Y-59400815D01*
X57102494Y-59321463D01*
X56992180Y-59262498D01*
X56872482Y-59226188D01*
X56748000Y-59213928D01*
X56333750Y-59217000D01*
X56175000Y-59375750D01*
X55921000Y-59375750D01*
X55762250Y-59217000D01*
X55348000Y-59213928D01*
X55223518Y-59226188D01*
X55103820Y-59262498D01*
X54993506Y-59321463D01*
X54948000Y-59358809D01*
X54902494Y-59321463D01*
X54792180Y-59262498D01*
X54672482Y-59226188D01*
X54548000Y-59213928D01*
X53148000Y-59213928D01*
X53023518Y-59226188D01*
X52903820Y-59262498D01*
X52793506Y-59321463D01*
X52696815Y-59400815D01*
X52617463Y-59497506D01*
X52582455Y-59563000D01*
X52220203Y-59563000D01*
X52133792Y-59457708D01*
X52000164Y-59348042D01*
X51847709Y-59266553D01*
X51682285Y-59216372D01*
X51510250Y-59199428D01*
X50597750Y-59199428D01*
X50425715Y-59216372D01*
X50260291Y-59266553D01*
X50107836Y-59348042D01*
X49974208Y-59457708D01*
X49864542Y-59591336D01*
X49783053Y-59743791D01*
X49732872Y-59909215D01*
X49715928Y-60081250D01*
X49715928Y-60568750D01*
X49732872Y-60740785D01*
X49783053Y-60906209D01*
X49864542Y-61058664D01*
X49974208Y-61192292D01*
X49980564Y-61197508D01*
X49902815Y-61261315D01*
X49823463Y-61358006D01*
X49764498Y-61468320D01*
X49728188Y-61588018D01*
X49715928Y-61712500D01*
X49719000Y-61914250D01*
X49877750Y-62073000D01*
X50927000Y-62073000D01*
X50927000Y-62053000D01*
X51181000Y-62053000D01*
X51181000Y-62073000D01*
X51201000Y-62073000D01*
X51201000Y-62327000D01*
X51181000Y-62327000D01*
X51181000Y-63163750D01*
X51339750Y-63322500D01*
X51754000Y-63325572D01*
X51836454Y-63317451D01*
X51909578Y-63406554D01*
X51938654Y-63430416D01*
X53683001Y-65174763D01*
X53683000Y-66167455D01*
X53645000Y-66213759D01*
X53571185Y-66123815D01*
X53474494Y-66044463D01*
X53451333Y-66032083D01*
X53359250Y-65940000D01*
X53245663Y-65949546D01*
X53244482Y-65949188D01*
X53120000Y-65936928D01*
X52800495Y-65936928D01*
X52795974Y-65891022D01*
X52752402Y-65747385D01*
X52681645Y-65615008D01*
X52586422Y-65498978D01*
X52557353Y-65475122D01*
X51898683Y-64816453D01*
X51874822Y-64787378D01*
X51758792Y-64692155D01*
X51626415Y-64621398D01*
X51482778Y-64577826D01*
X51370826Y-64566800D01*
X51370823Y-64566800D01*
X51333400Y-64563114D01*
X51295977Y-64566800D01*
X49454622Y-64566800D01*
X49417199Y-64563114D01*
X49379776Y-64566800D01*
X49379774Y-64566800D01*
X49267822Y-64577826D01*
X49124185Y-64621398D01*
X48991808Y-64692155D01*
X48875778Y-64787378D01*
X48851921Y-64816448D01*
X48205092Y-65463278D01*
X48126285Y-65439372D01*
X47954250Y-65422428D01*
X47450059Y-65422428D01*
X46590084Y-64562454D01*
X46566222Y-64533378D01*
X46450192Y-64438155D01*
X46317815Y-64367398D01*
X46174178Y-64323826D01*
X46062226Y-64312800D01*
X46062223Y-64312800D01*
X46024800Y-64309114D01*
X45987377Y-64312800D01*
X45100911Y-64312800D01*
X45058974Y-64270863D01*
X44889456Y-64157595D01*
X44701098Y-64079574D01*
X44501139Y-64039800D01*
X44297261Y-64039800D01*
X44097302Y-64079574D01*
X43908944Y-64157595D01*
X43739426Y-64270863D01*
X43595263Y-64415026D01*
X43481995Y-64584544D01*
X43403974Y-64772902D01*
X43364200Y-64972861D01*
X43364200Y-65176739D01*
X43403974Y-65376698D01*
X43481995Y-65565056D01*
X43537291Y-65647813D01*
X43497208Y-65680708D01*
X43387542Y-65814336D01*
X43306053Y-65966791D01*
X43255872Y-66132215D01*
X43238928Y-66304250D01*
X43238928Y-66791750D01*
X43255872Y-66963785D01*
X43306053Y-67129209D01*
X43387542Y-67281664D01*
X43497208Y-67415292D01*
X43503564Y-67420508D01*
X43425815Y-67484315D01*
X43346463Y-67581006D01*
X43287498Y-67691320D01*
X43251188Y-67811018D01*
X43238928Y-67935500D01*
X43242000Y-68137250D01*
X43400750Y-68296000D01*
X44450000Y-68296000D01*
X44450000Y-68276000D01*
X44704000Y-68276000D01*
X44704000Y-68296000D01*
X44724000Y-68296000D01*
X44724000Y-68550000D01*
X44704000Y-68550000D01*
X44704000Y-70104000D01*
X44724000Y-70104000D01*
X44724000Y-70358000D01*
X44704000Y-70358000D01*
X44704000Y-70378000D01*
X44450000Y-70378000D01*
X44450000Y-70358000D01*
X43400750Y-70358000D01*
X43242000Y-70516750D01*
X43238928Y-70718500D01*
X43251188Y-70842982D01*
X43287498Y-70962680D01*
X43346463Y-71072994D01*
X43425815Y-71169685D01*
X43503564Y-71233492D01*
X43497208Y-71238708D01*
X43387542Y-71372336D01*
X43336137Y-71468507D01*
X40778130Y-68910500D01*
X43238928Y-68910500D01*
X43251188Y-69034982D01*
X43287498Y-69154680D01*
X43346463Y-69264994D01*
X43397350Y-69327000D01*
X43346463Y-69389006D01*
X43287498Y-69499320D01*
X43251188Y-69619018D01*
X43238928Y-69743500D01*
X43242000Y-69945250D01*
X43400750Y-70104000D01*
X44450000Y-70104000D01*
X44450000Y-68550000D01*
X43400750Y-68550000D01*
X43242000Y-68708750D01*
X43238928Y-68910500D01*
X40778130Y-68910500D01*
X40443284Y-68575654D01*
X40419422Y-68546578D01*
X40303392Y-68451355D01*
X40171015Y-68380598D01*
X40027378Y-68337026D01*
X39915426Y-68326000D01*
X39915423Y-68326000D01*
X39899593Y-68324441D01*
X39890447Y-68294291D01*
X39808958Y-68141836D01*
X39699292Y-68008208D01*
X39565664Y-67898542D01*
X39413209Y-67817053D01*
X39247785Y-67766872D01*
X39075750Y-67749928D01*
X38588250Y-67749928D01*
X38416215Y-67766872D01*
X38250791Y-67817053D01*
X38098336Y-67898542D01*
X37964708Y-68008208D01*
X37894500Y-68093756D01*
X37824292Y-68008208D01*
X37690664Y-67898542D01*
X37538209Y-67817053D01*
X37372785Y-67766872D01*
X37200750Y-67749928D01*
X36957000Y-67749928D01*
X36957000Y-62687500D01*
X49715928Y-62687500D01*
X49728188Y-62811982D01*
X49764498Y-62931680D01*
X49823463Y-63041994D01*
X49902815Y-63138685D01*
X49999506Y-63218037D01*
X50109820Y-63277002D01*
X50229518Y-63313312D01*
X50354000Y-63325572D01*
X50768250Y-63322500D01*
X50927000Y-63163750D01*
X50927000Y-62327000D01*
X49877750Y-62327000D01*
X49719000Y-62485750D01*
X49715928Y-62687500D01*
X36957000Y-62687500D01*
X36957000Y-62016072D01*
X37245000Y-62016072D01*
X37369482Y-62003812D01*
X37394266Y-61996294D01*
X37413639Y-62002404D01*
X37513250Y-62013000D01*
X37672000Y-61854250D01*
X37672000Y-61849033D01*
X37696185Y-61829185D01*
X37775537Y-61732494D01*
X37834502Y-61622180D01*
X37870812Y-61502482D01*
X37883072Y-61378000D01*
X37883072Y-59128000D01*
X37870812Y-59003518D01*
X37834502Y-58883820D01*
X37775537Y-58773506D01*
X37696185Y-58676815D01*
X37672000Y-58656967D01*
X37672000Y-58651750D01*
X37918000Y-58651750D01*
X37918000Y-60126000D01*
X37942000Y-60126000D01*
X37942000Y-60380000D01*
X37918000Y-60380000D01*
X37918000Y-61854250D01*
X38076750Y-62013000D01*
X38176361Y-62002404D01*
X38295652Y-61964779D01*
X38405311Y-61904604D01*
X38501123Y-61824193D01*
X38579406Y-61726634D01*
X38635123Y-61619578D01*
X38789866Y-61808134D01*
X39015986Y-61993706D01*
X39273966Y-62131599D01*
X39553889Y-62216513D01*
X39845000Y-62245185D01*
X40136110Y-62216513D01*
X40416033Y-62131599D01*
X40674013Y-61993706D01*
X40900134Y-61808134D01*
X41085706Y-61582014D01*
X41223599Y-61324034D01*
X41308513Y-61044111D01*
X41330000Y-60825950D01*
X41330000Y-59680050D01*
X41308513Y-59461889D01*
X41223599Y-59181966D01*
X41085706Y-58923986D01*
X40900134Y-58697866D01*
X40674014Y-58512294D01*
X40416034Y-58374401D01*
X40136111Y-58289487D01*
X39845000Y-58260815D01*
X39553890Y-58289487D01*
X39273967Y-58374401D01*
X39015987Y-58512294D01*
X38789867Y-58697866D01*
X38635123Y-58886421D01*
X38579406Y-58779366D01*
X38501123Y-58681807D01*
X38405311Y-58601396D01*
X38295652Y-58541221D01*
X38176361Y-58503596D01*
X38076750Y-58493000D01*
X37918000Y-58651750D01*
X37672000Y-58651750D01*
X37513250Y-58493000D01*
X37413639Y-58503596D01*
X37394266Y-58509706D01*
X37369482Y-58502188D01*
X37245000Y-58489928D01*
X36745000Y-58489928D01*
X36620518Y-58502188D01*
X36595000Y-58509929D01*
X36569482Y-58502188D01*
X36445000Y-58489928D01*
X35945000Y-58489928D01*
X35820518Y-58502188D01*
X35795000Y-58509929D01*
X35769482Y-58502188D01*
X35645000Y-58489928D01*
X35145000Y-58489928D01*
X35020518Y-58502188D01*
X34995000Y-58509929D01*
X34969482Y-58502188D01*
X34845000Y-58489928D01*
X34345000Y-58489928D01*
X34220518Y-58502188D01*
X34100820Y-58538498D01*
X33990506Y-58597463D01*
X33893815Y-58676815D01*
X33814463Y-58773506D01*
X33755498Y-58883820D01*
X33754754Y-58886271D01*
X33600134Y-58697866D01*
X33374014Y-58512294D01*
X33116034Y-58374401D01*
X32836111Y-58289487D01*
X32545000Y-58260815D01*
X32253890Y-58289487D01*
X31973967Y-58374401D01*
X31715987Y-58512294D01*
X31489867Y-58697866D01*
X31304294Y-58923986D01*
X31166401Y-59181966D01*
X31081487Y-59461889D01*
X31060000Y-59680050D01*
X31060000Y-60825949D01*
X31081487Y-61044110D01*
X31166401Y-61324033D01*
X31304294Y-61582013D01*
X31489866Y-61808134D01*
X31715986Y-61993706D01*
X31973966Y-62131599D01*
X32253889Y-62216513D01*
X32545000Y-62245185D01*
X32836110Y-62216513D01*
X33116033Y-62131599D01*
X33374013Y-61993706D01*
X33600134Y-61808134D01*
X33754754Y-61619729D01*
X33755498Y-61622180D01*
X33769500Y-61648376D01*
X33769501Y-66599566D01*
X33376568Y-66992500D01*
X32171539Y-66992500D01*
X32130999Y-66988507D01*
X32090459Y-66992500D01*
X32090447Y-66992500D01*
X31969174Y-67004444D01*
X31813566Y-67051647D01*
X31716881Y-67103327D01*
X31670156Y-67128302D01*
X31638311Y-67154437D01*
X31544459Y-67231459D01*
X31518602Y-67262966D01*
X31067966Y-67713602D01*
X31036459Y-67739459D01*
X30968246Y-67822578D01*
X30933301Y-67865158D01*
X30872009Y-67979827D01*
X30856647Y-68008567D01*
X30809444Y-68164175D01*
X30797500Y-68285447D01*
X30793506Y-68326000D01*
X30797500Y-68366551D01*
X30797501Y-71755440D01*
X30793506Y-71796000D01*
X30809445Y-71957826D01*
X30856647Y-72113433D01*
X30933301Y-72256842D01*
X30947404Y-72274026D01*
X31036460Y-72382541D01*
X31067961Y-72408393D01*
X34021269Y-75361702D01*
X33907538Y-75455038D01*
X33797095Y-75589614D01*
X33715028Y-75743150D01*
X33664492Y-75909746D01*
X33647428Y-76083000D01*
X33647428Y-77333000D01*
X33664492Y-77506254D01*
X33715028Y-77672850D01*
X33797095Y-77826386D01*
X33907538Y-77960962D01*
X34042114Y-78071405D01*
X34195650Y-78153472D01*
X34362246Y-78204008D01*
X34535500Y-78221072D01*
X35460500Y-78221072D01*
X35633754Y-78204008D01*
X35800350Y-78153472D01*
X35953886Y-78071405D01*
X36088462Y-77960962D01*
X36198905Y-77826386D01*
X36280972Y-77672850D01*
X36331508Y-77506254D01*
X36348572Y-77333000D01*
X36348572Y-76083000D01*
X36331508Y-75909746D01*
X36280972Y-75743150D01*
X36198905Y-75589614D01*
X36088462Y-75455038D01*
X35953886Y-75344595D01*
X35823500Y-75274902D01*
X35823500Y-75211550D01*
X35827494Y-75171000D01*
X35823397Y-75129402D01*
X35811556Y-75009174D01*
X35764353Y-74853566D01*
X35702620Y-74738072D01*
X35687699Y-74710157D01*
X35610392Y-74615958D01*
X35610389Y-74615955D01*
X35584541Y-74584459D01*
X35553046Y-74558612D01*
X32448500Y-71454068D01*
X32448500Y-70415853D01*
X32552250Y-70426072D01*
X33039750Y-70426072D01*
X33054945Y-70424575D01*
X33373720Y-70743351D01*
X33397578Y-70772422D01*
X33513608Y-70867645D01*
X33645985Y-70938402D01*
X33789622Y-70981974D01*
X33901574Y-70993000D01*
X33901576Y-70993000D01*
X33938999Y-70996686D01*
X33976422Y-70993000D01*
X39435370Y-70993000D01*
X43719476Y-75277107D01*
X43705744Y-75282795D01*
X43536226Y-75396063D01*
X43392063Y-75540226D01*
X43278795Y-75709744D01*
X43200774Y-75898102D01*
X43161000Y-76098061D01*
X43161000Y-76153470D01*
X43160496Y-76152966D01*
X43134639Y-76121459D01*
X43008940Y-76018301D01*
X42865532Y-75941647D01*
X42709924Y-75894444D01*
X42588651Y-75882500D01*
X42588648Y-75882500D01*
X42548098Y-75878506D01*
X42507548Y-75882500D01*
X39298243Y-75882500D01*
X39255972Y-75743150D01*
X39173905Y-75589614D01*
X39063462Y-75455038D01*
X38928886Y-75344595D01*
X38775350Y-75262528D01*
X38608754Y-75211992D01*
X38435500Y-75194928D01*
X37510500Y-75194928D01*
X37337246Y-75211992D01*
X37170650Y-75262528D01*
X37017114Y-75344595D01*
X36882538Y-75455038D01*
X36772095Y-75589614D01*
X36690028Y-75743150D01*
X36639492Y-75909746D01*
X36622428Y-76083000D01*
X36622428Y-77333000D01*
X36639492Y-77506254D01*
X36690028Y-77672850D01*
X36772095Y-77826386D01*
X36882538Y-77960962D01*
X37017114Y-78071405D01*
X37170650Y-78153472D01*
X37337246Y-78204008D01*
X37510500Y-78221072D01*
X38435500Y-78221072D01*
X38608754Y-78204008D01*
X38775350Y-78153472D01*
X38928886Y-78071405D01*
X39063462Y-77960962D01*
X39173905Y-77826386D01*
X39255972Y-77672850D01*
X39298243Y-77533500D01*
X42206166Y-77533500D01*
X47122592Y-82449928D01*
X47031000Y-82449928D01*
X46906518Y-82462188D01*
X46786820Y-82498498D01*
X46676506Y-82557463D01*
X46579815Y-82636815D01*
X46500463Y-82733506D01*
X46441498Y-82843820D01*
X46405188Y-82963518D01*
X46392928Y-83088000D01*
X46392928Y-84188000D01*
X46405188Y-84312482D01*
X46441498Y-84432180D01*
X46500463Y-84542494D01*
X46579815Y-84639185D01*
X46676506Y-84718537D01*
X46786820Y-84777502D01*
X46906518Y-84813812D01*
X47031000Y-84826072D01*
X48831000Y-84826072D01*
X48955482Y-84813812D01*
X49075180Y-84777502D01*
X49185494Y-84718537D01*
X49282185Y-84639185D01*
X49361537Y-84542494D01*
X49420502Y-84432180D01*
X49456812Y-84312482D01*
X49469072Y-84188000D01*
X49469072Y-83148505D01*
X50055428Y-83734861D01*
X50055428Y-84149250D01*
X50072372Y-84321285D01*
X50122553Y-84486709D01*
X50204042Y-84639164D01*
X50313708Y-84772792D01*
X50447336Y-84882458D01*
X50599791Y-84963947D01*
X50765215Y-85014128D01*
X50937250Y-85031072D01*
X51424750Y-85031072D01*
X51596785Y-85014128D01*
X51762209Y-84963947D01*
X51914664Y-84882458D01*
X52048292Y-84772792D01*
X52053508Y-84766436D01*
X52117315Y-84844185D01*
X52214006Y-84923537D01*
X52324320Y-84982502D01*
X52444018Y-85018812D01*
X52568500Y-85031072D01*
X52770250Y-85028000D01*
X52929000Y-84869250D01*
X52929000Y-83820000D01*
X53183000Y-83820000D01*
X53183000Y-84869250D01*
X53341750Y-85028000D01*
X53543500Y-85031072D01*
X53667982Y-85018812D01*
X53787680Y-84982502D01*
X53897994Y-84923537D01*
X53994685Y-84844185D01*
X54074037Y-84747494D01*
X54133002Y-84637180D01*
X54169312Y-84517482D01*
X54181572Y-84393000D01*
X56659428Y-84393000D01*
X56671688Y-84517482D01*
X56707998Y-84637180D01*
X56766963Y-84747494D01*
X56846315Y-84844185D01*
X56943006Y-84923537D01*
X57053320Y-84982502D01*
X57173018Y-85018812D01*
X57297500Y-85031072D01*
X57499250Y-85028000D01*
X57658000Y-84869250D01*
X57658000Y-83820000D01*
X56821250Y-83820000D01*
X56662500Y-83978750D01*
X56659428Y-84393000D01*
X54181572Y-84393000D01*
X54178500Y-83978750D01*
X54019750Y-83820000D01*
X53183000Y-83820000D01*
X52929000Y-83820000D01*
X52909000Y-83820000D01*
X52909000Y-83566000D01*
X52929000Y-83566000D01*
X52929000Y-83546000D01*
X53183000Y-83546000D01*
X53183000Y-83566000D01*
X54019750Y-83566000D01*
X54178500Y-83407250D01*
X54181572Y-82993000D01*
X56659428Y-82993000D01*
X56662500Y-83407250D01*
X56821250Y-83566000D01*
X57658000Y-83566000D01*
X57658000Y-82516750D01*
X57499250Y-82358000D01*
X57297500Y-82354928D01*
X57173018Y-82367188D01*
X57053320Y-82403498D01*
X56943006Y-82462463D01*
X56846315Y-82541815D01*
X56766963Y-82638506D01*
X56707998Y-82748820D01*
X56671688Y-82868518D01*
X56659428Y-82993000D01*
X54181572Y-82993000D01*
X54169312Y-82868518D01*
X54133002Y-82748820D01*
X54074037Y-82638506D01*
X54053515Y-82613500D01*
X55379497Y-82613500D01*
X55516744Y-82705205D01*
X55705102Y-82783226D01*
X55905061Y-82823000D01*
X56108939Y-82823000D01*
X56308898Y-82783226D01*
X56497256Y-82705205D01*
X56666774Y-82591937D01*
X56810937Y-82447774D01*
X56924205Y-82278256D01*
X57002226Y-82089898D01*
X57042000Y-81889939D01*
X57042000Y-81686061D01*
X57002226Y-81486102D01*
X56924205Y-81297744D01*
X56810937Y-81128226D01*
X56666774Y-80984063D01*
X56497256Y-80870795D01*
X56308898Y-80792774D01*
X56108939Y-80753000D01*
X55905061Y-80753000D01*
X55705102Y-80792774D01*
X55516744Y-80870795D01*
X55379497Y-80962500D01*
X53126550Y-80962500D01*
X53086000Y-80958506D01*
X53045449Y-80962500D01*
X53045447Y-80962500D01*
X52924174Y-80974444D01*
X52778818Y-81018537D01*
X52768566Y-81021647D01*
X52625157Y-81098301D01*
X52530958Y-81175608D01*
X52530955Y-81175611D01*
X52499459Y-81201459D01*
X52473611Y-81232955D01*
X51943000Y-81763567D01*
X51943000Y-79949316D01*
X51971185Y-79926185D01*
X52045000Y-79836241D01*
X52118815Y-79926185D01*
X52215506Y-80005537D01*
X52238667Y-80017917D01*
X52330750Y-80110000D01*
X52444337Y-80100454D01*
X52445518Y-80100812D01*
X52570000Y-80113072D01*
X53120000Y-80113072D01*
X53244482Y-80100812D01*
X53245000Y-80100655D01*
X53245518Y-80100812D01*
X53370000Y-80113072D01*
X53920000Y-80113072D01*
X54044482Y-80100812D01*
X54045000Y-80100655D01*
X54045518Y-80100812D01*
X54170000Y-80113072D01*
X54720000Y-80113072D01*
X54844482Y-80100812D01*
X54845000Y-80100655D01*
X54845518Y-80100812D01*
X54970000Y-80113072D01*
X55520000Y-80113072D01*
X55644482Y-80100812D01*
X55645000Y-80100655D01*
X55645518Y-80100812D01*
X55770000Y-80113072D01*
X56320000Y-80113072D01*
X56444482Y-80100812D01*
X56445000Y-80100655D01*
X56445518Y-80100812D01*
X56570000Y-80113072D01*
X57120000Y-80113072D01*
X57244482Y-80100812D01*
X57245000Y-80100655D01*
X57245518Y-80100812D01*
X57370000Y-80113072D01*
X57920000Y-80113072D01*
X58044482Y-80100812D01*
X58045663Y-80100454D01*
X58159250Y-80110000D01*
X58251333Y-80017917D01*
X58274494Y-80005537D01*
X58371185Y-79926185D01*
X58445000Y-79836241D01*
X58518815Y-79926185D01*
X58615506Y-80005537D01*
X58638667Y-80017917D01*
X58730750Y-80110000D01*
X58844337Y-80100454D01*
X58845518Y-80100812D01*
X58898001Y-80105981D01*
X58898000Y-82526797D01*
X58792708Y-82613208D01*
X58787492Y-82619564D01*
X58723685Y-82541815D01*
X58626994Y-82462463D01*
X58516680Y-82403498D01*
X58396982Y-82367188D01*
X58272500Y-82354928D01*
X58070750Y-82358000D01*
X57912000Y-82516750D01*
X57912000Y-83566000D01*
X57932000Y-83566000D01*
X57932000Y-83820000D01*
X57912000Y-83820000D01*
X57912000Y-84869250D01*
X58070750Y-85028000D01*
X58272500Y-85031072D01*
X58396982Y-85018812D01*
X58516680Y-84982502D01*
X58626994Y-84923537D01*
X58723685Y-84844185D01*
X58787492Y-84766436D01*
X58792708Y-84772792D01*
X58926336Y-84882458D01*
X59078791Y-84963947D01*
X59244215Y-85014128D01*
X59416250Y-85031072D01*
X59903750Y-85031072D01*
X60075785Y-85014128D01*
X60241209Y-84963947D01*
X60393664Y-84882458D01*
X60527292Y-84772792D01*
X60636958Y-84639164D01*
X60718447Y-84486709D01*
X60768628Y-84321285D01*
X60785572Y-84149250D01*
X60785572Y-83734861D01*
X61017933Y-83502500D01*
X62237497Y-83502500D01*
X62374744Y-83594205D01*
X62563102Y-83672226D01*
X62763061Y-83712000D01*
X62966939Y-83712000D01*
X63166898Y-83672226D01*
X63355256Y-83594205D01*
X63492503Y-83502500D01*
X70444450Y-83502500D01*
X70485000Y-83506494D01*
X70525550Y-83502500D01*
X70525553Y-83502500D01*
X70646826Y-83490556D01*
X70802434Y-83443353D01*
X70945842Y-83366699D01*
X71071541Y-83263541D01*
X71097398Y-83232034D01*
X72691046Y-81638388D01*
X72722541Y-81612541D01*
X72748389Y-81581045D01*
X72748392Y-81581042D01*
X72825699Y-81486843D01*
X72902353Y-81343434D01*
X72916213Y-81297744D01*
X72949556Y-81187826D01*
X72961500Y-81066553D01*
X72961500Y-81066551D01*
X72965494Y-81026000D01*
X72961500Y-80985450D01*
X72961500Y-76319503D01*
X72983063Y-76351774D01*
X73025001Y-76393712D01*
X73025000Y-83782577D01*
X73021314Y-83820000D01*
X73025000Y-83857423D01*
X73025000Y-83857425D01*
X73036026Y-83969377D01*
X73079598Y-84113014D01*
X73101421Y-84153842D01*
X73150355Y-84245392D01*
X73168380Y-84267355D01*
X73245578Y-84361422D01*
X73274654Y-84385284D01*
X74305716Y-85416346D01*
X74329578Y-85445422D01*
X74403219Y-85505857D01*
X74445607Y-85540645D01*
X74516364Y-85578465D01*
X74577985Y-85611402D01*
X74721622Y-85654974D01*
X74833574Y-85666000D01*
X74833577Y-85666000D01*
X74871000Y-85669686D01*
X74908423Y-85666000D01*
X89596077Y-85666000D01*
X89633500Y-85669686D01*
X89670923Y-85666000D01*
X89670926Y-85666000D01*
X89782878Y-85654974D01*
X89926515Y-85611402D01*
X90058892Y-85540645D01*
X90174922Y-85445422D01*
X90198783Y-85416347D01*
X90327058Y-85288072D01*
X91087500Y-85288072D01*
X91211982Y-85275812D01*
X91331680Y-85239502D01*
X91441994Y-85180537D01*
X91538685Y-85101185D01*
X91618037Y-85004494D01*
X91640751Y-84962000D01*
X97346370Y-84962000D01*
X98748721Y-86364352D01*
X98772578Y-86393422D01*
X98801648Y-86417279D01*
X98888607Y-86488645D01*
X98959364Y-86526465D01*
X99020985Y-86559402D01*
X99124218Y-86590718D01*
X99096908Y-86618028D01*
X98923176Y-86878037D01*
X98803507Y-87166943D01*
X98742500Y-87473645D01*
X98742500Y-87786355D01*
X98803507Y-88093057D01*
X98923176Y-88381963D01*
X99096908Y-88641972D01*
X99318028Y-88863092D01*
X99578037Y-89036824D01*
X99866943Y-89156493D01*
X100173645Y-89217500D01*
X100486355Y-89217500D01*
X100793057Y-89156493D01*
X101081963Y-89036824D01*
X101341972Y-88863092D01*
X101345549Y-88859515D01*
X101386963Y-88936994D01*
X101466315Y-89033685D01*
X101563006Y-89113037D01*
X101673320Y-89172002D01*
X101793018Y-89208312D01*
X101917500Y-89220572D01*
X103822500Y-89220572D01*
X103946982Y-89208312D01*
X104066680Y-89172002D01*
X104176994Y-89113037D01*
X104273685Y-89033685D01*
X104353037Y-88936994D01*
X104412002Y-88826680D01*
X104448312Y-88706982D01*
X104460572Y-88582500D01*
X104460572Y-86677500D01*
X104454318Y-86614000D01*
X108552077Y-86614000D01*
X108589500Y-86617686D01*
X108626923Y-86614000D01*
X108626926Y-86614000D01*
X108738878Y-86602974D01*
X108882515Y-86559402D01*
X109014892Y-86488645D01*
X109130922Y-86393422D01*
X109154784Y-86364346D01*
X110049853Y-85469278D01*
X110078922Y-85445422D01*
X110174145Y-85329392D01*
X110199495Y-85281966D01*
X110261982Y-85275812D01*
X110381680Y-85239502D01*
X110465001Y-85194965D01*
X110465001Y-89502711D01*
X110426091Y-89899545D01*
X110320220Y-90250206D01*
X110148257Y-90573623D01*
X109916748Y-90857482D01*
X109634514Y-91090965D01*
X109312304Y-91265184D01*
X108962385Y-91373502D01*
X108567557Y-91415000D01*
X30258279Y-91415000D01*
X29861455Y-91376091D01*
X29510794Y-91270220D01*
X29187377Y-91098257D01*
X28903518Y-90866748D01*
X28670035Y-90584514D01*
X28495816Y-90262304D01*
X28387498Y-89912385D01*
X28346000Y-89517557D01*
X28346000Y-87473645D01*
X79692500Y-87473645D01*
X79692500Y-87786355D01*
X79753507Y-88093057D01*
X79873176Y-88381963D01*
X80046908Y-88641972D01*
X80268028Y-88863092D01*
X80528037Y-89036824D01*
X80816943Y-89156493D01*
X81123645Y-89217500D01*
X81436355Y-89217500D01*
X81743057Y-89156493D01*
X82031963Y-89036824D01*
X82291972Y-88863092D01*
X82295549Y-88859515D01*
X82336963Y-88936994D01*
X82416315Y-89033685D01*
X82513006Y-89113037D01*
X82623320Y-89172002D01*
X82743018Y-89208312D01*
X82867500Y-89220572D01*
X84772500Y-89220572D01*
X84896982Y-89208312D01*
X85016680Y-89172002D01*
X85126994Y-89113037D01*
X85223685Y-89033685D01*
X85303037Y-88936994D01*
X85362002Y-88826680D01*
X85398312Y-88706982D01*
X85410572Y-88582500D01*
X85410572Y-86677500D01*
X85398312Y-86553018D01*
X85362002Y-86433320D01*
X85303037Y-86323006D01*
X85223685Y-86226315D01*
X85126994Y-86146963D01*
X85016680Y-86087998D01*
X84896982Y-86051688D01*
X84772500Y-86039428D01*
X82867500Y-86039428D01*
X82743018Y-86051688D01*
X82623320Y-86087998D01*
X82513006Y-86146963D01*
X82416315Y-86226315D01*
X82336963Y-86323006D01*
X82295549Y-86400485D01*
X82291972Y-86396908D01*
X82031963Y-86223176D01*
X81743057Y-86103507D01*
X81436355Y-86042500D01*
X81123645Y-86042500D01*
X80816943Y-86103507D01*
X80528037Y-86223176D01*
X80268028Y-86396908D01*
X80046908Y-86618028D01*
X79873176Y-86878037D01*
X79753507Y-87166943D01*
X79692500Y-87473645D01*
X28346000Y-87473645D01*
X28346000Y-84188000D01*
X40192928Y-84188000D01*
X40205188Y-84312482D01*
X40241498Y-84432180D01*
X40300463Y-84542494D01*
X40379815Y-84639185D01*
X40476506Y-84718537D01*
X40586820Y-84777502D01*
X40706518Y-84813812D01*
X40831000Y-84826072D01*
X41445250Y-84823000D01*
X41604000Y-84664250D01*
X41604000Y-83765000D01*
X41858000Y-83765000D01*
X41858000Y-84664250D01*
X42016750Y-84823000D01*
X42631000Y-84826072D01*
X42755482Y-84813812D01*
X42875180Y-84777502D01*
X42985494Y-84718537D01*
X43082185Y-84639185D01*
X43161537Y-84542494D01*
X43220502Y-84432180D01*
X43256812Y-84312482D01*
X43269072Y-84188000D01*
X43266000Y-83923750D01*
X43107250Y-83765000D01*
X41858000Y-83765000D01*
X41604000Y-83765000D01*
X40354750Y-83765000D01*
X40196000Y-83923750D01*
X40192928Y-84188000D01*
X28346000Y-84188000D01*
X28346000Y-83088000D01*
X40192928Y-83088000D01*
X40196000Y-83352250D01*
X40354750Y-83511000D01*
X41604000Y-83511000D01*
X41604000Y-82611750D01*
X41858000Y-82611750D01*
X41858000Y-83511000D01*
X43107250Y-83511000D01*
X43266000Y-83352250D01*
X43269072Y-83088000D01*
X43256812Y-82963518D01*
X43220502Y-82843820D01*
X43161537Y-82733506D01*
X43082185Y-82636815D01*
X42985494Y-82557463D01*
X42875180Y-82498498D01*
X42755482Y-82462188D01*
X42631000Y-82449928D01*
X42016750Y-82453000D01*
X41858000Y-82611750D01*
X41604000Y-82611750D01*
X41445250Y-82453000D01*
X40831000Y-82449928D01*
X40706518Y-82462188D01*
X40586820Y-82498498D01*
X40476506Y-82557463D01*
X40379815Y-82636815D01*
X40300463Y-82733506D01*
X40241498Y-82843820D01*
X40205188Y-82963518D01*
X40192928Y-83088000D01*
X28346000Y-83088000D01*
X28346000Y-79388000D01*
X40192928Y-79388000D01*
X40192928Y-80488000D01*
X40205188Y-80612482D01*
X40241498Y-80732180D01*
X40300463Y-80842494D01*
X40379815Y-80939185D01*
X40476506Y-81018537D01*
X40586820Y-81077502D01*
X40706518Y-81113812D01*
X40831000Y-81126072D01*
X42631000Y-81126072D01*
X42755482Y-81113812D01*
X42875180Y-81077502D01*
X42985494Y-81018537D01*
X43082185Y-80939185D01*
X43161537Y-80842494D01*
X43220502Y-80732180D01*
X43256812Y-80612482D01*
X43269072Y-80488000D01*
X43269072Y-79388000D01*
X43256812Y-79263518D01*
X43220502Y-79143820D01*
X43161537Y-79033506D01*
X43082185Y-78936815D01*
X42985494Y-78857463D01*
X42875180Y-78798498D01*
X42755482Y-78762188D01*
X42631000Y-78749928D01*
X40831000Y-78749928D01*
X40706518Y-78762188D01*
X40586820Y-78798498D01*
X40476506Y-78857463D01*
X40379815Y-78936815D01*
X40300463Y-79033506D01*
X40241498Y-79143820D01*
X40205188Y-79263518D01*
X40192928Y-79388000D01*
X28346000Y-79388000D01*
X28346000Y-56547279D01*
X28384909Y-56150455D01*
X28490780Y-55799792D01*
X28662744Y-55476375D01*
X28894254Y-55192516D01*
X29176486Y-54959035D01*
X29498695Y-54784817D01*
X29848614Y-54676498D01*
X30243443Y-54635000D01*
X31191505Y-54635000D01*
X31166401Y-54681966D01*
G37*
X31166401Y-54681966D02*
X31081487Y-54961889D01*
X31060000Y-55180050D01*
X31060000Y-56325949D01*
X31081487Y-56544110D01*
X31166401Y-56824033D01*
X31304294Y-57082013D01*
X31489866Y-57308134D01*
X31715986Y-57493706D01*
X31973966Y-57631599D01*
X32253889Y-57716513D01*
X32545000Y-57745185D01*
X32836110Y-57716513D01*
X33116033Y-57631599D01*
X33374013Y-57493706D01*
X33600134Y-57308134D01*
X33785706Y-57082014D01*
X33923599Y-56824034D01*
X34008513Y-56544111D01*
X34030000Y-56325950D01*
X34030000Y-55180050D01*
X34008513Y-54961889D01*
X33923599Y-54681966D01*
X33898495Y-54635000D01*
X38491505Y-54635000D01*
X38466401Y-54681966D01*
X38381487Y-54961889D01*
X38360000Y-55180050D01*
X38360000Y-56325949D01*
X38381487Y-56544110D01*
X38466401Y-56824033D01*
X38604294Y-57082013D01*
X38789866Y-57308134D01*
X39015986Y-57493706D01*
X39273966Y-57631599D01*
X39553889Y-57716513D01*
X39845000Y-57745185D01*
X40136110Y-57716513D01*
X40416033Y-57631599D01*
X40674013Y-57493706D01*
X40900134Y-57308134D01*
X41085706Y-57082014D01*
X41223599Y-56824034D01*
X41308513Y-56544111D01*
X41330000Y-56325950D01*
X41330000Y-55180050D01*
X41308513Y-54961889D01*
X41223599Y-54681966D01*
X41198495Y-54635000D01*
X108552721Y-54635000D01*
X108949545Y-54673909D01*
X109300208Y-54779780D01*
X109623625Y-54951744D01*
X109907484Y-55183254D01*
X110140965Y-55465486D01*
X110315183Y-55787695D01*
X110423502Y-56137614D01*
X110465000Y-56532443D01*
X110465000Y-60855034D01*
X110381680Y-60810498D01*
X110261982Y-60774188D01*
X110137500Y-60761928D01*
X108937500Y-60761928D01*
X108813018Y-60774188D01*
X108693320Y-60810498D01*
X108583006Y-60869463D01*
X108486315Y-60948815D01*
X108406963Y-61045506D01*
X108384249Y-61088000D01*
X107265630Y-61088000D01*
X105761085Y-59583455D01*
X105806684Y-59463541D01*
X105849881Y-59207339D01*
X105888099Y-58653175D01*
X105900000Y-58593345D01*
X105900000Y-58480611D01*
X105901777Y-58454844D01*
X105900000Y-58394256D01*
X105900000Y-58246655D01*
X105894922Y-58221128D01*
X105894160Y-58195137D01*
X105861159Y-58051387D01*
X105832364Y-57906627D01*
X105822407Y-57882588D01*
X105816587Y-57857238D01*
X105756177Y-57722694D01*
X105699692Y-57586327D01*
X105685230Y-57564683D01*
X105674581Y-57540966D01*
X105589096Y-57420809D01*
X105507081Y-57298065D01*
X105488678Y-57279662D01*
X105473604Y-57258474D01*
X105366311Y-57157295D01*
X105261935Y-57052919D01*
X105240294Y-57038459D01*
X105221376Y-57020619D01*
X105096407Y-56942316D01*
X104973673Y-56860308D01*
X104949628Y-56850348D01*
X104927592Y-56836541D01*
X104789740Y-56784121D01*
X104653373Y-56727636D01*
X104627846Y-56722558D01*
X104603541Y-56713316D01*
X104458108Y-56688795D01*
X104313345Y-56660000D01*
X104287323Y-56660000D01*
X104261677Y-56655676D01*
X104114237Y-56660000D01*
X103966655Y-56660000D01*
X103941133Y-56665077D01*
X103915138Y-56665839D01*
X103771375Y-56698844D01*
X103626627Y-56727636D01*
X103602587Y-56737594D01*
X103577239Y-56743413D01*
X103442689Y-56803825D01*
X103306327Y-56860308D01*
X103284687Y-56874767D01*
X103260966Y-56885418D01*
X103140796Y-56970913D01*
X103018065Y-57052919D01*
X102999662Y-57071322D01*
X102978474Y-57086396D01*
X102877288Y-57193696D01*
X102772919Y-57298065D01*
X102758461Y-57319703D01*
X102740619Y-57338623D01*
X102662310Y-57463602D01*
X102580308Y-57586327D01*
X102570348Y-57610372D01*
X102556541Y-57632408D01*
X102504119Y-57770264D01*
X102447636Y-57906627D01*
X102442559Y-57932152D01*
X102433316Y-57956458D01*
X102408794Y-58101898D01*
X102380000Y-58246655D01*
X102380000Y-58359386D01*
X102338223Y-58965157D01*
X102345840Y-59224862D01*
X102423413Y-59562761D01*
X102565419Y-59879034D01*
X102766396Y-60161526D01*
X103018624Y-60399381D01*
X103312408Y-60583459D01*
X103636459Y-60706684D01*
X103978323Y-60764324D01*
X104324862Y-60754160D01*
X104662761Y-60676587D01*
X104687741Y-60665371D01*
X106119942Y-62097572D01*
X105964747Y-62161856D01*
X105717431Y-62327107D01*
X105507107Y-62537431D01*
X105341856Y-62784747D01*
X105228029Y-63059549D01*
X105170000Y-63351278D01*
X105170000Y-63648722D01*
X105228029Y-63940451D01*
X105341856Y-64215253D01*
X105507107Y-64462569D01*
X105717431Y-64672893D01*
X105964747Y-64838144D01*
X106239549Y-64951971D01*
X106531278Y-65010000D01*
X106828722Y-65010000D01*
X107120451Y-64951971D01*
X107395253Y-64838144D01*
X107642569Y-64672893D01*
X107852893Y-64462569D01*
X108018144Y-64215253D01*
X108131971Y-63940451D01*
X108190000Y-63648722D01*
X108190000Y-63351278D01*
X108131971Y-63059549D01*
X108018144Y-62784747D01*
X107902718Y-62612000D01*
X108384249Y-62612000D01*
X108406963Y-62654494D01*
X108486315Y-62751185D01*
X108583006Y-62830537D01*
X108693320Y-62889502D01*
X108813018Y-62925812D01*
X108937500Y-62938072D01*
X110137500Y-62938072D01*
X110261982Y-62925812D01*
X110381680Y-62889502D01*
X110465000Y-62844966D01*
X110465000Y-64155034D01*
X110381680Y-64110498D01*
X110261982Y-64074188D01*
X110137500Y-64061928D01*
X108937500Y-64061928D01*
X108813018Y-64074188D01*
X108693320Y-64110498D01*
X108583006Y-64169463D01*
X108486315Y-64248815D01*
X108406963Y-64345506D01*
X108347998Y-64455820D01*
X108311688Y-64575518D01*
X108299428Y-64700000D01*
X108299428Y-65600000D01*
X108311688Y-65724482D01*
X108347998Y-65844180D01*
X108390387Y-65923483D01*
X108273870Y-66040000D01*
X102305855Y-66040000D01*
X102366822Y-66027873D01*
X102845251Y-65829701D01*
X103275826Y-65542000D01*
X103642000Y-65175826D01*
X103929701Y-64745251D01*
X104127873Y-64266822D01*
X104228900Y-63758924D01*
X104228900Y-63241076D01*
X104127873Y-62733178D01*
X103929701Y-62254749D01*
X103642000Y-61824174D01*
X103275826Y-61458000D01*
X102845251Y-61170299D01*
X102366822Y-60972127D01*
X101858924Y-60871100D01*
X101341076Y-60871100D01*
X100833178Y-60972127D01*
X100354749Y-61170299D01*
X99924174Y-61458000D01*
X99558000Y-61824174D01*
X99270299Y-62254749D01*
X99072127Y-62733178D01*
X98971100Y-63241076D01*
X98971100Y-63758924D01*
X99072127Y-64266822D01*
X99270299Y-64745251D01*
X99558000Y-65175826D01*
X99924174Y-65542000D01*
X100354749Y-65829701D01*
X100833178Y-66027873D01*
X100894145Y-66040000D01*
X99629631Y-66040000D01*
X98227284Y-64637654D01*
X98203422Y-64608578D01*
X98087392Y-64513355D01*
X97955015Y-64442598D01*
X97811378Y-64399026D01*
X97740045Y-64392001D01*
X97858144Y-64215253D01*
X97971971Y-63940451D01*
X98030000Y-63648722D01*
X98030000Y-63351278D01*
X97971971Y-63059549D01*
X97858144Y-62784747D01*
X97816814Y-62722892D01*
X97885626Y-62725927D01*
X98228304Y-62673339D01*
X98554139Y-62554909D01*
X98850607Y-62375187D01*
X99042243Y-62199742D01*
X100378200Y-60710816D01*
X100467081Y-60621935D01*
X100541827Y-60510070D01*
X100621444Y-60401587D01*
X100637979Y-60366169D01*
X100659692Y-60333673D01*
X100711175Y-60209382D01*
X100768101Y-60087445D01*
X100777410Y-60049476D01*
X100792364Y-60013373D01*
X100818610Y-59881426D01*
X100850653Y-59750727D01*
X100852375Y-59711677D01*
X100860000Y-59673345D01*
X100860000Y-59538802D01*
X100865929Y-59404374D01*
X100860000Y-59365739D01*
X100860000Y-59326655D01*
X100833751Y-59194691D01*
X100813341Y-59061696D01*
X100799989Y-59024961D01*
X100792364Y-58986627D01*
X100740874Y-58862320D01*
X100694911Y-58735861D01*
X100674650Y-58702438D01*
X100659692Y-58666327D01*
X100584935Y-58554446D01*
X100515189Y-58439393D01*
X100488798Y-58410566D01*
X100467081Y-58378065D01*
X100371934Y-58282918D01*
X100281083Y-58183683D01*
X100249575Y-58160559D01*
X100221935Y-58132919D01*
X100110050Y-58058159D01*
X100001588Y-57978558D01*
X99966176Y-57962026D01*
X99933673Y-57940308D01*
X99809353Y-57888813D01*
X99687446Y-57831901D01*
X99649486Y-57822595D01*
X99613373Y-57807636D01*
X99481388Y-57781382D01*
X99350728Y-57749349D01*
X99311689Y-57747627D01*
X99273345Y-57740000D01*
X99138758Y-57740000D01*
X99004375Y-57734073D01*
X98965753Y-57740000D01*
X98926655Y-57740000D01*
X98794644Y-57766259D01*
X98661697Y-57786661D01*
X98624976Y-57800008D01*
X98586627Y-57807636D01*
X98462269Y-57859147D01*
X98335863Y-57905091D01*
X98302454Y-57925344D01*
X98266327Y-57940308D01*
X98154400Y-58015095D01*
X98039394Y-58084813D01*
X98010578Y-58111195D01*
X97978065Y-58132919D01*
X97882887Y-58228097D01*
X97847758Y-58260258D01*
X97821837Y-58289147D01*
X97732919Y-58378065D01*
X97706273Y-58417943D01*
X96422284Y-59848953D01*
X96268558Y-60058414D01*
X96121901Y-60372556D01*
X96039349Y-60709274D01*
X96024073Y-61055626D01*
X96076661Y-61398304D01*
X96195091Y-61724139D01*
X96357875Y-61992666D01*
X96079549Y-62048029D01*
X95804747Y-62161856D01*
X95557431Y-62327107D01*
X95347107Y-62537431D01*
X95181856Y-62784747D01*
X95068029Y-63059549D01*
X95010000Y-63351278D01*
X95010000Y-63648722D01*
X95068029Y-63940451D01*
X95181856Y-64215253D01*
X95297282Y-64388000D01*
X91640751Y-64388000D01*
X91618037Y-64345506D01*
X91538685Y-64248815D01*
X91441994Y-64169463D01*
X91331680Y-64110498D01*
X91211982Y-64074188D01*
X91087500Y-64061928D01*
X89887500Y-64061928D01*
X89763018Y-64074188D01*
X89643320Y-64110498D01*
X89533006Y-64169463D01*
X89436315Y-64248815D01*
X89356963Y-64345506D01*
X89297998Y-64455820D01*
X89294563Y-64467144D01*
X89208107Y-64513355D01*
X89165719Y-64548143D01*
X89092078Y-64608578D01*
X89068216Y-64637654D01*
X88586620Y-65119250D01*
X84629803Y-65119250D01*
X84879701Y-64745251D01*
X85077873Y-64266822D01*
X85178900Y-63758924D01*
X85178900Y-63241076D01*
X85077873Y-62733178D01*
X84879701Y-62254749D01*
X84592000Y-61824174D01*
X84225826Y-61458000D01*
X83795251Y-61170299D01*
X83316822Y-60972127D01*
X82808924Y-60871100D01*
X82291076Y-60871100D01*
X81783178Y-60972127D01*
X81304749Y-61170299D01*
X80874174Y-61458000D01*
X80508000Y-61824174D01*
X80220299Y-62254749D01*
X80022127Y-62733178D01*
X79921100Y-63241076D01*
X79921100Y-63758924D01*
X80022127Y-64266822D01*
X80220299Y-64745251D01*
X80470197Y-65119250D01*
X76237422Y-65119250D01*
X76199999Y-65115564D01*
X76162576Y-65119250D01*
X76162574Y-65119250D01*
X76050622Y-65130276D01*
X75906985Y-65173848D01*
X75774608Y-65244605D01*
X75658578Y-65339828D01*
X75634721Y-65368898D01*
X73274654Y-67728966D01*
X73245578Y-67752828D01*
X73207915Y-67798721D01*
X73150355Y-67868858D01*
X73134489Y-67898542D01*
X73079598Y-68001236D01*
X73036026Y-68144873D01*
X73030648Y-68199482D01*
X73021314Y-68294250D01*
X73025000Y-68331673D01*
X73025001Y-71561288D01*
X72983063Y-71603226D01*
X72869795Y-71772744D01*
X72791774Y-71961102D01*
X72783173Y-72004340D01*
X72748391Y-71961958D01*
X72722541Y-71930459D01*
X72691039Y-71904606D01*
X71639429Y-70852996D01*
X71607226Y-70691102D01*
X71529205Y-70502744D01*
X71415937Y-70333226D01*
X71271774Y-70189063D01*
X71102256Y-70075795D01*
X70913898Y-69997774D01*
X70713939Y-69958000D01*
X70510061Y-69958000D01*
X70310102Y-69997774D01*
X70121744Y-70075795D01*
X69952226Y-70189063D01*
X69808063Y-70333226D01*
X69694795Y-70502744D01*
X69616774Y-70691102D01*
X69577000Y-70891061D01*
X69577000Y-71094939D01*
X69616774Y-71294898D01*
X69694795Y-71483256D01*
X69808063Y-71652774D01*
X69952226Y-71796937D01*
X70121744Y-71910205D01*
X70310102Y-71988226D01*
X70471996Y-72020429D01*
X71310501Y-72858934D01*
X71310500Y-77129552D01*
X71310501Y-77129562D01*
X71310500Y-80684066D01*
X70143068Y-81851500D01*
X63492503Y-81851500D01*
X63355256Y-81759795D01*
X63166898Y-81681774D01*
X62966939Y-81642000D01*
X62763061Y-81642000D01*
X62563102Y-81681774D01*
X62374744Y-81759795D01*
X62237497Y-81851500D01*
X60716550Y-81851500D01*
X60676000Y-81847506D01*
X60635449Y-81851500D01*
X60635447Y-81851500D01*
X60514174Y-81863444D01*
X60422000Y-81891405D01*
X60422000Y-79177423D01*
X60425686Y-79140000D01*
X60420385Y-79086175D01*
X60410974Y-78990622D01*
X60367402Y-78846985D01*
X60296645Y-78714608D01*
X60201422Y-78598578D01*
X60172341Y-78574712D01*
X60158072Y-78560443D01*
X60158072Y-77975000D01*
X60154038Y-77934038D01*
X60195000Y-77938072D01*
X60286269Y-77938072D01*
X60308355Y-77979392D01*
X60366302Y-78050000D01*
X60403579Y-78095422D01*
X60432649Y-78119279D01*
X63470721Y-81157352D01*
X63494578Y-81186422D01*
X63610608Y-81281645D01*
X63742985Y-81352402D01*
X63886622Y-81395974D01*
X63998574Y-81407000D01*
X63998576Y-81407000D01*
X64035999Y-81410686D01*
X64073422Y-81407000D01*
X64746797Y-81407000D01*
X64833208Y-81512292D01*
X64966836Y-81621958D01*
X65119291Y-81703447D01*
X65284715Y-81753628D01*
X65456750Y-81770572D01*
X66369250Y-81770572D01*
X66541285Y-81753628D01*
X66706709Y-81703447D01*
X66859164Y-81621958D01*
X66992792Y-81512292D01*
X67102458Y-81378664D01*
X67183947Y-81226209D01*
X67234128Y-81060785D01*
X67251072Y-80888750D01*
X67251072Y-80401250D01*
X67234128Y-80229215D01*
X67183947Y-80063791D01*
X67102458Y-79911336D01*
X66992792Y-79777708D01*
X66986436Y-79772492D01*
X67064185Y-79708685D01*
X67143537Y-79611994D01*
X67202502Y-79501680D01*
X67238812Y-79381982D01*
X67251072Y-79257500D01*
X67248000Y-79055750D01*
X67089250Y-78897000D01*
X66040000Y-78897000D01*
X66040000Y-78917000D01*
X65786000Y-78917000D01*
X65786000Y-78897000D01*
X64736750Y-78897000D01*
X64578000Y-79055750D01*
X64574928Y-79257500D01*
X64587188Y-79381982D01*
X64623498Y-79501680D01*
X64682463Y-79611994D01*
X64761815Y-79708685D01*
X64839564Y-79772492D01*
X64833208Y-79777708D01*
X64746797Y-79883000D01*
X64351631Y-79883000D01*
X62751131Y-78282500D01*
X64574928Y-78282500D01*
X64578000Y-78484250D01*
X64736750Y-78643000D01*
X65786000Y-78643000D01*
X65786000Y-77806250D01*
X66040000Y-77806250D01*
X66040000Y-78643000D01*
X67089250Y-78643000D01*
X67248000Y-78484250D01*
X67251072Y-78282500D01*
X67238812Y-78158018D01*
X67202502Y-78038320D01*
X67143537Y-77928006D01*
X67064185Y-77831315D01*
X66967494Y-77751963D01*
X66857180Y-77692998D01*
X66737482Y-77656688D01*
X66613000Y-77644428D01*
X66198750Y-77647500D01*
X66040000Y-77806250D01*
X65786000Y-77806250D01*
X65627250Y-77647500D01*
X65213000Y-77644428D01*
X65088518Y-77656688D01*
X64968820Y-77692998D01*
X64858506Y-77751963D01*
X64761815Y-77831315D01*
X64682463Y-77928006D01*
X64623498Y-78038320D01*
X64587188Y-78158018D01*
X64574928Y-78282500D01*
X62751131Y-78282500D01*
X62179374Y-77710744D01*
X62225537Y-77654494D01*
X62284502Y-77544180D01*
X62320812Y-77424482D01*
X62333072Y-77300000D01*
X62333072Y-76750000D01*
X62320812Y-76625518D01*
X62320655Y-76625000D01*
X62320812Y-76624482D01*
X62333072Y-76500000D01*
X62333072Y-76273547D01*
X62400209Y-76328645D01*
X62443481Y-76351774D01*
X62532587Y-76399402D01*
X62676224Y-76442974D01*
X62788176Y-76454000D01*
X62788179Y-76454000D01*
X62825602Y-76457686D01*
X62863025Y-76454000D01*
X66989289Y-76454000D01*
X67031226Y-76495937D01*
X67200744Y-76609205D01*
X67389102Y-76687226D01*
X67589061Y-76727000D01*
X67792939Y-76727000D01*
X67992898Y-76687226D01*
X68181256Y-76609205D01*
X68350774Y-76495937D01*
X68494937Y-76351774D01*
X68608205Y-76182256D01*
X68686226Y-75993898D01*
X68726000Y-75793939D01*
X68726000Y-75590061D01*
X68686226Y-75390102D01*
X68608205Y-75201744D01*
X68494937Y-75032226D01*
X68487286Y-75024575D01*
X68559226Y-74850898D01*
X68599000Y-74650939D01*
X68599000Y-74447061D01*
X68559226Y-74247102D01*
X68481205Y-74058744D01*
X68469349Y-74041000D01*
X68481205Y-74023256D01*
X68559226Y-73834898D01*
X68599000Y-73634939D01*
X68599000Y-73431061D01*
X68559226Y-73231102D01*
X68481205Y-73042744D01*
X68384490Y-72898000D01*
X68481205Y-72753256D01*
X68559226Y-72564898D01*
X68599000Y-72364939D01*
X68599000Y-72161061D01*
X68559226Y-71961102D01*
X68546801Y-71931104D01*
X68597256Y-71910205D01*
X68766774Y-71796937D01*
X68910937Y-71652774D01*
X69024205Y-71483256D01*
X69102226Y-71294898D01*
X69142000Y-71094939D01*
X69142000Y-70891061D01*
X69102226Y-70691102D01*
X69024205Y-70502744D01*
X68910937Y-70333226D01*
X68766774Y-70189063D01*
X68597256Y-70075795D01*
X68408898Y-69997774D01*
X68208939Y-69958000D01*
X68005061Y-69958000D01*
X67805102Y-69997774D01*
X67616744Y-70075795D01*
X67479497Y-70167500D01*
X67051710Y-70167500D01*
X66992792Y-70095708D01*
X66986436Y-70090492D01*
X67064185Y-70026685D01*
X67143537Y-69929994D01*
X67202502Y-69819680D01*
X67238812Y-69699982D01*
X67251072Y-69575500D01*
X67248000Y-69373750D01*
X67089250Y-69215000D01*
X66040000Y-69215000D01*
X66040000Y-69235000D01*
X65786000Y-69235000D01*
X65786000Y-69215000D01*
X64736750Y-69215000D01*
X64639748Y-69312002D01*
X64616422Y-69283578D01*
X64500392Y-69188355D01*
X64368015Y-69117598D01*
X64224378Y-69074026D01*
X64112426Y-69063000D01*
X64112423Y-69063000D01*
X64075000Y-69059314D01*
X64048623Y-69061912D01*
X64032774Y-69046063D01*
X63863256Y-68932795D01*
X63674898Y-68854774D01*
X63474939Y-68815000D01*
X63271061Y-68815000D01*
X63071102Y-68854774D01*
X62882744Y-68932795D01*
X62713226Y-69046063D01*
X62696289Y-69063000D01*
X62102544Y-69063000D01*
X62049494Y-69019463D01*
X61939180Y-68960498D01*
X61819482Y-68924188D01*
X61695000Y-68911928D01*
X60195000Y-68911928D01*
X60070518Y-68924188D01*
X59950820Y-68960498D01*
X59840506Y-69019463D01*
X59743815Y-69098815D01*
X59664463Y-69195506D01*
X59652083Y-69218667D01*
X59560000Y-69310750D01*
X59569546Y-69424337D01*
X59569188Y-69425518D01*
X59556928Y-69550000D01*
X59556928Y-70100000D01*
X59569188Y-70224482D01*
X59569345Y-70225000D01*
X59569188Y-70225518D01*
X59556928Y-70350000D01*
X59556928Y-70900000D01*
X59569188Y-71024482D01*
X59569345Y-71025000D01*
X59569188Y-71025518D01*
X59556928Y-71150000D01*
X59556928Y-71700000D01*
X59569188Y-71824482D01*
X59569345Y-71825000D01*
X59569188Y-71825518D01*
X59556928Y-71950000D01*
X59556928Y-72500000D01*
X59569188Y-72624482D01*
X59569345Y-72625000D01*
X59569188Y-72625518D01*
X59556928Y-72750000D01*
X59556928Y-73300000D01*
X59569188Y-73424482D01*
X59569345Y-73425000D01*
X59569188Y-73425518D01*
X59556928Y-73550000D01*
X59556928Y-74100000D01*
X59569188Y-74224482D01*
X59569345Y-74225000D01*
X59569188Y-74225518D01*
X59556928Y-74350000D01*
X59556928Y-74900000D01*
X59569188Y-75024482D01*
X59569345Y-75025000D01*
X59569188Y-75025518D01*
X59556928Y-75150000D01*
X59556928Y-75700000D01*
X59569188Y-75824482D01*
X59569345Y-75825000D01*
X59569188Y-75825518D01*
X59556928Y-75950000D01*
X59556928Y-76500000D01*
X59569188Y-76624482D01*
X59569345Y-76625000D01*
X59569188Y-76625518D01*
X59556928Y-76750000D01*
X59556928Y-77300000D01*
X59560962Y-77340962D01*
X59520000Y-77336928D01*
X58970000Y-77336928D01*
X58845518Y-77349188D01*
X58844337Y-77349546D01*
X58730750Y-77340000D01*
X58638667Y-77432083D01*
X58615506Y-77444463D01*
X58518815Y-77523815D01*
X58445000Y-77613759D01*
X58371185Y-77523815D01*
X58274494Y-77444463D01*
X58251333Y-77432083D01*
X58159250Y-77340000D01*
X58045663Y-77349546D01*
X58044482Y-77349188D01*
X57920000Y-77336928D01*
X57370000Y-77336928D01*
X57245518Y-77349188D01*
X57245000Y-77349345D01*
X57244482Y-77349188D01*
X57120000Y-77336928D01*
X56570000Y-77336928D01*
X56445518Y-77349188D01*
X56445000Y-77349345D01*
X56444482Y-77349188D01*
X56320000Y-77336928D01*
X55770000Y-77336928D01*
X55645518Y-77349188D01*
X55645000Y-77349345D01*
X55644482Y-77349188D01*
X55520000Y-77336928D01*
X54970000Y-77336928D01*
X54845518Y-77349188D01*
X54845000Y-77349345D01*
X54844482Y-77349188D01*
X54720000Y-77336928D01*
X54170000Y-77336928D01*
X54045518Y-77349188D01*
X54045000Y-77349345D01*
X54044482Y-77349188D01*
X53920000Y-77336928D01*
X53370000Y-77336928D01*
X53245518Y-77349188D01*
X53245000Y-77349345D01*
X53244482Y-77349188D01*
X53120000Y-77336928D01*
X52570000Y-77336928D01*
X52445518Y-77349188D01*
X52444337Y-77349546D01*
X52330750Y-77340000D01*
X52238667Y-77432083D01*
X52215506Y-77444463D01*
X52118815Y-77523815D01*
X52045000Y-77613759D01*
X51971185Y-77523815D01*
X51874494Y-77444463D01*
X51851333Y-77432083D01*
X51759250Y-77340000D01*
X51645663Y-77349546D01*
X51644482Y-77349188D01*
X51520000Y-77336928D01*
X50970000Y-77336928D01*
X50929038Y-77340962D01*
X50933072Y-77300000D01*
X50933072Y-76750000D01*
X50920812Y-76625518D01*
X50920655Y-76625000D01*
X50920812Y-76624482D01*
X50933072Y-76500000D01*
X50933072Y-75950000D01*
X50920812Y-75825518D01*
X50920655Y-75825000D01*
X50920812Y-75824482D01*
X50933072Y-75700000D01*
X50933072Y-75150000D01*
X50920812Y-75025518D01*
X50920655Y-75025000D01*
X50920812Y-75024482D01*
X50933072Y-74900000D01*
X50933072Y-74350000D01*
X50920812Y-74225518D01*
X50920454Y-74224337D01*
X50930000Y-74110750D01*
X50837917Y-74018667D01*
X50825537Y-73995506D01*
X50746185Y-73898815D01*
X50656241Y-73825000D01*
X50746185Y-73751185D01*
X50825537Y-73654494D01*
X50837917Y-73631333D01*
X50930000Y-73539250D01*
X50920454Y-73425663D01*
X50920812Y-73424482D01*
X50933072Y-73300000D01*
X50933072Y-72750000D01*
X50920812Y-72625518D01*
X50920655Y-72625000D01*
X50920812Y-72624482D01*
X50933072Y-72500000D01*
X50933072Y-71950000D01*
X50920812Y-71825518D01*
X50920655Y-71825000D01*
X50920812Y-71824482D01*
X50933072Y-71700000D01*
X50933072Y-71150000D01*
X50920812Y-71025518D01*
X50920655Y-71025000D01*
X50920812Y-71024482D01*
X50933072Y-70900000D01*
X50933072Y-70350000D01*
X50920812Y-70225518D01*
X50920655Y-70225000D01*
X50920812Y-70224482D01*
X50933072Y-70100000D01*
X50933072Y-69550000D01*
X50920812Y-69425518D01*
X50920655Y-69425000D01*
X50920812Y-69424482D01*
X50933072Y-69300000D01*
X50933072Y-68750000D01*
X50929038Y-68709038D01*
X50970000Y-68713072D01*
X51520000Y-68713072D01*
X51644482Y-68700812D01*
X51645000Y-68700655D01*
X51645518Y-68700812D01*
X51770000Y-68713072D01*
X52320000Y-68713072D01*
X52444482Y-68700812D01*
X52445000Y-68700655D01*
X52445518Y-68700812D01*
X52570000Y-68713072D01*
X53120000Y-68713072D01*
X53244482Y-68700812D01*
X53245663Y-68700454D01*
X53359250Y-68710000D01*
X53451333Y-68617917D01*
X53474494Y-68605537D01*
X53571185Y-68526185D01*
X53645000Y-68436241D01*
X53718815Y-68526185D01*
X53815506Y-68605537D01*
X53838667Y-68617917D01*
X53930750Y-68710000D01*
X54044337Y-68700454D01*
X54045518Y-68700812D01*
X54170000Y-68713072D01*
X54720000Y-68713072D01*
X54844482Y-68700812D01*
X54845000Y-68700655D01*
X54845518Y-68700812D01*
X54970000Y-68713072D01*
X55520000Y-68713072D01*
X55644482Y-68700812D01*
X55645000Y-68700655D01*
X55645518Y-68700812D01*
X55770000Y-68713072D01*
X56320000Y-68713072D01*
X56444482Y-68700812D01*
X56445000Y-68700655D01*
X56445518Y-68700812D01*
X56570000Y-68713072D01*
X57120000Y-68713072D01*
X57244482Y-68700812D01*
X57245000Y-68700655D01*
X57245518Y-68700812D01*
X57370000Y-68713072D01*
X57920000Y-68713072D01*
X58044482Y-68700812D01*
X58045000Y-68700655D01*
X58045518Y-68700812D01*
X58170000Y-68713072D01*
X58720000Y-68713072D01*
X58844482Y-68700812D01*
X58845000Y-68700655D01*
X58845518Y-68700812D01*
X58970000Y-68713072D01*
X59520000Y-68713072D01*
X59562552Y-68708881D01*
X59560000Y-68739250D01*
X59718750Y-68898000D01*
X60818000Y-68898000D01*
X60818000Y-68273750D01*
X61072000Y-68273750D01*
X61072000Y-68898000D01*
X62171250Y-68898000D01*
X62330000Y-68739250D01*
X62320177Y-68622369D01*
X62313423Y-68600500D01*
X64574928Y-68600500D01*
X64578000Y-68802250D01*
X64736750Y-68961000D01*
X65786000Y-68961000D01*
X65786000Y-68124250D01*
X66040000Y-68124250D01*
X66040000Y-68961000D01*
X67089250Y-68961000D01*
X67248000Y-68802250D01*
X67251072Y-68600500D01*
X67238812Y-68476018D01*
X67202502Y-68356320D01*
X67143537Y-68246006D01*
X67064185Y-68149315D01*
X66967494Y-68069963D01*
X66857180Y-68010998D01*
X66737482Y-67974688D01*
X66613000Y-67962428D01*
X66198750Y-67965500D01*
X66040000Y-68124250D01*
X65786000Y-68124250D01*
X65627250Y-67965500D01*
X65213000Y-67962428D01*
X65088518Y-67974688D01*
X64968820Y-68010998D01*
X64858506Y-68069963D01*
X64761815Y-68149315D01*
X64682463Y-68246006D01*
X64623498Y-68356320D01*
X64587188Y-68476018D01*
X64574928Y-68600500D01*
X62313423Y-68600500D01*
X62283265Y-68502855D01*
X62223746Y-68392839D01*
X62143908Y-68296549D01*
X62046818Y-68217684D01*
X61936208Y-68159276D01*
X61816329Y-68123570D01*
X61691787Y-68111936D01*
X61230750Y-68115000D01*
X61072000Y-68273750D01*
X60818000Y-68273750D01*
X60659250Y-68115000D01*
X60198213Y-68111936D01*
X60154028Y-68116064D01*
X60158072Y-68075000D01*
X60158072Y-66575000D01*
X60145812Y-66450518D01*
X60109502Y-66330820D01*
X60050537Y-66220506D01*
X59971185Y-66123815D01*
X59874494Y-66044463D01*
X59764180Y-65985498D01*
X59644482Y-65949188D01*
X59520000Y-65936928D01*
X58970000Y-65936928D01*
X58845518Y-65949188D01*
X58845000Y-65949345D01*
X58844482Y-65949188D01*
X58720000Y-65936928D01*
X58170000Y-65936928D01*
X58045518Y-65949188D01*
X58045000Y-65949345D01*
X58044482Y-65949188D01*
X57920000Y-65936928D01*
X57370000Y-65936928D01*
X57245518Y-65949188D01*
X57245000Y-65949345D01*
X57244482Y-65949188D01*
X57120000Y-65936928D01*
X56570000Y-65936928D01*
X56445518Y-65949188D01*
X56445000Y-65949345D01*
X56444482Y-65949188D01*
X56320000Y-65936928D01*
X56007000Y-65936928D01*
X56007000Y-64124630D01*
X56560351Y-63571280D01*
X56589422Y-63547422D01*
X56684645Y-63431392D01*
X56706731Y-63390072D01*
X56748000Y-63390072D01*
X56872482Y-63377812D01*
X56992180Y-63341502D01*
X57102494Y-63282537D01*
X57199185Y-63203185D01*
X57278537Y-63106494D01*
X57337502Y-62996180D01*
X57338770Y-62992000D01*
X57761797Y-62992000D01*
X57848208Y-63097292D01*
X57981836Y-63206958D01*
X58134291Y-63288447D01*
X58299715Y-63338628D01*
X58471750Y-63355572D01*
X59384250Y-63355572D01*
X59427847Y-63351278D01*
X75960000Y-63351278D01*
X75960000Y-63648722D01*
X76018029Y-63940451D01*
X76131856Y-64215253D01*
X76297107Y-64462569D01*
X76507431Y-64672893D01*
X76754747Y-64838144D01*
X77029549Y-64951971D01*
X77321278Y-65010000D01*
X77618722Y-65010000D01*
X77910451Y-64951971D01*
X78185253Y-64838144D01*
X78432569Y-64672893D01*
X78642893Y-64462569D01*
X78808144Y-64215253D01*
X78921971Y-63940451D01*
X78980000Y-63648722D01*
X78980000Y-63351278D01*
X78921971Y-63059549D01*
X78808144Y-62784747D01*
X78766814Y-62722892D01*
X78835626Y-62725927D01*
X79178304Y-62673339D01*
X79504139Y-62554909D01*
X79800607Y-62375187D01*
X79992243Y-62199742D01*
X81328200Y-60710816D01*
X81417081Y-60621935D01*
X81491827Y-60510070D01*
X81571444Y-60401587D01*
X81587979Y-60366169D01*
X81609692Y-60333673D01*
X81661175Y-60209382D01*
X81718101Y-60087445D01*
X81727410Y-60049476D01*
X81742364Y-60013373D01*
X81768610Y-59881426D01*
X81800653Y-59750727D01*
X81802375Y-59711677D01*
X81810000Y-59673345D01*
X81810000Y-59538802D01*
X81815929Y-59404374D01*
X81810000Y-59365739D01*
X81810000Y-59326655D01*
X81783751Y-59194691D01*
X81763341Y-59061696D01*
X81749989Y-59024961D01*
X81742364Y-58986627D01*
X81733471Y-58965157D01*
X83288223Y-58965157D01*
X83295840Y-59224862D01*
X83373413Y-59562761D01*
X83515419Y-59879034D01*
X83716396Y-60161526D01*
X83968624Y-60399381D01*
X84262408Y-60583459D01*
X84586459Y-60706684D01*
X84928323Y-60764324D01*
X85274862Y-60754160D01*
X85612761Y-60676587D01*
X85637741Y-60665371D01*
X87069942Y-62097572D01*
X86914747Y-62161856D01*
X86667431Y-62327107D01*
X86457107Y-62537431D01*
X86291856Y-62784747D01*
X86178029Y-63059549D01*
X86120000Y-63351278D01*
X86120000Y-63648722D01*
X86178029Y-63940451D01*
X86291856Y-64215253D01*
X86457107Y-64462569D01*
X86667431Y-64672893D01*
X86914747Y-64838144D01*
X87189549Y-64951971D01*
X87481278Y-65010000D01*
X87778722Y-65010000D01*
X88070451Y-64951971D01*
X88345253Y-64838144D01*
X88592569Y-64672893D01*
X88802893Y-64462569D01*
X88968144Y-64215253D01*
X89081971Y-63940451D01*
X89140000Y-63648722D01*
X89140000Y-63351278D01*
X89081971Y-63059549D01*
X88968144Y-62784747D01*
X88852718Y-62612000D01*
X89334249Y-62612000D01*
X89356963Y-62654494D01*
X89436315Y-62751185D01*
X89533006Y-62830537D01*
X89643320Y-62889502D01*
X89763018Y-62925812D01*
X89887500Y-62938072D01*
X91087500Y-62938072D01*
X91211982Y-62925812D01*
X91331680Y-62889502D01*
X91441994Y-62830537D01*
X91538685Y-62751185D01*
X91618037Y-62654494D01*
X91677002Y-62544180D01*
X91713312Y-62424482D01*
X91725572Y-62300000D01*
X91725572Y-61400000D01*
X91713312Y-61275518D01*
X91677002Y-61155820D01*
X91618037Y-61045506D01*
X91538685Y-60948815D01*
X91441994Y-60869463D01*
X91331680Y-60810498D01*
X91211982Y-60774188D01*
X91087500Y-60761928D01*
X89887500Y-60761928D01*
X89763018Y-60774188D01*
X89643320Y-60810498D01*
X89533006Y-60869463D01*
X89436315Y-60948815D01*
X89356963Y-61045506D01*
X89334249Y-61088000D01*
X88215630Y-61088000D01*
X86711085Y-59583455D01*
X86756684Y-59463541D01*
X86799881Y-59207339D01*
X86838099Y-58653175D01*
X86850000Y-58593345D01*
X86850000Y-58480611D01*
X86851777Y-58454844D01*
X86850000Y-58394256D01*
X86850000Y-58246655D01*
X86844922Y-58221128D01*
X86844160Y-58195137D01*
X86811159Y-58051387D01*
X86782364Y-57906627D01*
X86772407Y-57882588D01*
X86766587Y-57857238D01*
X86706177Y-57722694D01*
X86649692Y-57586327D01*
X86635230Y-57564683D01*
X86624581Y-57540966D01*
X86539096Y-57420809D01*
X86457081Y-57298065D01*
X86438678Y-57279662D01*
X86423604Y-57258474D01*
X86316311Y-57157295D01*
X86211935Y-57052919D01*
X86190294Y-57038459D01*
X86171376Y-57020619D01*
X86046407Y-56942316D01*
X85923673Y-56860308D01*
X85899628Y-56850348D01*
X85877592Y-56836541D01*
X85739740Y-56784121D01*
X85603373Y-56727636D01*
X85577846Y-56722558D01*
X85553541Y-56713316D01*
X85408108Y-56688795D01*
X85263345Y-56660000D01*
X85237323Y-56660000D01*
X85211677Y-56655676D01*
X85064237Y-56660000D01*
X84916655Y-56660000D01*
X84891133Y-56665077D01*
X84865138Y-56665839D01*
X84721375Y-56698844D01*
X84576627Y-56727636D01*
X84552587Y-56737594D01*
X84527239Y-56743413D01*
X84392689Y-56803825D01*
X84256327Y-56860308D01*
X84234687Y-56874767D01*
X84210966Y-56885418D01*
X84090796Y-56970913D01*
X83968065Y-57052919D01*
X83949662Y-57071322D01*
X83928474Y-57086396D01*
X83827288Y-57193696D01*
X83722919Y-57298065D01*
X83708461Y-57319703D01*
X83690619Y-57338623D01*
X83612310Y-57463602D01*
X83530308Y-57586327D01*
X83520348Y-57610372D01*
X83506541Y-57632408D01*
X83454119Y-57770264D01*
X83397636Y-57906627D01*
X83392559Y-57932152D01*
X83383316Y-57956458D01*
X83358794Y-58101898D01*
X83330000Y-58246655D01*
X83330000Y-58359386D01*
X83288223Y-58965157D01*
X81733471Y-58965157D01*
X81690874Y-58862320D01*
X81644911Y-58735861D01*
X81624650Y-58702438D01*
X81609692Y-58666327D01*
X81534935Y-58554446D01*
X81465189Y-58439393D01*
X81438798Y-58410566D01*
X81417081Y-58378065D01*
X81321934Y-58282918D01*
X81231083Y-58183683D01*
X81199575Y-58160559D01*
X81171935Y-58132919D01*
X81060050Y-58058159D01*
X80951588Y-57978558D01*
X80916176Y-57962026D01*
X80883673Y-57940308D01*
X80759353Y-57888813D01*
X80637446Y-57831901D01*
X80599486Y-57822595D01*
X80563373Y-57807636D01*
X80431388Y-57781382D01*
X80300728Y-57749349D01*
X80261689Y-57747627D01*
X80223345Y-57740000D01*
X80088758Y-57740000D01*
X79954375Y-57734073D01*
X79915753Y-57740000D01*
X79876655Y-57740000D01*
X79744644Y-57766259D01*
X79611697Y-57786661D01*
X79574976Y-57800008D01*
X79536627Y-57807636D01*
X79412269Y-57859147D01*
X79285863Y-57905091D01*
X79252454Y-57925344D01*
X79216327Y-57940308D01*
X79104400Y-58015095D01*
X78989394Y-58084813D01*
X78960578Y-58111195D01*
X78928065Y-58132919D01*
X78832887Y-58228097D01*
X78797758Y-58260258D01*
X78771837Y-58289147D01*
X78682919Y-58378065D01*
X78656273Y-58417943D01*
X77372284Y-59848953D01*
X77218558Y-60058414D01*
X77071901Y-60372556D01*
X76989349Y-60709274D01*
X76974073Y-61055626D01*
X77026661Y-61398304D01*
X77145091Y-61724139D01*
X77307875Y-61992666D01*
X77029549Y-62048029D01*
X76754747Y-62161856D01*
X76507431Y-62327107D01*
X76297107Y-62537431D01*
X76131856Y-62784747D01*
X76018029Y-63059549D01*
X75960000Y-63351278D01*
X59427847Y-63351278D01*
X59556285Y-63338628D01*
X59721709Y-63288447D01*
X59874164Y-63206958D01*
X60007792Y-63097292D01*
X60117458Y-62963664D01*
X60198947Y-62811209D01*
X60249128Y-62645785D01*
X60266072Y-62473750D01*
X60266072Y-61986250D01*
X60249128Y-61814215D01*
X60198947Y-61648791D01*
X60117458Y-61496336D01*
X60007792Y-61362708D01*
X60001436Y-61357492D01*
X60079185Y-61293685D01*
X60158537Y-61196994D01*
X60217502Y-61086680D01*
X60253812Y-60966982D01*
X60266072Y-60842500D01*
X60263000Y-60640750D01*
X60104250Y-60482000D01*
X59055000Y-60482000D01*
X59055000Y-60502000D01*
X58801000Y-60502000D01*
X58801000Y-60482000D01*
X57751750Y-60482000D01*
X57593000Y-60640750D01*
X57589928Y-60842500D01*
X57602188Y-60966982D01*
X57638498Y-61086680D01*
X57697463Y-61196994D01*
X57776815Y-61293685D01*
X57854564Y-61357492D01*
X57848208Y-61362708D01*
X57761797Y-61468000D01*
X57377799Y-61468000D01*
X57373812Y-61427518D01*
X57337502Y-61307820D01*
X57334391Y-61302000D01*
X57337502Y-61296180D01*
X57373812Y-61176482D01*
X57386072Y-61052000D01*
X57383000Y-60737750D01*
X57224250Y-60579000D01*
X56175000Y-60579000D01*
X56175000Y-60599000D01*
X55921000Y-60599000D01*
X55921000Y-60579000D01*
X55901000Y-60579000D01*
X55901000Y-60325000D01*
X55921000Y-60325000D01*
X55921000Y-59375750D01*
X56175000Y-59375750D01*
X56175000Y-60325000D01*
X57224250Y-60325000D01*
X57383000Y-60166250D01*
X57385920Y-59867500D01*
X57589928Y-59867500D01*
X57593000Y-60069250D01*
X57751750Y-60228000D01*
X58801000Y-60228000D01*
X58801000Y-59391250D01*
X59055000Y-59391250D01*
X59055000Y-60228000D01*
X60104250Y-60228000D01*
X60263000Y-60069250D01*
X60266072Y-59867500D01*
X60253812Y-59743018D01*
X60217502Y-59623320D01*
X60158537Y-59513006D01*
X60079185Y-59416315D01*
X59982494Y-59336963D01*
X59872180Y-59277998D01*
X59752482Y-59241688D01*
X59628000Y-59229428D01*
X59213750Y-59232500D01*
X59055000Y-59391250D01*
X58801000Y-59391250D01*
X58642250Y-59232500D01*
X58228000Y-59229428D01*
X58103518Y-59241688D01*
X57983820Y-59277998D01*
X57873506Y-59336963D01*
X57776815Y-59416315D01*
X57697463Y-59513006D01*
X57638498Y-59623320D01*
X57602188Y-59743018D01*
X57589928Y-59867500D01*
X57385920Y-59867500D01*
X57386072Y-59852000D01*
X57373812Y-59727518D01*
X57337502Y-59607820D01*
X57278537Y-59497506D01*
X57199185Y-59400815D01*
X57102494Y-59321463D01*
X56992180Y-59262498D01*
X56872482Y-59226188D01*
X56748000Y-59213928D01*
X56333750Y-59217000D01*
X56175000Y-59375750D01*
X55921000Y-59375750D01*
X55762250Y-59217000D01*
X55348000Y-59213928D01*
X55223518Y-59226188D01*
X55103820Y-59262498D01*
X54993506Y-59321463D01*
X54948000Y-59358809D01*
X54902494Y-59321463D01*
X54792180Y-59262498D01*
X54672482Y-59226188D01*
X54548000Y-59213928D01*
X53148000Y-59213928D01*
X53023518Y-59226188D01*
X52903820Y-59262498D01*
X52793506Y-59321463D01*
X52696815Y-59400815D01*
X52617463Y-59497506D01*
X52582455Y-59563000D01*
X52220203Y-59563000D01*
X52133792Y-59457708D01*
X52000164Y-59348042D01*
X51847709Y-59266553D01*
X51682285Y-59216372D01*
X51510250Y-59199428D01*
X50597750Y-59199428D01*
X50425715Y-59216372D01*
X50260291Y-59266553D01*
X50107836Y-59348042D01*
X49974208Y-59457708D01*
X49864542Y-59591336D01*
X49783053Y-59743791D01*
X49732872Y-59909215D01*
X49715928Y-60081250D01*
X49715928Y-60568750D01*
X49732872Y-60740785D01*
X49783053Y-60906209D01*
X49864542Y-61058664D01*
X49974208Y-61192292D01*
X49980564Y-61197508D01*
X49902815Y-61261315D01*
X49823463Y-61358006D01*
X49764498Y-61468320D01*
X49728188Y-61588018D01*
X49715928Y-61712500D01*
X49719000Y-61914250D01*
X49877750Y-62073000D01*
X50927000Y-62073000D01*
X50927000Y-62053000D01*
X51181000Y-62053000D01*
X51181000Y-62073000D01*
X51201000Y-62073000D01*
X51201000Y-62327000D01*
X51181000Y-62327000D01*
X51181000Y-63163750D01*
X51339750Y-63322500D01*
X51754000Y-63325572D01*
X51836454Y-63317451D01*
X51909578Y-63406554D01*
X51938654Y-63430416D01*
X53683001Y-65174763D01*
X53683000Y-66167455D01*
X53645000Y-66213759D01*
X53571185Y-66123815D01*
X53474494Y-66044463D01*
X53451333Y-66032083D01*
X53359250Y-65940000D01*
X53245663Y-65949546D01*
X53244482Y-65949188D01*
X53120000Y-65936928D01*
X52800495Y-65936928D01*
X52795974Y-65891022D01*
X52752402Y-65747385D01*
X52681645Y-65615008D01*
X52586422Y-65498978D01*
X52557353Y-65475122D01*
X51898683Y-64816453D01*
X51874822Y-64787378D01*
X51758792Y-64692155D01*
X51626415Y-64621398D01*
X51482778Y-64577826D01*
X51370826Y-64566800D01*
X51370823Y-64566800D01*
X51333400Y-64563114D01*
X51295977Y-64566800D01*
X49454622Y-64566800D01*
X49417199Y-64563114D01*
X49379776Y-64566800D01*
X49379774Y-64566800D01*
X49267822Y-64577826D01*
X49124185Y-64621398D01*
X48991808Y-64692155D01*
X48875778Y-64787378D01*
X48851921Y-64816448D01*
X48205092Y-65463278D01*
X48126285Y-65439372D01*
X47954250Y-65422428D01*
X47450059Y-65422428D01*
X46590084Y-64562454D01*
X46566222Y-64533378D01*
X46450192Y-64438155D01*
X46317815Y-64367398D01*
X46174178Y-64323826D01*
X46062226Y-64312800D01*
X46062223Y-64312800D01*
X46024800Y-64309114D01*
X45987377Y-64312800D01*
X45100911Y-64312800D01*
X45058974Y-64270863D01*
X44889456Y-64157595D01*
X44701098Y-64079574D01*
X44501139Y-64039800D01*
X44297261Y-64039800D01*
X44097302Y-64079574D01*
X43908944Y-64157595D01*
X43739426Y-64270863D01*
X43595263Y-64415026D01*
X43481995Y-64584544D01*
X43403974Y-64772902D01*
X43364200Y-64972861D01*
X43364200Y-65176739D01*
X43403974Y-65376698D01*
X43481995Y-65565056D01*
X43537291Y-65647813D01*
X43497208Y-65680708D01*
X43387542Y-65814336D01*
X43306053Y-65966791D01*
X43255872Y-66132215D01*
X43238928Y-66304250D01*
X43238928Y-66791750D01*
X43255872Y-66963785D01*
X43306053Y-67129209D01*
X43387542Y-67281664D01*
X43497208Y-67415292D01*
X43503564Y-67420508D01*
X43425815Y-67484315D01*
X43346463Y-67581006D01*
X43287498Y-67691320D01*
X43251188Y-67811018D01*
X43238928Y-67935500D01*
X43242000Y-68137250D01*
X43400750Y-68296000D01*
X44450000Y-68296000D01*
X44450000Y-68276000D01*
X44704000Y-68276000D01*
X44704000Y-68296000D01*
X44724000Y-68296000D01*
X44724000Y-68550000D01*
X44704000Y-68550000D01*
X44704000Y-70104000D01*
X44724000Y-70104000D01*
X44724000Y-70358000D01*
X44704000Y-70358000D01*
X44704000Y-70378000D01*
X44450000Y-70378000D01*
X44450000Y-70358000D01*
X43400750Y-70358000D01*
X43242000Y-70516750D01*
X43238928Y-70718500D01*
X43251188Y-70842982D01*
X43287498Y-70962680D01*
X43346463Y-71072994D01*
X43425815Y-71169685D01*
X43503564Y-71233492D01*
X43497208Y-71238708D01*
X43387542Y-71372336D01*
X43336137Y-71468507D01*
X40778130Y-68910500D01*
X43238928Y-68910500D01*
X43251188Y-69034982D01*
X43287498Y-69154680D01*
X43346463Y-69264994D01*
X43397350Y-69327000D01*
X43346463Y-69389006D01*
X43287498Y-69499320D01*
X43251188Y-69619018D01*
X43238928Y-69743500D01*
X43242000Y-69945250D01*
X43400750Y-70104000D01*
X44450000Y-70104000D01*
X44450000Y-68550000D01*
X43400750Y-68550000D01*
X43242000Y-68708750D01*
X43238928Y-68910500D01*
X40778130Y-68910500D01*
X40443284Y-68575654D01*
X40419422Y-68546578D01*
X40303392Y-68451355D01*
X40171015Y-68380598D01*
X40027378Y-68337026D01*
X39915426Y-68326000D01*
X39915423Y-68326000D01*
X39899593Y-68324441D01*
X39890447Y-68294291D01*
X39808958Y-68141836D01*
X39699292Y-68008208D01*
X39565664Y-67898542D01*
X39413209Y-67817053D01*
X39247785Y-67766872D01*
X39075750Y-67749928D01*
X38588250Y-67749928D01*
X38416215Y-67766872D01*
X38250791Y-67817053D01*
X38098336Y-67898542D01*
X37964708Y-68008208D01*
X37894500Y-68093756D01*
X37824292Y-68008208D01*
X37690664Y-67898542D01*
X37538209Y-67817053D01*
X37372785Y-67766872D01*
X37200750Y-67749928D01*
X36957000Y-67749928D01*
X36957000Y-62687500D01*
X49715928Y-62687500D01*
X49728188Y-62811982D01*
X49764498Y-62931680D01*
X49823463Y-63041994D01*
X49902815Y-63138685D01*
X49999506Y-63218037D01*
X50109820Y-63277002D01*
X50229518Y-63313312D01*
X50354000Y-63325572D01*
X50768250Y-63322500D01*
X50927000Y-63163750D01*
X50927000Y-62327000D01*
X49877750Y-62327000D01*
X49719000Y-62485750D01*
X49715928Y-62687500D01*
X36957000Y-62687500D01*
X36957000Y-62016072D01*
X37245000Y-62016072D01*
X37369482Y-62003812D01*
X37394266Y-61996294D01*
X37413639Y-62002404D01*
X37513250Y-62013000D01*
X37672000Y-61854250D01*
X37672000Y-61849033D01*
X37696185Y-61829185D01*
X37775537Y-61732494D01*
X37834502Y-61622180D01*
X37870812Y-61502482D01*
X37883072Y-61378000D01*
X37883072Y-59128000D01*
X37870812Y-59003518D01*
X37834502Y-58883820D01*
X37775537Y-58773506D01*
X37696185Y-58676815D01*
X37672000Y-58656967D01*
X37672000Y-58651750D01*
X37918000Y-58651750D01*
X37918000Y-60126000D01*
X37942000Y-60126000D01*
X37942000Y-60380000D01*
X37918000Y-60380000D01*
X37918000Y-61854250D01*
X38076750Y-62013000D01*
X38176361Y-62002404D01*
X38295652Y-61964779D01*
X38405311Y-61904604D01*
X38501123Y-61824193D01*
X38579406Y-61726634D01*
X38635123Y-61619578D01*
X38789866Y-61808134D01*
X39015986Y-61993706D01*
X39273966Y-62131599D01*
X39553889Y-62216513D01*
X39845000Y-62245185D01*
X40136110Y-62216513D01*
X40416033Y-62131599D01*
X40674013Y-61993706D01*
X40900134Y-61808134D01*
X41085706Y-61582014D01*
X41223599Y-61324034D01*
X41308513Y-61044111D01*
X41330000Y-60825950D01*
X41330000Y-59680050D01*
X41308513Y-59461889D01*
X41223599Y-59181966D01*
X41085706Y-58923986D01*
X40900134Y-58697866D01*
X40674014Y-58512294D01*
X40416034Y-58374401D01*
X40136111Y-58289487D01*
X39845000Y-58260815D01*
X39553890Y-58289487D01*
X39273967Y-58374401D01*
X39015987Y-58512294D01*
X38789867Y-58697866D01*
X38635123Y-58886421D01*
X38579406Y-58779366D01*
X38501123Y-58681807D01*
X38405311Y-58601396D01*
X38295652Y-58541221D01*
X38176361Y-58503596D01*
X38076750Y-58493000D01*
X37918000Y-58651750D01*
X37672000Y-58651750D01*
X37513250Y-58493000D01*
X37413639Y-58503596D01*
X37394266Y-58509706D01*
X37369482Y-58502188D01*
X37245000Y-58489928D01*
X36745000Y-58489928D01*
X36620518Y-58502188D01*
X36595000Y-58509929D01*
X36569482Y-58502188D01*
X36445000Y-58489928D01*
X35945000Y-58489928D01*
X35820518Y-58502188D01*
X35795000Y-58509929D01*
X35769482Y-58502188D01*
X35645000Y-58489928D01*
X35145000Y-58489928D01*
X35020518Y-58502188D01*
X34995000Y-58509929D01*
X34969482Y-58502188D01*
X34845000Y-58489928D01*
X34345000Y-58489928D01*
X34220518Y-58502188D01*
X34100820Y-58538498D01*
X33990506Y-58597463D01*
X33893815Y-58676815D01*
X33814463Y-58773506D01*
X33755498Y-58883820D01*
X33754754Y-58886271D01*
X33600134Y-58697866D01*
X33374014Y-58512294D01*
X33116034Y-58374401D01*
X32836111Y-58289487D01*
X32545000Y-58260815D01*
X32253890Y-58289487D01*
X31973967Y-58374401D01*
X31715987Y-58512294D01*
X31489867Y-58697866D01*
X31304294Y-58923986D01*
X31166401Y-59181966D01*
X31081487Y-59461889D01*
X31060000Y-59680050D01*
X31060000Y-60825949D01*
X31081487Y-61044110D01*
X31166401Y-61324033D01*
X31304294Y-61582013D01*
X31489866Y-61808134D01*
X31715986Y-61993706D01*
X31973966Y-62131599D01*
X32253889Y-62216513D01*
X32545000Y-62245185D01*
X32836110Y-62216513D01*
X33116033Y-62131599D01*
X33374013Y-61993706D01*
X33600134Y-61808134D01*
X33754754Y-61619729D01*
X33755498Y-61622180D01*
X33769500Y-61648376D01*
X33769501Y-66599566D01*
X33376568Y-66992500D01*
X32171539Y-66992500D01*
X32130999Y-66988507D01*
X32090459Y-66992500D01*
X32090447Y-66992500D01*
X31969174Y-67004444D01*
X31813566Y-67051647D01*
X31716881Y-67103327D01*
X31670156Y-67128302D01*
X31638311Y-67154437D01*
X31544459Y-67231459D01*
X31518602Y-67262966D01*
X31067966Y-67713602D01*
X31036459Y-67739459D01*
X30968246Y-67822578D01*
X30933301Y-67865158D01*
X30872009Y-67979827D01*
X30856647Y-68008567D01*
X30809444Y-68164175D01*
X30797500Y-68285447D01*
X30793506Y-68326000D01*
X30797500Y-68366551D01*
X30797501Y-71755440D01*
X30793506Y-71796000D01*
X30809445Y-71957826D01*
X30856647Y-72113433D01*
X30933301Y-72256842D01*
X30947404Y-72274026D01*
X31036460Y-72382541D01*
X31067961Y-72408393D01*
X34021269Y-75361702D01*
X33907538Y-75455038D01*
X33797095Y-75589614D01*
X33715028Y-75743150D01*
X33664492Y-75909746D01*
X33647428Y-76083000D01*
X33647428Y-77333000D01*
X33664492Y-77506254D01*
X33715028Y-77672850D01*
X33797095Y-77826386D01*
X33907538Y-77960962D01*
X34042114Y-78071405D01*
X34195650Y-78153472D01*
X34362246Y-78204008D01*
X34535500Y-78221072D01*
X35460500Y-78221072D01*
X35633754Y-78204008D01*
X35800350Y-78153472D01*
X35953886Y-78071405D01*
X36088462Y-77960962D01*
X36198905Y-77826386D01*
X36280972Y-77672850D01*
X36331508Y-77506254D01*
X36348572Y-77333000D01*
X36348572Y-76083000D01*
X36331508Y-75909746D01*
X36280972Y-75743150D01*
X36198905Y-75589614D01*
X36088462Y-75455038D01*
X35953886Y-75344595D01*
X35823500Y-75274902D01*
X35823500Y-75211550D01*
X35827494Y-75171000D01*
X35823397Y-75129402D01*
X35811556Y-75009174D01*
X35764353Y-74853566D01*
X35702620Y-74738072D01*
X35687699Y-74710157D01*
X35610392Y-74615958D01*
X35610389Y-74615955D01*
X35584541Y-74584459D01*
X35553046Y-74558612D01*
X32448500Y-71454068D01*
X32448500Y-70415853D01*
X32552250Y-70426072D01*
X33039750Y-70426072D01*
X33054945Y-70424575D01*
X33373720Y-70743351D01*
X33397578Y-70772422D01*
X33513608Y-70867645D01*
X33645985Y-70938402D01*
X33789622Y-70981974D01*
X33901574Y-70993000D01*
X33901576Y-70993000D01*
X33938999Y-70996686D01*
X33976422Y-70993000D01*
X39435370Y-70993000D01*
X43719476Y-75277107D01*
X43705744Y-75282795D01*
X43536226Y-75396063D01*
X43392063Y-75540226D01*
X43278795Y-75709744D01*
X43200774Y-75898102D01*
X43161000Y-76098061D01*
X43161000Y-76153470D01*
X43160496Y-76152966D01*
X43134639Y-76121459D01*
X43008940Y-76018301D01*
X42865532Y-75941647D01*
X42709924Y-75894444D01*
X42588651Y-75882500D01*
X42588648Y-75882500D01*
X42548098Y-75878506D01*
X42507548Y-75882500D01*
X39298243Y-75882500D01*
X39255972Y-75743150D01*
X39173905Y-75589614D01*
X39063462Y-75455038D01*
X38928886Y-75344595D01*
X38775350Y-75262528D01*
X38608754Y-75211992D01*
X38435500Y-75194928D01*
X37510500Y-75194928D01*
X37337246Y-75211992D01*
X37170650Y-75262528D01*
X37017114Y-75344595D01*
X36882538Y-75455038D01*
X36772095Y-75589614D01*
X36690028Y-75743150D01*
X36639492Y-75909746D01*
X36622428Y-76083000D01*
X36622428Y-77333000D01*
X36639492Y-77506254D01*
X36690028Y-77672850D01*
X36772095Y-77826386D01*
X36882538Y-77960962D01*
X37017114Y-78071405D01*
X37170650Y-78153472D01*
X37337246Y-78204008D01*
X37510500Y-78221072D01*
X38435500Y-78221072D01*
X38608754Y-78204008D01*
X38775350Y-78153472D01*
X38928886Y-78071405D01*
X39063462Y-77960962D01*
X39173905Y-77826386D01*
X39255972Y-77672850D01*
X39298243Y-77533500D01*
X42206166Y-77533500D01*
X47122592Y-82449928D01*
X47031000Y-82449928D01*
X46906518Y-82462188D01*
X46786820Y-82498498D01*
X46676506Y-82557463D01*
X46579815Y-82636815D01*
X46500463Y-82733506D01*
X46441498Y-82843820D01*
X46405188Y-82963518D01*
X46392928Y-83088000D01*
X46392928Y-84188000D01*
X46405188Y-84312482D01*
X46441498Y-84432180D01*
X46500463Y-84542494D01*
X46579815Y-84639185D01*
X46676506Y-84718537D01*
X46786820Y-84777502D01*
X46906518Y-84813812D01*
X47031000Y-84826072D01*
X48831000Y-84826072D01*
X48955482Y-84813812D01*
X49075180Y-84777502D01*
X49185494Y-84718537D01*
X49282185Y-84639185D01*
X49361537Y-84542494D01*
X49420502Y-84432180D01*
X49456812Y-84312482D01*
X49469072Y-84188000D01*
X49469072Y-83148505D01*
X50055428Y-83734861D01*
X50055428Y-84149250D01*
X50072372Y-84321285D01*
X50122553Y-84486709D01*
X50204042Y-84639164D01*
X50313708Y-84772792D01*
X50447336Y-84882458D01*
X50599791Y-84963947D01*
X50765215Y-85014128D01*
X50937250Y-85031072D01*
X51424750Y-85031072D01*
X51596785Y-85014128D01*
X51762209Y-84963947D01*
X51914664Y-84882458D01*
X52048292Y-84772792D01*
X52053508Y-84766436D01*
X52117315Y-84844185D01*
X52214006Y-84923537D01*
X52324320Y-84982502D01*
X52444018Y-85018812D01*
X52568500Y-85031072D01*
X52770250Y-85028000D01*
X52929000Y-84869250D01*
X52929000Y-83820000D01*
X53183000Y-83820000D01*
X53183000Y-84869250D01*
X53341750Y-85028000D01*
X53543500Y-85031072D01*
X53667982Y-85018812D01*
X53787680Y-84982502D01*
X53897994Y-84923537D01*
X53994685Y-84844185D01*
X54074037Y-84747494D01*
X54133002Y-84637180D01*
X54169312Y-84517482D01*
X54181572Y-84393000D01*
X56659428Y-84393000D01*
X56671688Y-84517482D01*
X56707998Y-84637180D01*
X56766963Y-84747494D01*
X56846315Y-84844185D01*
X56943006Y-84923537D01*
X57053320Y-84982502D01*
X57173018Y-85018812D01*
X57297500Y-85031072D01*
X57499250Y-85028000D01*
X57658000Y-84869250D01*
X57658000Y-83820000D01*
X56821250Y-83820000D01*
X56662500Y-83978750D01*
X56659428Y-84393000D01*
X54181572Y-84393000D01*
X54178500Y-83978750D01*
X54019750Y-83820000D01*
X53183000Y-83820000D01*
X52929000Y-83820000D01*
X52909000Y-83820000D01*
X52909000Y-83566000D01*
X52929000Y-83566000D01*
X52929000Y-83546000D01*
X53183000Y-83546000D01*
X53183000Y-83566000D01*
X54019750Y-83566000D01*
X54178500Y-83407250D01*
X54181572Y-82993000D01*
X56659428Y-82993000D01*
X56662500Y-83407250D01*
X56821250Y-83566000D01*
X57658000Y-83566000D01*
X57658000Y-82516750D01*
X57499250Y-82358000D01*
X57297500Y-82354928D01*
X57173018Y-82367188D01*
X57053320Y-82403498D01*
X56943006Y-82462463D01*
X56846315Y-82541815D01*
X56766963Y-82638506D01*
X56707998Y-82748820D01*
X56671688Y-82868518D01*
X56659428Y-82993000D01*
X54181572Y-82993000D01*
X54169312Y-82868518D01*
X54133002Y-82748820D01*
X54074037Y-82638506D01*
X54053515Y-82613500D01*
X55379497Y-82613500D01*
X55516744Y-82705205D01*
X55705102Y-82783226D01*
X55905061Y-82823000D01*
X56108939Y-82823000D01*
X56308898Y-82783226D01*
X56497256Y-82705205D01*
X56666774Y-82591937D01*
X56810937Y-82447774D01*
X56924205Y-82278256D01*
X57002226Y-82089898D01*
X57042000Y-81889939D01*
X57042000Y-81686061D01*
X57002226Y-81486102D01*
X56924205Y-81297744D01*
X56810937Y-81128226D01*
X56666774Y-80984063D01*
X56497256Y-80870795D01*
X56308898Y-80792774D01*
X56108939Y-80753000D01*
X55905061Y-80753000D01*
X55705102Y-80792774D01*
X55516744Y-80870795D01*
X55379497Y-80962500D01*
X53126550Y-80962500D01*
X53086000Y-80958506D01*
X53045449Y-80962500D01*
X53045447Y-80962500D01*
X52924174Y-80974444D01*
X52778818Y-81018537D01*
X52768566Y-81021647D01*
X52625157Y-81098301D01*
X52530958Y-81175608D01*
X52530955Y-81175611D01*
X52499459Y-81201459D01*
X52473611Y-81232955D01*
X51943000Y-81763567D01*
X51943000Y-79949316D01*
X51971185Y-79926185D01*
X52045000Y-79836241D01*
X52118815Y-79926185D01*
X52215506Y-80005537D01*
X52238667Y-80017917D01*
X52330750Y-80110000D01*
X52444337Y-80100454D01*
X52445518Y-80100812D01*
X52570000Y-80113072D01*
X53120000Y-80113072D01*
X53244482Y-80100812D01*
X53245000Y-80100655D01*
X53245518Y-80100812D01*
X53370000Y-80113072D01*
X53920000Y-80113072D01*
X54044482Y-80100812D01*
X54045000Y-80100655D01*
X54045518Y-80100812D01*
X54170000Y-80113072D01*
X54720000Y-80113072D01*
X54844482Y-80100812D01*
X54845000Y-80100655D01*
X54845518Y-80100812D01*
X54970000Y-80113072D01*
X55520000Y-80113072D01*
X55644482Y-80100812D01*
X55645000Y-80100655D01*
X55645518Y-80100812D01*
X55770000Y-80113072D01*
X56320000Y-80113072D01*
X56444482Y-80100812D01*
X56445000Y-80100655D01*
X56445518Y-80100812D01*
X56570000Y-80113072D01*
X57120000Y-80113072D01*
X57244482Y-80100812D01*
X57245000Y-80100655D01*
X57245518Y-80100812D01*
X57370000Y-80113072D01*
X57920000Y-80113072D01*
X58044482Y-80100812D01*
X58045663Y-80100454D01*
X58159250Y-80110000D01*
X58251333Y-80017917D01*
X58274494Y-80005537D01*
X58371185Y-79926185D01*
X58445000Y-79836241D01*
X58518815Y-79926185D01*
X58615506Y-80005537D01*
X58638667Y-80017917D01*
X58730750Y-80110000D01*
X58844337Y-80100454D01*
X58845518Y-80100812D01*
X58898001Y-80105981D01*
X58898000Y-82526797D01*
X58792708Y-82613208D01*
X58787492Y-82619564D01*
X58723685Y-82541815D01*
X58626994Y-82462463D01*
X58516680Y-82403498D01*
X58396982Y-82367188D01*
X58272500Y-82354928D01*
X58070750Y-82358000D01*
X57912000Y-82516750D01*
X57912000Y-83566000D01*
X57932000Y-83566000D01*
X57932000Y-83820000D01*
X57912000Y-83820000D01*
X57912000Y-84869250D01*
X58070750Y-85028000D01*
X58272500Y-85031072D01*
X58396982Y-85018812D01*
X58516680Y-84982502D01*
X58626994Y-84923537D01*
X58723685Y-84844185D01*
X58787492Y-84766436D01*
X58792708Y-84772792D01*
X58926336Y-84882458D01*
X59078791Y-84963947D01*
X59244215Y-85014128D01*
X59416250Y-85031072D01*
X59903750Y-85031072D01*
X60075785Y-85014128D01*
X60241209Y-84963947D01*
X60393664Y-84882458D01*
X60527292Y-84772792D01*
X60636958Y-84639164D01*
X60718447Y-84486709D01*
X60768628Y-84321285D01*
X60785572Y-84149250D01*
X60785572Y-83734861D01*
X61017933Y-83502500D01*
X62237497Y-83502500D01*
X62374744Y-83594205D01*
X62563102Y-83672226D01*
X62763061Y-83712000D01*
X62966939Y-83712000D01*
X63166898Y-83672226D01*
X63355256Y-83594205D01*
X63492503Y-83502500D01*
X70444450Y-83502500D01*
X70485000Y-83506494D01*
X70525550Y-83502500D01*
X70525553Y-83502500D01*
X70646826Y-83490556D01*
X70802434Y-83443353D01*
X70945842Y-83366699D01*
X71071541Y-83263541D01*
X71097398Y-83232034D01*
X72691046Y-81638388D01*
X72722541Y-81612541D01*
X72748389Y-81581045D01*
X72748392Y-81581042D01*
X72825699Y-81486843D01*
X72902353Y-81343434D01*
X72916213Y-81297744D01*
X72949556Y-81187826D01*
X72961500Y-81066553D01*
X72961500Y-81066551D01*
X72965494Y-81026000D01*
X72961500Y-80985450D01*
X72961500Y-76319503D01*
X72983063Y-76351774D01*
X73025001Y-76393712D01*
X73025000Y-83782577D01*
X73021314Y-83820000D01*
X73025000Y-83857423D01*
X73025000Y-83857425D01*
X73036026Y-83969377D01*
X73079598Y-84113014D01*
X73101421Y-84153842D01*
X73150355Y-84245392D01*
X73168380Y-84267355D01*
X73245578Y-84361422D01*
X73274654Y-84385284D01*
X74305716Y-85416346D01*
X74329578Y-85445422D01*
X74403219Y-85505857D01*
X74445607Y-85540645D01*
X74516364Y-85578465D01*
X74577985Y-85611402D01*
X74721622Y-85654974D01*
X74833574Y-85666000D01*
X74833577Y-85666000D01*
X74871000Y-85669686D01*
X74908423Y-85666000D01*
X89596077Y-85666000D01*
X89633500Y-85669686D01*
X89670923Y-85666000D01*
X89670926Y-85666000D01*
X89782878Y-85654974D01*
X89926515Y-85611402D01*
X90058892Y-85540645D01*
X90174922Y-85445422D01*
X90198783Y-85416347D01*
X90327058Y-85288072D01*
X91087500Y-85288072D01*
X91211982Y-85275812D01*
X91331680Y-85239502D01*
X91441994Y-85180537D01*
X91538685Y-85101185D01*
X91618037Y-85004494D01*
X91640751Y-84962000D01*
X97346370Y-84962000D01*
X98748721Y-86364352D01*
X98772578Y-86393422D01*
X98801648Y-86417279D01*
X98888607Y-86488645D01*
X98959364Y-86526465D01*
X99020985Y-86559402D01*
X99124218Y-86590718D01*
X99096908Y-86618028D01*
X98923176Y-86878037D01*
X98803507Y-87166943D01*
X98742500Y-87473645D01*
X98742500Y-87786355D01*
X98803507Y-88093057D01*
X98923176Y-88381963D01*
X99096908Y-88641972D01*
X99318028Y-88863092D01*
X99578037Y-89036824D01*
X99866943Y-89156493D01*
X100173645Y-89217500D01*
X100486355Y-89217500D01*
X100793057Y-89156493D01*
X101081963Y-89036824D01*
X101341972Y-88863092D01*
X101345549Y-88859515D01*
X101386963Y-88936994D01*
X101466315Y-89033685D01*
X101563006Y-89113037D01*
X101673320Y-89172002D01*
X101793018Y-89208312D01*
X101917500Y-89220572D01*
X103822500Y-89220572D01*
X103946982Y-89208312D01*
X104066680Y-89172002D01*
X104176994Y-89113037D01*
X104273685Y-89033685D01*
X104353037Y-88936994D01*
X104412002Y-88826680D01*
X104448312Y-88706982D01*
X104460572Y-88582500D01*
X104460572Y-86677500D01*
X104454318Y-86614000D01*
X108552077Y-86614000D01*
X108589500Y-86617686D01*
X108626923Y-86614000D01*
X108626926Y-86614000D01*
X108738878Y-86602974D01*
X108882515Y-86559402D01*
X109014892Y-86488645D01*
X109130922Y-86393422D01*
X109154784Y-86364346D01*
X110049853Y-85469278D01*
X110078922Y-85445422D01*
X110174145Y-85329392D01*
X110199495Y-85281966D01*
X110261982Y-85275812D01*
X110381680Y-85239502D01*
X110465001Y-85194965D01*
X110465001Y-89502711D01*
X110426091Y-89899545D01*
X110320220Y-90250206D01*
X110148257Y-90573623D01*
X109916748Y-90857482D01*
X109634514Y-91090965D01*
X109312304Y-91265184D01*
X108962385Y-91373502D01*
X108567557Y-91415000D01*
X30258279Y-91415000D01*
X29861455Y-91376091D01*
X29510794Y-91270220D01*
X29187377Y-91098257D01*
X28903518Y-90866748D01*
X28670035Y-90584514D01*
X28495816Y-90262304D01*
X28387498Y-89912385D01*
X28346000Y-89517557D01*
X28346000Y-87473645D01*
X79692500Y-87473645D01*
X79692500Y-87786355D01*
X79753507Y-88093057D01*
X79873176Y-88381963D01*
X80046908Y-88641972D01*
X80268028Y-88863092D01*
X80528037Y-89036824D01*
X80816943Y-89156493D01*
X81123645Y-89217500D01*
X81436355Y-89217500D01*
X81743057Y-89156493D01*
X82031963Y-89036824D01*
X82291972Y-88863092D01*
X82295549Y-88859515D01*
X82336963Y-88936994D01*
X82416315Y-89033685D01*
X82513006Y-89113037D01*
X82623320Y-89172002D01*
X82743018Y-89208312D01*
X82867500Y-89220572D01*
X84772500Y-89220572D01*
X84896982Y-89208312D01*
X85016680Y-89172002D01*
X85126994Y-89113037D01*
X85223685Y-89033685D01*
X85303037Y-88936994D01*
X85362002Y-88826680D01*
X85398312Y-88706982D01*
X85410572Y-88582500D01*
X85410572Y-86677500D01*
X85398312Y-86553018D01*
X85362002Y-86433320D01*
X85303037Y-86323006D01*
X85223685Y-86226315D01*
X85126994Y-86146963D01*
X85016680Y-86087998D01*
X84896982Y-86051688D01*
X84772500Y-86039428D01*
X82867500Y-86039428D01*
X82743018Y-86051688D01*
X82623320Y-86087998D01*
X82513006Y-86146963D01*
X82416315Y-86226315D01*
X82336963Y-86323006D01*
X82295549Y-86400485D01*
X82291972Y-86396908D01*
X82031963Y-86223176D01*
X81743057Y-86103507D01*
X81436355Y-86042500D01*
X81123645Y-86042500D01*
X80816943Y-86103507D01*
X80528037Y-86223176D01*
X80268028Y-86396908D01*
X80046908Y-86618028D01*
X79873176Y-86878037D01*
X79753507Y-87166943D01*
X79692500Y-87473645D01*
X28346000Y-87473645D01*
X28346000Y-84188000D01*
X40192928Y-84188000D01*
X40205188Y-84312482D01*
X40241498Y-84432180D01*
X40300463Y-84542494D01*
X40379815Y-84639185D01*
X40476506Y-84718537D01*
X40586820Y-84777502D01*
X40706518Y-84813812D01*
X40831000Y-84826072D01*
X41445250Y-84823000D01*
X41604000Y-84664250D01*
X41604000Y-83765000D01*
X41858000Y-83765000D01*
X41858000Y-84664250D01*
X42016750Y-84823000D01*
X42631000Y-84826072D01*
X42755482Y-84813812D01*
X42875180Y-84777502D01*
X42985494Y-84718537D01*
X43082185Y-84639185D01*
X43161537Y-84542494D01*
X43220502Y-84432180D01*
X43256812Y-84312482D01*
X43269072Y-84188000D01*
X43266000Y-83923750D01*
X43107250Y-83765000D01*
X41858000Y-83765000D01*
X41604000Y-83765000D01*
X40354750Y-83765000D01*
X40196000Y-83923750D01*
X40192928Y-84188000D01*
X28346000Y-84188000D01*
X28346000Y-83088000D01*
X40192928Y-83088000D01*
X40196000Y-83352250D01*
X40354750Y-83511000D01*
X41604000Y-83511000D01*
X41604000Y-82611750D01*
X41858000Y-82611750D01*
X41858000Y-83511000D01*
X43107250Y-83511000D01*
X43266000Y-83352250D01*
X43269072Y-83088000D01*
X43256812Y-82963518D01*
X43220502Y-82843820D01*
X43161537Y-82733506D01*
X43082185Y-82636815D01*
X42985494Y-82557463D01*
X42875180Y-82498498D01*
X42755482Y-82462188D01*
X42631000Y-82449928D01*
X42016750Y-82453000D01*
X41858000Y-82611750D01*
X41604000Y-82611750D01*
X41445250Y-82453000D01*
X40831000Y-82449928D01*
X40706518Y-82462188D01*
X40586820Y-82498498D01*
X40476506Y-82557463D01*
X40379815Y-82636815D01*
X40300463Y-82733506D01*
X40241498Y-82843820D01*
X40205188Y-82963518D01*
X40192928Y-83088000D01*
X28346000Y-83088000D01*
X28346000Y-79388000D01*
X40192928Y-79388000D01*
X40192928Y-80488000D01*
X40205188Y-80612482D01*
X40241498Y-80732180D01*
X40300463Y-80842494D01*
X40379815Y-80939185D01*
X40476506Y-81018537D01*
X40586820Y-81077502D01*
X40706518Y-81113812D01*
X40831000Y-81126072D01*
X42631000Y-81126072D01*
X42755482Y-81113812D01*
X42875180Y-81077502D01*
X42985494Y-81018537D01*
X43082185Y-80939185D01*
X43161537Y-80842494D01*
X43220502Y-80732180D01*
X43256812Y-80612482D01*
X43269072Y-80488000D01*
X43269072Y-79388000D01*
X43256812Y-79263518D01*
X43220502Y-79143820D01*
X43161537Y-79033506D01*
X43082185Y-78936815D01*
X42985494Y-78857463D01*
X42875180Y-78798498D01*
X42755482Y-78762188D01*
X42631000Y-78749928D01*
X40831000Y-78749928D01*
X40706518Y-78762188D01*
X40586820Y-78798498D01*
X40476506Y-78857463D01*
X40379815Y-78936815D01*
X40300463Y-79033506D01*
X40241498Y-79143820D01*
X40205188Y-79263518D01*
X40192928Y-79388000D01*
X28346000Y-79388000D01*
X28346000Y-56547279D01*
X28384909Y-56150455D01*
X28490780Y-55799792D01*
X28662744Y-55476375D01*
X28894254Y-55192516D01*
X29176486Y-54959035D01*
X29498695Y-54784817D01*
X29848614Y-54676498D01*
X30243443Y-54635000D01*
X31191505Y-54635000D01*
X31166401Y-54681966D01*
G36*
X47447786Y-73537351D02*
G01*
X47471644Y-73566422D01*
X47587674Y-73661645D01*
X47720051Y-73732402D01*
X47863688Y-73775974D01*
X47975640Y-73787000D01*
X47975649Y-73787000D01*
X48013065Y-73790685D01*
X48050481Y-73787000D01*
X48387456Y-73787000D01*
X48433759Y-73825000D01*
X48387456Y-73863000D01*
X47158980Y-73863000D01*
X47223226Y-73707898D01*
X47263000Y-73507939D01*
X47263000Y-73352565D01*
X47447786Y-73537351D01*
G37*
X47447786Y-73537351D02*
X47471644Y-73566422D01*
X47587674Y-73661645D01*
X47720051Y-73732402D01*
X47863688Y-73775974D01*
X47975640Y-73787000D01*
X47975649Y-73787000D01*
X48013065Y-73790685D01*
X48050481Y-73787000D01*
X48387456Y-73787000D01*
X48433759Y-73825000D01*
X48387456Y-73863000D01*
X47158980Y-73863000D01*
X47223226Y-73707898D01*
X47263000Y-73507939D01*
X47263000Y-73352565D01*
X47447786Y-73537351D01*
G36*
X53975000Y-62025000D02*
G01*
X53995000Y-62025000D01*
X53995000Y-62279000D01*
X53975000Y-62279000D01*
X53975000Y-62299000D01*
X53721000Y-62299000D01*
X53721000Y-62279000D01*
X53701000Y-62279000D01*
X53701000Y-62025000D01*
X53721000Y-62025000D01*
X53721000Y-62005000D01*
X53975000Y-62005000D01*
X53975000Y-62025000D01*
G37*
X53975000Y-62025000D02*
X53995000Y-62025000D01*
X53995000Y-62279000D01*
X53975000Y-62279000D01*
X53975000Y-62299000D01*
X53721000Y-62299000D01*
X53721000Y-62279000D01*
X53701000Y-62279000D01*
X53701000Y-62025000D01*
X53721000Y-62025000D01*
X53721000Y-62005000D01*
X53975000Y-62005000D01*
X53975000Y-62025000D01*
M02*
