M48
; DRILL file {KiCad 5.1.5} date 2020年05月13日 星期三 22时08分06秒
; FORMAT={-:-/ absolute / inch / decimal}
; #@! TF.CreationDate,2020-05-13T22:08:06+08:00
; #@! TF.GenerationSoftware,Kicad,Pcbnew,5.1.5
; #@! TF.FileFunction,Plated,1,2,PTH
FMAT,2
INCH
T1C0.0157
T2C0.0276
T3C0.0409
T4C0.0579
%
G90
G05
T1
X1.74Y-3.0
X1.748Y-2.562
X1.82Y-2.89
X1.846Y-3.001
X1.8879Y-2.8321
X1.965Y-3.13
X2.205Y-3.22
X2.475Y-3.255
X2.495Y-2.75
X2.66Y-2.845
X2.66Y-2.895
X2.66Y-2.935
X2.665Y-2.98
X2.6814Y-2.795
X2.78Y-2.795
X2.905Y-2.845
X2.905Y-2.895
X2.905Y-2.9344
X2.905Y-2.98
T3
X3.2Y-3.45
X3.3Y-3.45
X3.95Y-3.45
X4.05Y-3.45
X3.95Y-2.7
X4.05Y-2.7
X3.2Y-2.7
X3.3Y-2.7
T4
X3.1Y-3.15
X3.1516Y-3.0925
X3.3484Y-3.0728
X3.35Y-3.05
X3.85Y-3.15
X3.9016Y-3.0925
X4.0984Y-3.0728
X4.1Y-3.05
X3.85Y-2.4
X3.9016Y-2.3425
X4.0984Y-2.3228
X4.1Y-2.3
X3.1Y-2.4
X3.1516Y-2.3425
X3.3484Y-2.3228
X3.35Y-2.3
T2
G00X1.2813Y-2.1714
M15
G01X1.2813Y-2.2186
M16
G05
G00X1.2813Y-2.3485
M15
G01X1.2813Y-2.3958
M16
G05
G00X1.5687Y-2.1714
M15
G01X1.5687Y-2.2186
M16
G05
G00X1.5687Y-2.3485
M15
G01X1.5687Y-2.3958
M16
G05
T0
M30
