G04 #@! TF.GenerationSoftware,KiCad,Pcbnew,5.1.5*
G04 #@! TF.CreationDate,2020-05-13T22:07:09+08:00*
G04 #@! TF.ProjectId,Balisong,42616c69-736f-46e6-972e-6b696361645f,rev?*
G04 #@! TF.SameCoordinates,Original*
G04 #@! TF.FileFunction,Soldermask,Bot*
G04 #@! TF.FilePolarity,Negative*
%FSLAX46Y46*%
G04 Gerber Fmt 4.6, Leading zero omitted, Abs format (unit mm)*
G04 Created by KiCad (PCBNEW 5.1.5) date 2020-05-13 22:07:09*
%MOMM*%
%LPD*%
G04 APERTURE LIST*
%ADD10C,0.150000*%
%ADD11C,0.100000*%
G04 APERTURE END LIST*
D10*
X47703571Y-89296761D02*
X47894047Y-89201523D01*
X47989285Y-89011047D01*
X47989285Y-87296761D01*
X46941666Y-89296761D02*
X46941666Y-87963428D01*
X46941666Y-87296761D02*
X47036904Y-87392000D01*
X46941666Y-87487238D01*
X46846428Y-87392000D01*
X46941666Y-87296761D01*
X46941666Y-87487238D01*
X46179761Y-87963428D02*
X45798809Y-89296761D01*
X45417857Y-88344380D01*
X45036904Y-89296761D01*
X44655952Y-87963428D01*
X43132142Y-89201523D02*
X43322619Y-89296761D01*
X43703571Y-89296761D01*
X43894047Y-89201523D01*
X43989285Y-89011047D01*
X43989285Y-88249142D01*
X43894047Y-88058666D01*
X43703571Y-87963428D01*
X43322619Y-87963428D01*
X43132142Y-88058666D01*
X43036904Y-88249142D01*
X43036904Y-88439619D01*
X43989285Y-88630095D01*
X42179761Y-89296761D02*
X42179761Y-87963428D01*
X42179761Y-87296761D02*
X42275000Y-87392000D01*
X42179761Y-87487238D01*
X42084523Y-87392000D01*
X42179761Y-87296761D01*
X42179761Y-87487238D01*
X40179761Y-89296761D02*
X41322619Y-89296761D01*
X40751190Y-89296761D02*
X40751190Y-87296761D01*
X40941666Y-87582476D01*
X41132142Y-87772952D01*
X41322619Y-87868190D01*
X39227380Y-89296761D02*
X38846428Y-89296761D01*
X38655952Y-89201523D01*
X38560714Y-89106285D01*
X38370238Y-88820571D01*
X38275000Y-88439619D01*
X38275000Y-87677714D01*
X38370238Y-87487238D01*
X38465476Y-87392000D01*
X38655952Y-87296761D01*
X39036904Y-87296761D01*
X39227380Y-87392000D01*
X39322619Y-87487238D01*
X39417857Y-87677714D01*
X39417857Y-88153904D01*
X39322619Y-88344380D01*
X39227380Y-88439619D01*
X39036904Y-88534857D01*
X38655952Y-88534857D01*
X38465476Y-88439619D01*
X38370238Y-88344380D01*
X38275000Y-88153904D01*
X37322619Y-89296761D02*
X36941666Y-89296761D01*
X36751190Y-89201523D01*
X36655952Y-89106285D01*
X36465476Y-88820571D01*
X36370238Y-88439619D01*
X36370238Y-87677714D01*
X36465476Y-87487238D01*
X36560714Y-87392000D01*
X36751190Y-87296761D01*
X37132142Y-87296761D01*
X37322619Y-87392000D01*
X37417857Y-87487238D01*
X37513095Y-87677714D01*
X37513095Y-88153904D01*
X37417857Y-88344380D01*
X37322619Y-88439619D01*
X37132142Y-88534857D01*
X36751190Y-88534857D01*
X36560714Y-88439619D01*
X36465476Y-88344380D01*
X36370238Y-88153904D01*
X35703571Y-87296761D02*
X34370238Y-87296761D01*
X35227380Y-89296761D01*
D11*
G36*
X100456425Y-86631988D02*
G01*
X100622710Y-86665063D01*
X100805336Y-86740709D01*
X100969694Y-86850530D01*
X101109470Y-86990306D01*
X101219291Y-87154664D01*
X101294937Y-87337290D01*
X101333500Y-87531164D01*
X101333500Y-87728836D01*
X101294937Y-87922710D01*
X101219291Y-88105336D01*
X101109470Y-88269694D01*
X100969694Y-88409470D01*
X100805336Y-88519291D01*
X100622710Y-88594937D01*
X100456425Y-88628012D01*
X100428837Y-88633500D01*
X100231163Y-88633500D01*
X100203575Y-88628012D01*
X100037290Y-88594937D01*
X99854664Y-88519291D01*
X99690306Y-88409470D01*
X99550530Y-88269694D01*
X99440709Y-88105336D01*
X99365063Y-87922710D01*
X99326500Y-87728836D01*
X99326500Y-87531164D01*
X99365063Y-87337290D01*
X99440709Y-87154664D01*
X99550530Y-86990306D01*
X99690306Y-86850530D01*
X99854664Y-86740709D01*
X100037290Y-86665063D01*
X100203575Y-86631988D01*
X100231163Y-86626500D01*
X100428837Y-86626500D01*
X100456425Y-86631988D01*
G37*
G36*
X103873500Y-88633500D02*
G01*
X101866500Y-88633500D01*
X101866500Y-86626500D01*
X103873500Y-86626500D01*
X103873500Y-88633500D01*
G37*
G36*
X81406425Y-86631988D02*
G01*
X81572710Y-86665063D01*
X81755336Y-86740709D01*
X81919694Y-86850530D01*
X82059470Y-86990306D01*
X82169291Y-87154664D01*
X82244937Y-87337290D01*
X82283500Y-87531164D01*
X82283500Y-87728836D01*
X82244937Y-87922710D01*
X82169291Y-88105336D01*
X82059470Y-88269694D01*
X81919694Y-88409470D01*
X81755336Y-88519291D01*
X81572710Y-88594937D01*
X81406425Y-88628012D01*
X81378837Y-88633500D01*
X81181163Y-88633500D01*
X81153575Y-88628012D01*
X80987290Y-88594937D01*
X80804664Y-88519291D01*
X80640306Y-88409470D01*
X80500530Y-88269694D01*
X80390709Y-88105336D01*
X80315063Y-87922710D01*
X80276500Y-87728836D01*
X80276500Y-87531164D01*
X80315063Y-87337290D01*
X80390709Y-87154664D01*
X80500530Y-86990306D01*
X80640306Y-86850530D01*
X80804664Y-86740709D01*
X80987290Y-86665063D01*
X81153575Y-86631988D01*
X81181163Y-86626500D01*
X81378837Y-86626500D01*
X81406425Y-86631988D01*
G37*
G36*
X84823500Y-88633500D02*
G01*
X82816500Y-88633500D01*
X82816500Y-86626500D01*
X84823500Y-86626500D01*
X84823500Y-88633500D01*
G37*
G36*
X91138500Y-84701000D02*
G01*
X89836500Y-84701000D01*
X89836500Y-83699000D01*
X91138500Y-83699000D01*
X91138500Y-84701000D01*
G37*
G36*
X110188500Y-84701000D02*
G01*
X108886500Y-84701000D01*
X108886500Y-83699000D01*
X110188500Y-83699000D01*
X110188500Y-84701000D01*
G37*
G36*
X83146474Y-80583684D02*
G01*
X83364474Y-80673983D01*
X83518623Y-80737833D01*
X83853548Y-80961623D01*
X84138377Y-81246452D01*
X84362167Y-81581377D01*
X84394562Y-81659586D01*
X84516316Y-81953526D01*
X84594900Y-82348594D01*
X84594900Y-82751406D01*
X84516316Y-83146474D01*
X84465451Y-83269272D01*
X84362167Y-83518623D01*
X84138377Y-83853548D01*
X83853548Y-84138377D01*
X83518623Y-84362167D01*
X83468286Y-84383017D01*
X83146474Y-84516316D01*
X82751406Y-84594900D01*
X82348594Y-84594900D01*
X81953526Y-84516316D01*
X81631714Y-84383017D01*
X81581377Y-84362167D01*
X81246452Y-84138377D01*
X80961623Y-83853548D01*
X80737833Y-83518623D01*
X80634549Y-83269272D01*
X80583684Y-83146474D01*
X80505100Y-82751406D01*
X80505100Y-82348594D01*
X80583684Y-81953526D01*
X80705438Y-81659586D01*
X80737833Y-81581377D01*
X80961623Y-81246452D01*
X81246452Y-80961623D01*
X81581377Y-80737833D01*
X81735526Y-80673983D01*
X81953526Y-80583684D01*
X82348594Y-80505100D01*
X82751406Y-80505100D01*
X83146474Y-80583684D01*
G37*
G36*
X102196474Y-80583684D02*
G01*
X102414474Y-80673983D01*
X102568623Y-80737833D01*
X102903548Y-80961623D01*
X103188377Y-81246452D01*
X103412167Y-81581377D01*
X103444562Y-81659586D01*
X103566316Y-81953526D01*
X103644900Y-82348594D01*
X103644900Y-82751406D01*
X103566316Y-83146474D01*
X103515451Y-83269272D01*
X103412167Y-83518623D01*
X103188377Y-83853548D01*
X102903548Y-84138377D01*
X102568623Y-84362167D01*
X102518286Y-84383017D01*
X102196474Y-84516316D01*
X101801406Y-84594900D01*
X101398594Y-84594900D01*
X101003526Y-84516316D01*
X100681714Y-84383017D01*
X100631377Y-84362167D01*
X100296452Y-84138377D01*
X100011623Y-83853548D01*
X99787833Y-83518623D01*
X99684549Y-83269272D01*
X99633684Y-83146474D01*
X99555100Y-82751406D01*
X99555100Y-82348594D01*
X99633684Y-81953526D01*
X99755438Y-81659586D01*
X99787833Y-81581377D01*
X100011623Y-81246452D01*
X100296452Y-80961623D01*
X100631377Y-80737833D01*
X100785526Y-80673983D01*
X101003526Y-80583684D01*
X101398594Y-80505100D01*
X101801406Y-80505100D01*
X102196474Y-80583684D01*
G37*
G36*
X51552968Y-82946565D02*
G01*
X51591638Y-82958296D01*
X51627277Y-82977346D01*
X51658517Y-83002983D01*
X51684154Y-83034223D01*
X51703204Y-83069862D01*
X51714935Y-83108532D01*
X51719500Y-83154888D01*
X51719500Y-84231112D01*
X51714935Y-84277468D01*
X51703204Y-84316138D01*
X51684154Y-84351777D01*
X51658517Y-84383017D01*
X51627277Y-84408654D01*
X51591638Y-84427704D01*
X51552968Y-84439435D01*
X51506612Y-84444000D01*
X50855388Y-84444000D01*
X50809032Y-84439435D01*
X50770362Y-84427704D01*
X50734723Y-84408654D01*
X50703483Y-84383017D01*
X50677846Y-84351777D01*
X50658796Y-84316138D01*
X50647065Y-84277468D01*
X50642500Y-84231112D01*
X50642500Y-83154888D01*
X50647065Y-83108532D01*
X50658796Y-83069862D01*
X50677846Y-83034223D01*
X50703483Y-83002983D01*
X50734723Y-82977346D01*
X50770362Y-82958296D01*
X50809032Y-82946565D01*
X50855388Y-82942000D01*
X51506612Y-82942000D01*
X51552968Y-82946565D01*
G37*
G36*
X53427968Y-82946565D02*
G01*
X53466638Y-82958296D01*
X53502277Y-82977346D01*
X53533517Y-83002983D01*
X53559154Y-83034223D01*
X53578204Y-83069862D01*
X53589935Y-83108532D01*
X53594500Y-83154888D01*
X53594500Y-84231112D01*
X53589935Y-84277468D01*
X53578204Y-84316138D01*
X53559154Y-84351777D01*
X53533517Y-84383017D01*
X53502277Y-84408654D01*
X53466638Y-84427704D01*
X53427968Y-84439435D01*
X53381612Y-84444000D01*
X52730388Y-84444000D01*
X52684032Y-84439435D01*
X52645362Y-84427704D01*
X52609723Y-84408654D01*
X52578483Y-84383017D01*
X52552846Y-84351777D01*
X52533796Y-84316138D01*
X52522065Y-84277468D01*
X52517500Y-84231112D01*
X52517500Y-83154888D01*
X52522065Y-83108532D01*
X52533796Y-83069862D01*
X52552846Y-83034223D01*
X52578483Y-83002983D01*
X52609723Y-82977346D01*
X52645362Y-82958296D01*
X52684032Y-82946565D01*
X52730388Y-82942000D01*
X53381612Y-82942000D01*
X53427968Y-82946565D01*
G37*
G36*
X58156968Y-82946565D02*
G01*
X58195638Y-82958296D01*
X58231277Y-82977346D01*
X58262517Y-83002983D01*
X58288154Y-83034223D01*
X58307204Y-83069862D01*
X58318935Y-83108532D01*
X58323500Y-83154888D01*
X58323500Y-84231112D01*
X58318935Y-84277468D01*
X58307204Y-84316138D01*
X58288154Y-84351777D01*
X58262517Y-84383017D01*
X58231277Y-84408654D01*
X58195638Y-84427704D01*
X58156968Y-84439435D01*
X58110612Y-84444000D01*
X57459388Y-84444000D01*
X57413032Y-84439435D01*
X57374362Y-84427704D01*
X57338723Y-84408654D01*
X57307483Y-84383017D01*
X57281846Y-84351777D01*
X57262796Y-84316138D01*
X57251065Y-84277468D01*
X57246500Y-84231112D01*
X57246500Y-83154888D01*
X57251065Y-83108532D01*
X57262796Y-83069862D01*
X57281846Y-83034223D01*
X57307483Y-83002983D01*
X57338723Y-82977346D01*
X57374362Y-82958296D01*
X57413032Y-82946565D01*
X57459388Y-82942000D01*
X58110612Y-82942000D01*
X58156968Y-82946565D01*
G37*
G36*
X60031968Y-82946565D02*
G01*
X60070638Y-82958296D01*
X60106277Y-82977346D01*
X60137517Y-83002983D01*
X60163154Y-83034223D01*
X60182204Y-83069862D01*
X60193935Y-83108532D01*
X60198500Y-83154888D01*
X60198500Y-84231112D01*
X60193935Y-84277468D01*
X60182204Y-84316138D01*
X60163154Y-84351777D01*
X60137517Y-84383017D01*
X60106277Y-84408654D01*
X60070638Y-84427704D01*
X60031968Y-84439435D01*
X59985612Y-84444000D01*
X59334388Y-84444000D01*
X59288032Y-84439435D01*
X59249362Y-84427704D01*
X59213723Y-84408654D01*
X59182483Y-84383017D01*
X59156846Y-84351777D01*
X59137796Y-84316138D01*
X59126065Y-84277468D01*
X59121500Y-84231112D01*
X59121500Y-83154888D01*
X59126065Y-83108532D01*
X59137796Y-83069862D01*
X59156846Y-83034223D01*
X59182483Y-83002983D01*
X59213723Y-82977346D01*
X59249362Y-82958296D01*
X59288032Y-82946565D01*
X59334388Y-82942000D01*
X59985612Y-82942000D01*
X60031968Y-82946565D01*
G37*
G36*
X48882000Y-84239000D02*
G01*
X46980000Y-84239000D01*
X46980000Y-83037000D01*
X48882000Y-83037000D01*
X48882000Y-84239000D01*
G37*
G36*
X42682000Y-84239000D02*
G01*
X40780000Y-84239000D01*
X40780000Y-83037000D01*
X42682000Y-83037000D01*
X42682000Y-84239000D01*
G37*
G36*
X106950104Y-81659585D02*
G01*
X107118626Y-81729389D01*
X107270291Y-81830728D01*
X107399272Y-81959709D01*
X107500611Y-82111374D01*
X107570415Y-82279896D01*
X107606000Y-82458797D01*
X107606000Y-82641203D01*
X107570415Y-82820104D01*
X107500611Y-82988626D01*
X107399272Y-83140291D01*
X107270291Y-83269272D01*
X107118626Y-83370611D01*
X106950104Y-83440415D01*
X106771203Y-83476000D01*
X106588797Y-83476000D01*
X106409896Y-83440415D01*
X106241374Y-83370611D01*
X106089709Y-83269272D01*
X105960728Y-83140291D01*
X105859389Y-82988626D01*
X105789585Y-82820104D01*
X105754000Y-82641203D01*
X105754000Y-82458797D01*
X105789585Y-82279896D01*
X105859389Y-82111374D01*
X105960728Y-81959709D01*
X106089709Y-81830728D01*
X106241374Y-81729389D01*
X106409896Y-81659585D01*
X106588797Y-81624000D01*
X106771203Y-81624000D01*
X106950104Y-81659585D01*
G37*
G36*
X96790104Y-81659585D02*
G01*
X96958626Y-81729389D01*
X97110291Y-81830728D01*
X97239272Y-81959709D01*
X97340611Y-82111374D01*
X97410415Y-82279896D01*
X97446000Y-82458797D01*
X97446000Y-82641203D01*
X97410415Y-82820104D01*
X97340611Y-82988626D01*
X97239272Y-83140291D01*
X97110291Y-83269272D01*
X96958626Y-83370611D01*
X96790104Y-83440415D01*
X96611203Y-83476000D01*
X96428797Y-83476000D01*
X96249896Y-83440415D01*
X96081374Y-83370611D01*
X95929709Y-83269272D01*
X95800728Y-83140291D01*
X95699389Y-82988626D01*
X95629585Y-82820104D01*
X95594000Y-82641203D01*
X95594000Y-82458797D01*
X95629585Y-82279896D01*
X95699389Y-82111374D01*
X95800728Y-81959709D01*
X95929709Y-81830728D01*
X96081374Y-81729389D01*
X96249896Y-81659585D01*
X96428797Y-81624000D01*
X96611203Y-81624000D01*
X96790104Y-81659585D01*
G37*
G36*
X87900104Y-81659585D02*
G01*
X88068626Y-81729389D01*
X88220291Y-81830728D01*
X88349272Y-81959709D01*
X88450611Y-82111374D01*
X88520415Y-82279896D01*
X88556000Y-82458797D01*
X88556000Y-82641203D01*
X88520415Y-82820104D01*
X88450611Y-82988626D01*
X88349272Y-83140291D01*
X88220291Y-83269272D01*
X88068626Y-83370611D01*
X87900104Y-83440415D01*
X87721203Y-83476000D01*
X87538797Y-83476000D01*
X87359896Y-83440415D01*
X87191374Y-83370611D01*
X87039709Y-83269272D01*
X86910728Y-83140291D01*
X86809389Y-82988626D01*
X86739585Y-82820104D01*
X86704000Y-82641203D01*
X86704000Y-82458797D01*
X86739585Y-82279896D01*
X86809389Y-82111374D01*
X86910728Y-81959709D01*
X87039709Y-81830728D01*
X87191374Y-81729389D01*
X87359896Y-81659585D01*
X87538797Y-81624000D01*
X87721203Y-81624000D01*
X87900104Y-81659585D01*
G37*
G36*
X77740104Y-81659585D02*
G01*
X77908626Y-81729389D01*
X78060291Y-81830728D01*
X78189272Y-81959709D01*
X78290611Y-82111374D01*
X78360415Y-82279896D01*
X78396000Y-82458797D01*
X78396000Y-82641203D01*
X78360415Y-82820104D01*
X78290611Y-82988626D01*
X78189272Y-83140291D01*
X78060291Y-83269272D01*
X77908626Y-83370611D01*
X77740104Y-83440415D01*
X77561203Y-83476000D01*
X77378797Y-83476000D01*
X77199896Y-83440415D01*
X77031374Y-83370611D01*
X76879709Y-83269272D01*
X76750728Y-83140291D01*
X76649389Y-82988626D01*
X76579585Y-82820104D01*
X76544000Y-82641203D01*
X76544000Y-82458797D01*
X76579585Y-82279896D01*
X76649389Y-82111374D01*
X76750728Y-81959709D01*
X76879709Y-81830728D01*
X77031374Y-81729389D01*
X77199896Y-81659585D01*
X77378797Y-81624000D01*
X77561203Y-81624000D01*
X77740104Y-81659585D01*
G37*
G36*
X91138500Y-81401000D02*
G01*
X89836500Y-81401000D01*
X89836500Y-80399000D01*
X91138500Y-80399000D01*
X91138500Y-81401000D01*
G37*
G36*
X110188500Y-81401000D02*
G01*
X108886500Y-81401000D01*
X108886500Y-80399000D01*
X110188500Y-80399000D01*
X110188500Y-81401000D01*
G37*
G36*
X99123205Y-77373881D02*
G01*
X99128645Y-77374000D01*
X99215828Y-77374000D01*
X99232097Y-77377236D01*
X99250956Y-77379515D01*
X99267532Y-77380246D01*
X99352223Y-77401010D01*
X99357518Y-77402184D01*
X99443027Y-77419193D01*
X99458362Y-77425545D01*
X99476401Y-77431455D01*
X99492521Y-77435407D01*
X99571504Y-77472280D01*
X99576494Y-77474477D01*
X99657045Y-77507842D01*
X99670841Y-77517060D01*
X99687393Y-77526382D01*
X99702426Y-77533400D01*
X99772694Y-77584971D01*
X99777192Y-77588122D01*
X99849656Y-77636541D01*
X99861383Y-77648268D01*
X99875809Y-77660648D01*
X99889179Y-77670461D01*
X99889180Y-77670462D01*
X99948021Y-77734733D01*
X99951829Y-77738714D01*
X100013459Y-77800344D01*
X100022674Y-77814135D01*
X100034396Y-77829078D01*
X100045605Y-77841321D01*
X100090799Y-77915874D01*
X100093746Y-77920501D01*
X100142158Y-77992955D01*
X100148505Y-78008277D01*
X100157092Y-78025231D01*
X100165691Y-78039417D01*
X100195478Y-78121368D01*
X100197452Y-78126448D01*
X100230807Y-78206973D01*
X100230807Y-78206974D01*
X100234041Y-78223233D01*
X100239158Y-78241542D01*
X100244825Y-78257134D01*
X100258055Y-78343345D01*
X100259001Y-78348713D01*
X100276000Y-78434173D01*
X100276000Y-78450752D01*
X100277444Y-78469692D01*
X100279963Y-78486104D01*
X100276120Y-78573249D01*
X100276000Y-78578689D01*
X100276000Y-78665825D01*
X100272766Y-78682083D01*
X100270488Y-78700941D01*
X100269756Y-78717531D01*
X100248988Y-78802237D01*
X100247812Y-78807537D01*
X100230807Y-78893027D01*
X100224457Y-78908357D01*
X100218549Y-78926393D01*
X100214595Y-78942520D01*
X100177711Y-79021526D01*
X100175511Y-79026523D01*
X100142158Y-79107045D01*
X100132944Y-79120835D01*
X100123622Y-79137387D01*
X100116602Y-79152424D01*
X100065011Y-79222720D01*
X100061866Y-79227210D01*
X100013461Y-79299654D01*
X99956460Y-79356655D01*
X99951811Y-79361563D01*
X99520311Y-79842470D01*
X98626723Y-80838376D01*
X98498679Y-80955602D01*
X98473918Y-80970612D01*
X98300583Y-81075689D01*
X98082866Y-81154823D01*
X97853895Y-81189961D01*
X97622470Y-81179754D01*
X97397481Y-81124593D01*
X97292727Y-81075689D01*
X97187579Y-81026602D01*
X97090838Y-80955602D01*
X97000823Y-80889539D01*
X96926394Y-80808241D01*
X96844398Y-80718679D01*
X96762564Y-80583685D01*
X96724311Y-80520583D01*
X96645177Y-80302866D01*
X96610039Y-80073895D01*
X96620246Y-79842470D01*
X96675407Y-79617481D01*
X96726972Y-79507028D01*
X96773398Y-79407580D01*
X96773400Y-79407577D01*
X96876114Y-79267622D01*
X97656651Y-78397712D01*
X98162787Y-77833621D01*
X98173681Y-77819589D01*
X98186539Y-77800346D01*
X98243573Y-77743312D01*
X98248223Y-77738403D01*
X98263278Y-77721624D01*
X98284701Y-77702011D01*
X98288682Y-77698203D01*
X98350346Y-77636539D01*
X98364143Y-77627320D01*
X98379102Y-77615585D01*
X98391321Y-77604398D01*
X98433428Y-77578873D01*
X98465830Y-77559231D01*
X98470421Y-77556308D01*
X98542955Y-77507842D01*
X98558300Y-77501486D01*
X98575248Y-77492901D01*
X98589416Y-77484312D01*
X98589417Y-77484312D01*
X98589418Y-77484311D01*
X98671312Y-77454545D01*
X98676410Y-77452563D01*
X98756973Y-77419193D01*
X98773252Y-77415955D01*
X98791542Y-77410844D01*
X98807135Y-77405177D01*
X98893300Y-77391954D01*
X98898663Y-77391009D01*
X98984173Y-77374000D01*
X99000766Y-77374000D01*
X99019709Y-77372555D01*
X99036106Y-77370039D01*
X99123205Y-77373881D01*
G37*
G36*
X80073205Y-77373881D02*
G01*
X80078645Y-77374000D01*
X80165828Y-77374000D01*
X80182097Y-77377236D01*
X80200956Y-77379515D01*
X80217532Y-77380246D01*
X80302223Y-77401010D01*
X80307518Y-77402184D01*
X80393027Y-77419193D01*
X80408362Y-77425545D01*
X80426401Y-77431455D01*
X80442521Y-77435407D01*
X80521504Y-77472280D01*
X80526494Y-77474477D01*
X80607045Y-77507842D01*
X80620841Y-77517060D01*
X80637393Y-77526382D01*
X80652426Y-77533400D01*
X80722694Y-77584971D01*
X80727192Y-77588122D01*
X80799656Y-77636541D01*
X80811383Y-77648268D01*
X80825809Y-77660648D01*
X80839179Y-77670461D01*
X80839180Y-77670462D01*
X80898021Y-77734733D01*
X80901829Y-77738714D01*
X80963459Y-77800344D01*
X80972674Y-77814135D01*
X80984396Y-77829078D01*
X80995605Y-77841321D01*
X81040799Y-77915874D01*
X81043746Y-77920501D01*
X81092158Y-77992955D01*
X81098505Y-78008277D01*
X81107092Y-78025231D01*
X81115691Y-78039417D01*
X81145478Y-78121368D01*
X81147452Y-78126448D01*
X81180807Y-78206973D01*
X81180807Y-78206974D01*
X81184041Y-78223233D01*
X81189158Y-78241542D01*
X81194825Y-78257134D01*
X81208055Y-78343345D01*
X81209001Y-78348713D01*
X81226000Y-78434173D01*
X81226000Y-78450752D01*
X81227444Y-78469692D01*
X81229963Y-78486104D01*
X81226120Y-78573249D01*
X81226000Y-78578689D01*
X81226000Y-78665825D01*
X81222766Y-78682083D01*
X81220488Y-78700941D01*
X81219756Y-78717531D01*
X81198988Y-78802237D01*
X81197812Y-78807537D01*
X81180807Y-78893027D01*
X81174457Y-78908357D01*
X81168549Y-78926393D01*
X81164595Y-78942520D01*
X81127711Y-79021526D01*
X81125511Y-79026523D01*
X81092158Y-79107045D01*
X81082944Y-79120835D01*
X81073622Y-79137387D01*
X81066602Y-79152424D01*
X81015011Y-79222720D01*
X81011866Y-79227210D01*
X80963461Y-79299654D01*
X80906460Y-79356655D01*
X80901811Y-79361563D01*
X80470311Y-79842470D01*
X79576723Y-80838376D01*
X79448679Y-80955602D01*
X79423918Y-80970612D01*
X79250583Y-81075689D01*
X79032866Y-81154823D01*
X78803895Y-81189961D01*
X78572470Y-81179754D01*
X78347481Y-81124593D01*
X78242727Y-81075689D01*
X78137579Y-81026602D01*
X78040838Y-80955602D01*
X77950823Y-80889539D01*
X77876394Y-80808241D01*
X77794398Y-80718679D01*
X77712564Y-80583685D01*
X77674311Y-80520583D01*
X77595177Y-80302866D01*
X77560039Y-80073895D01*
X77570246Y-79842470D01*
X77625407Y-79617481D01*
X77676972Y-79507028D01*
X77723398Y-79407580D01*
X77723400Y-79407577D01*
X77826114Y-79267622D01*
X78606651Y-78397712D01*
X79112787Y-77833621D01*
X79123681Y-77819589D01*
X79136539Y-77800346D01*
X79193573Y-77743312D01*
X79198223Y-77738403D01*
X79213278Y-77721624D01*
X79234701Y-77702011D01*
X79238682Y-77698203D01*
X79300346Y-77636539D01*
X79314143Y-77627320D01*
X79329102Y-77615585D01*
X79341321Y-77604398D01*
X79383428Y-77578873D01*
X79415830Y-77559231D01*
X79420421Y-77556308D01*
X79492955Y-77507842D01*
X79508300Y-77501486D01*
X79525248Y-77492901D01*
X79539416Y-77484312D01*
X79539417Y-77484312D01*
X79539418Y-77484311D01*
X79621312Y-77454545D01*
X79626410Y-77452563D01*
X79706973Y-77419193D01*
X79723252Y-77415955D01*
X79741542Y-77410844D01*
X79757135Y-77405177D01*
X79843300Y-77391954D01*
X79848663Y-77391009D01*
X79934173Y-77374000D01*
X79950766Y-77374000D01*
X79969709Y-77372555D01*
X79986106Y-77370039D01*
X80073205Y-77373881D01*
G37*
G36*
X66497468Y-80111065D02*
G01*
X66536138Y-80122796D01*
X66571777Y-80141846D01*
X66603017Y-80167483D01*
X66628654Y-80198723D01*
X66647704Y-80234362D01*
X66659435Y-80273032D01*
X66664000Y-80319388D01*
X66664000Y-80970612D01*
X66659435Y-81016968D01*
X66647704Y-81055638D01*
X66628654Y-81091277D01*
X66603017Y-81122517D01*
X66571777Y-81148154D01*
X66536138Y-81167204D01*
X66497468Y-81178935D01*
X66451112Y-81183500D01*
X65374888Y-81183500D01*
X65328532Y-81178935D01*
X65289862Y-81167204D01*
X65254223Y-81148154D01*
X65222983Y-81122517D01*
X65197346Y-81091277D01*
X65178296Y-81055638D01*
X65166565Y-81016968D01*
X65162000Y-80970612D01*
X65162000Y-80319388D01*
X65166565Y-80273032D01*
X65178296Y-80234362D01*
X65197346Y-80198723D01*
X65222983Y-80167483D01*
X65254223Y-80141846D01*
X65289862Y-80122796D01*
X65328532Y-80111065D01*
X65374888Y-80106500D01*
X66451112Y-80106500D01*
X66497468Y-80111065D01*
G37*
G36*
X48882000Y-80539000D02*
G01*
X46980000Y-80539000D01*
X46980000Y-79337000D01*
X48882000Y-79337000D01*
X48882000Y-80539000D01*
G37*
G36*
X42682000Y-80539000D02*
G01*
X40780000Y-80539000D01*
X40780000Y-79337000D01*
X42682000Y-79337000D01*
X42682000Y-80539000D01*
G37*
G36*
X59571000Y-79526000D02*
G01*
X50919000Y-79526000D01*
X50919000Y-77924000D01*
X59571000Y-77924000D01*
X59571000Y-79526000D01*
G37*
G36*
X66497468Y-78236065D02*
G01*
X66536138Y-78247796D01*
X66571777Y-78266846D01*
X66603017Y-78292483D01*
X66628654Y-78323723D01*
X66647704Y-78359362D01*
X66659435Y-78398032D01*
X66664000Y-78444388D01*
X66664000Y-79095612D01*
X66659435Y-79141968D01*
X66647704Y-79180638D01*
X66628654Y-79216277D01*
X66603017Y-79247517D01*
X66571777Y-79273154D01*
X66536138Y-79292204D01*
X66497468Y-79303935D01*
X66451112Y-79308500D01*
X65374888Y-79308500D01*
X65328532Y-79303935D01*
X65289862Y-79292204D01*
X65254223Y-79273154D01*
X65222983Y-79247517D01*
X65197346Y-79216277D01*
X65178296Y-79180638D01*
X65166565Y-79141968D01*
X65162000Y-79095612D01*
X65162000Y-78444388D01*
X65166565Y-78398032D01*
X65178296Y-78359362D01*
X65197346Y-78323723D01*
X65222983Y-78292483D01*
X65254223Y-78266846D01*
X65289862Y-78247796D01*
X65328532Y-78236065D01*
X65374888Y-78231500D01*
X66451112Y-78231500D01*
X66497468Y-78236065D01*
G37*
G36*
X104228127Y-76292261D02*
G01*
X104248900Y-76294000D01*
X104255827Y-76294000D01*
X104350754Y-76312882D01*
X104354348Y-76313542D01*
X104449730Y-76329624D01*
X104456203Y-76332085D01*
X104476228Y-76337841D01*
X104483027Y-76339193D01*
X104545414Y-76365034D01*
X104572443Y-76376230D01*
X104575844Y-76377581D01*
X104666255Y-76411961D01*
X104672127Y-76415640D01*
X104690636Y-76425187D01*
X104697045Y-76427842D01*
X104777563Y-76481642D01*
X104780554Y-76483578D01*
X104862557Y-76534959D01*
X104867584Y-76539700D01*
X104883896Y-76552691D01*
X104889652Y-76556537D01*
X104958110Y-76624995D01*
X104960689Y-76627499D01*
X105031090Y-76693889D01*
X105034726Y-76699000D01*
X105035095Y-76699519D01*
X105048559Y-76715444D01*
X105053459Y-76720344D01*
X105107244Y-76800839D01*
X105109291Y-76803807D01*
X105165380Y-76882645D01*
X105168214Y-76888958D01*
X105178308Y-76907193D01*
X105182158Y-76912955D01*
X105219220Y-77002430D01*
X105220624Y-77005685D01*
X105260265Y-77093973D01*
X105261815Y-77100725D01*
X105268152Y-77120562D01*
X105270807Y-77126973D01*
X105289692Y-77221917D01*
X105290438Y-77225401D01*
X105312098Y-77319751D01*
X105312098Y-77319754D01*
X105312300Y-77326654D01*
X105314647Y-77347370D01*
X105316000Y-77354174D01*
X105316000Y-77450986D01*
X105316053Y-77454584D01*
X105317188Y-77493277D01*
X105316295Y-77506225D01*
X105316000Y-77514797D01*
X105316000Y-77585826D01*
X105310081Y-77615585D01*
X105309604Y-77617979D01*
X105307500Y-77633750D01*
X105269238Y-78188545D01*
X105240376Y-78359730D01*
X105158038Y-78576255D01*
X105035041Y-78772557D01*
X104876111Y-78941090D01*
X104687355Y-79075380D01*
X104476027Y-79170265D01*
X104250249Y-79222098D01*
X104018698Y-79228889D01*
X104018697Y-79228889D01*
X103943894Y-79216277D01*
X103790270Y-79190376D01*
X103573745Y-79108038D01*
X103377443Y-78985041D01*
X103208910Y-78826111D01*
X103074620Y-78637355D01*
X102979735Y-78426027D01*
X102927902Y-78200249D01*
X102922812Y-78026723D01*
X102963704Y-77433794D01*
X102964000Y-77425196D01*
X102964000Y-77354174D01*
X102982888Y-77259219D01*
X102983544Y-77255645D01*
X102989231Y-77221917D01*
X102999624Y-77160270D01*
X103002085Y-77153799D01*
X103007842Y-77133767D01*
X103009193Y-77126974D01*
X103011843Y-77120576D01*
X103046264Y-77037476D01*
X103047553Y-77034230D01*
X103081962Y-76943745D01*
X103085636Y-76937881D01*
X103095187Y-76919365D01*
X103097842Y-76912955D01*
X103151657Y-76832415D01*
X103153577Y-76829449D01*
X103204959Y-76747443D01*
X103209711Y-76742404D01*
X103222689Y-76726107D01*
X103226537Y-76720348D01*
X103294993Y-76651892D01*
X103297546Y-76649262D01*
X103318023Y-76627548D01*
X103363889Y-76578910D01*
X103369521Y-76574903D01*
X103385447Y-76561438D01*
X103390346Y-76556539D01*
X103470824Y-76502766D01*
X103473806Y-76500710D01*
X103552645Y-76444620D01*
X103558955Y-76441787D01*
X103577194Y-76431691D01*
X103582951Y-76427844D01*
X103582954Y-76427843D01*
X103582955Y-76427842D01*
X103672429Y-76390781D01*
X103675687Y-76389375D01*
X103763973Y-76349735D01*
X103770725Y-76348185D01*
X103790562Y-76341848D01*
X103796973Y-76339193D01*
X103891899Y-76320311D01*
X103895446Y-76319551D01*
X103989751Y-76297901D01*
X103992130Y-76297831D01*
X103996665Y-76297698D01*
X104017381Y-76295351D01*
X104024174Y-76294000D01*
X104120959Y-76294000D01*
X104124584Y-76293947D01*
X104221302Y-76291110D01*
X104228127Y-76292261D01*
G37*
G36*
X85178127Y-76292261D02*
G01*
X85198900Y-76294000D01*
X85205827Y-76294000D01*
X85300754Y-76312882D01*
X85304348Y-76313542D01*
X85399730Y-76329624D01*
X85406203Y-76332085D01*
X85426228Y-76337841D01*
X85433027Y-76339193D01*
X85495414Y-76365034D01*
X85522443Y-76376230D01*
X85525844Y-76377581D01*
X85616255Y-76411961D01*
X85622127Y-76415640D01*
X85640636Y-76425187D01*
X85647045Y-76427842D01*
X85727563Y-76481642D01*
X85730554Y-76483578D01*
X85812557Y-76534959D01*
X85817584Y-76539700D01*
X85833896Y-76552691D01*
X85839652Y-76556537D01*
X85908110Y-76624995D01*
X85910689Y-76627499D01*
X85981090Y-76693889D01*
X85984726Y-76699000D01*
X85985095Y-76699519D01*
X85998559Y-76715444D01*
X86003459Y-76720344D01*
X86057244Y-76800839D01*
X86059291Y-76803807D01*
X86115380Y-76882645D01*
X86118214Y-76888958D01*
X86128308Y-76907193D01*
X86132158Y-76912955D01*
X86169220Y-77002430D01*
X86170624Y-77005685D01*
X86210265Y-77093973D01*
X86211815Y-77100725D01*
X86218152Y-77120562D01*
X86220807Y-77126973D01*
X86239692Y-77221917D01*
X86240438Y-77225401D01*
X86262098Y-77319751D01*
X86262098Y-77319754D01*
X86262300Y-77326654D01*
X86264647Y-77347370D01*
X86266000Y-77354174D01*
X86266000Y-77450986D01*
X86266053Y-77454584D01*
X86267188Y-77493277D01*
X86266295Y-77506225D01*
X86266000Y-77514797D01*
X86266000Y-77585826D01*
X86260081Y-77615585D01*
X86259604Y-77617979D01*
X86257500Y-77633750D01*
X86219238Y-78188545D01*
X86190376Y-78359730D01*
X86108038Y-78576255D01*
X85985041Y-78772557D01*
X85826111Y-78941090D01*
X85637355Y-79075380D01*
X85426027Y-79170265D01*
X85200249Y-79222098D01*
X84968698Y-79228889D01*
X84968697Y-79228889D01*
X84893894Y-79216277D01*
X84740270Y-79190376D01*
X84523745Y-79108038D01*
X84327443Y-78985041D01*
X84158910Y-78826111D01*
X84024620Y-78637355D01*
X83929735Y-78426027D01*
X83877902Y-78200249D01*
X83872812Y-78026723D01*
X83913704Y-77433794D01*
X83914000Y-77425196D01*
X83914000Y-77354174D01*
X83932888Y-77259219D01*
X83933544Y-77255645D01*
X83939231Y-77221917D01*
X83949624Y-77160270D01*
X83952085Y-77153799D01*
X83957842Y-77133767D01*
X83959193Y-77126974D01*
X83961843Y-77120576D01*
X83996264Y-77037476D01*
X83997553Y-77034230D01*
X84031962Y-76943745D01*
X84035636Y-76937881D01*
X84045187Y-76919365D01*
X84047842Y-76912955D01*
X84101657Y-76832415D01*
X84103577Y-76829449D01*
X84154959Y-76747443D01*
X84159711Y-76742404D01*
X84172689Y-76726107D01*
X84176537Y-76720348D01*
X84244993Y-76651892D01*
X84247546Y-76649262D01*
X84268023Y-76627548D01*
X84313889Y-76578910D01*
X84319521Y-76574903D01*
X84335447Y-76561438D01*
X84340346Y-76556539D01*
X84420824Y-76502766D01*
X84423806Y-76500710D01*
X84502645Y-76444620D01*
X84508955Y-76441787D01*
X84527194Y-76431691D01*
X84532951Y-76427844D01*
X84532954Y-76427843D01*
X84532955Y-76427842D01*
X84622429Y-76390781D01*
X84625687Y-76389375D01*
X84713973Y-76349735D01*
X84720725Y-76348185D01*
X84740562Y-76341848D01*
X84746973Y-76339193D01*
X84841899Y-76320311D01*
X84845446Y-76319551D01*
X84939751Y-76297901D01*
X84942130Y-76297831D01*
X84946665Y-76297698D01*
X84967381Y-76295351D01*
X84974174Y-76294000D01*
X85070959Y-76294000D01*
X85074584Y-76293947D01*
X85171302Y-76291110D01*
X85178127Y-76292261D01*
G37*
G36*
X38586062Y-75786181D02*
G01*
X38620981Y-75796774D01*
X38653163Y-75813976D01*
X38681373Y-75837127D01*
X38704524Y-75865337D01*
X38721726Y-75897519D01*
X38732319Y-75932438D01*
X38736500Y-75974895D01*
X38736500Y-77441105D01*
X38732319Y-77483562D01*
X38721726Y-77518481D01*
X38704524Y-77550663D01*
X38681373Y-77578873D01*
X38653163Y-77602024D01*
X38620981Y-77619226D01*
X38586062Y-77629819D01*
X38543605Y-77634000D01*
X37402395Y-77634000D01*
X37359938Y-77629819D01*
X37325019Y-77619226D01*
X37292837Y-77602024D01*
X37264627Y-77578873D01*
X37241476Y-77550663D01*
X37224274Y-77518481D01*
X37213681Y-77483562D01*
X37209500Y-77441105D01*
X37209500Y-75974895D01*
X37213681Y-75932438D01*
X37224274Y-75897519D01*
X37241476Y-75865337D01*
X37264627Y-75837127D01*
X37292837Y-75813976D01*
X37325019Y-75796774D01*
X37359938Y-75786181D01*
X37402395Y-75782000D01*
X38543605Y-75782000D01*
X38586062Y-75786181D01*
G37*
G36*
X35611062Y-75786181D02*
G01*
X35645981Y-75796774D01*
X35678163Y-75813976D01*
X35706373Y-75837127D01*
X35729524Y-75865337D01*
X35746726Y-75897519D01*
X35757319Y-75932438D01*
X35761500Y-75974895D01*
X35761500Y-77441105D01*
X35757319Y-77483562D01*
X35746726Y-77518481D01*
X35729524Y-77550663D01*
X35706373Y-77578873D01*
X35678163Y-77602024D01*
X35645981Y-77619226D01*
X35611062Y-77629819D01*
X35568605Y-77634000D01*
X34427395Y-77634000D01*
X34384938Y-77629819D01*
X34350019Y-77619226D01*
X34317837Y-77602024D01*
X34289627Y-77578873D01*
X34266476Y-77550663D01*
X34249274Y-77518481D01*
X34238681Y-77483562D01*
X34234500Y-77441105D01*
X34234500Y-75974895D01*
X34238681Y-75932438D01*
X34249274Y-75897519D01*
X34266476Y-75865337D01*
X34289627Y-75837127D01*
X34317837Y-75813976D01*
X34350019Y-75796774D01*
X34384938Y-75786181D01*
X34427395Y-75782000D01*
X35568605Y-75782000D01*
X35611062Y-75786181D01*
G37*
G36*
X50346000Y-77351000D02*
G01*
X48744000Y-77351000D01*
X48744000Y-68699000D01*
X50346000Y-68699000D01*
X50346000Y-77351000D01*
G37*
G36*
X61746000Y-77351000D02*
G01*
X60144000Y-77351000D01*
X60144000Y-68699000D01*
X61746000Y-68699000D01*
X61746000Y-77351000D01*
G37*
G36*
X45161468Y-71572065D02*
G01*
X45200138Y-71583796D01*
X45235777Y-71602846D01*
X45267017Y-71628483D01*
X45292654Y-71659723D01*
X45311704Y-71695362D01*
X45323435Y-71734032D01*
X45328000Y-71780388D01*
X45328000Y-72431612D01*
X45323435Y-72477968D01*
X45311704Y-72516638D01*
X45292654Y-72552277D01*
X45267017Y-72583517D01*
X45235777Y-72609154D01*
X45200138Y-72628204D01*
X45161468Y-72639935D01*
X45115112Y-72644500D01*
X44038888Y-72644500D01*
X43992532Y-72639935D01*
X43953862Y-72628204D01*
X43918223Y-72609154D01*
X43886983Y-72583517D01*
X43861346Y-72552277D01*
X43842296Y-72516638D01*
X43830565Y-72477968D01*
X43826000Y-72431612D01*
X43826000Y-71780388D01*
X43830565Y-71734032D01*
X43842296Y-71695362D01*
X43861346Y-71659723D01*
X43886983Y-71628483D01*
X43918223Y-71602846D01*
X43953862Y-71583796D01*
X43992532Y-71572065D01*
X44038888Y-71567500D01*
X45115112Y-71567500D01*
X45161468Y-71572065D01*
G37*
G36*
X66497468Y-70429065D02*
G01*
X66536138Y-70440796D01*
X66571777Y-70459846D01*
X66603017Y-70485483D01*
X66628654Y-70516723D01*
X66647704Y-70552362D01*
X66659435Y-70591032D01*
X66664000Y-70637388D01*
X66664000Y-71288612D01*
X66659435Y-71334968D01*
X66647704Y-71373638D01*
X66628654Y-71409277D01*
X66603017Y-71440517D01*
X66571777Y-71466154D01*
X66536138Y-71485204D01*
X66497468Y-71496935D01*
X66451112Y-71501500D01*
X65374888Y-71501500D01*
X65328532Y-71496935D01*
X65289862Y-71485204D01*
X65254223Y-71466154D01*
X65222983Y-71440517D01*
X65197346Y-71409277D01*
X65178296Y-71373638D01*
X65166565Y-71334968D01*
X65162000Y-71288612D01*
X65162000Y-70637388D01*
X65166565Y-70591032D01*
X65178296Y-70552362D01*
X65197346Y-70516723D01*
X65222983Y-70485483D01*
X65254223Y-70459846D01*
X65289862Y-70440796D01*
X65328532Y-70429065D01*
X65374888Y-70424500D01*
X66451112Y-70424500D01*
X66497468Y-70429065D01*
G37*
G36*
X45161468Y-69697065D02*
G01*
X45200138Y-69708796D01*
X45235777Y-69727846D01*
X45267017Y-69753483D01*
X45292654Y-69784723D01*
X45311704Y-69820362D01*
X45323435Y-69859032D01*
X45328000Y-69905388D01*
X45328000Y-70556612D01*
X45323435Y-70602968D01*
X45311704Y-70641638D01*
X45292654Y-70677277D01*
X45267017Y-70708517D01*
X45235777Y-70734154D01*
X45200138Y-70753204D01*
X45161468Y-70764935D01*
X45115112Y-70769500D01*
X44038888Y-70769500D01*
X43992532Y-70764935D01*
X43953862Y-70753204D01*
X43918223Y-70734154D01*
X43886983Y-70708517D01*
X43861346Y-70677277D01*
X43842296Y-70641638D01*
X43830565Y-70602968D01*
X43826000Y-70556612D01*
X43826000Y-69905388D01*
X43830565Y-69859032D01*
X43842296Y-69820362D01*
X43861346Y-69784723D01*
X43886983Y-69753483D01*
X43918223Y-69727846D01*
X43953862Y-69708796D01*
X43992532Y-69697065D01*
X44038888Y-69692500D01*
X45115112Y-69692500D01*
X45161468Y-69697065D01*
G37*
G36*
X35042968Y-68341565D02*
G01*
X35081638Y-68353296D01*
X35117277Y-68372346D01*
X35148517Y-68397983D01*
X35174154Y-68429223D01*
X35193204Y-68464862D01*
X35204935Y-68503532D01*
X35209500Y-68549888D01*
X35209500Y-69626112D01*
X35204935Y-69672468D01*
X35193204Y-69711138D01*
X35174154Y-69746777D01*
X35148517Y-69778017D01*
X35117277Y-69803654D01*
X35081638Y-69822704D01*
X35042968Y-69834435D01*
X34996612Y-69839000D01*
X34345388Y-69839000D01*
X34299032Y-69834435D01*
X34260362Y-69822704D01*
X34224723Y-69803654D01*
X34193483Y-69778017D01*
X34167846Y-69746777D01*
X34148796Y-69711138D01*
X34137065Y-69672468D01*
X34132500Y-69626112D01*
X34132500Y-68549888D01*
X34137065Y-68503532D01*
X34148796Y-68464862D01*
X34167846Y-68429223D01*
X34193483Y-68397983D01*
X34224723Y-68372346D01*
X34260362Y-68353296D01*
X34299032Y-68341565D01*
X34345388Y-68337000D01*
X34996612Y-68337000D01*
X35042968Y-68341565D01*
G37*
G36*
X39203968Y-68341565D02*
G01*
X39242638Y-68353296D01*
X39278277Y-68372346D01*
X39309517Y-68397983D01*
X39335154Y-68429223D01*
X39354204Y-68464862D01*
X39365935Y-68503532D01*
X39370500Y-68549888D01*
X39370500Y-69626112D01*
X39365935Y-69672468D01*
X39354204Y-69711138D01*
X39335154Y-69746777D01*
X39309517Y-69778017D01*
X39278277Y-69803654D01*
X39242638Y-69822704D01*
X39203968Y-69834435D01*
X39157612Y-69839000D01*
X38506388Y-69839000D01*
X38460032Y-69834435D01*
X38421362Y-69822704D01*
X38385723Y-69803654D01*
X38354483Y-69778017D01*
X38328846Y-69746777D01*
X38309796Y-69711138D01*
X38298065Y-69672468D01*
X38293500Y-69626112D01*
X38293500Y-68549888D01*
X38298065Y-68503532D01*
X38309796Y-68464862D01*
X38328846Y-68429223D01*
X38354483Y-68397983D01*
X38385723Y-68372346D01*
X38421362Y-68353296D01*
X38460032Y-68341565D01*
X38506388Y-68337000D01*
X39157612Y-68337000D01*
X39203968Y-68341565D01*
G37*
G36*
X33167968Y-68341565D02*
G01*
X33206638Y-68353296D01*
X33242277Y-68372346D01*
X33273517Y-68397983D01*
X33299154Y-68429223D01*
X33318204Y-68464862D01*
X33329935Y-68503532D01*
X33334500Y-68549888D01*
X33334500Y-69626112D01*
X33329935Y-69672468D01*
X33318204Y-69711138D01*
X33299154Y-69746777D01*
X33273517Y-69778017D01*
X33242277Y-69803654D01*
X33206638Y-69822704D01*
X33167968Y-69834435D01*
X33121612Y-69839000D01*
X32470388Y-69839000D01*
X32424032Y-69834435D01*
X32385362Y-69822704D01*
X32349723Y-69803654D01*
X32318483Y-69778017D01*
X32292846Y-69746777D01*
X32273796Y-69711138D01*
X32262065Y-69672468D01*
X32257500Y-69626112D01*
X32257500Y-68549888D01*
X32262065Y-68503532D01*
X32273796Y-68464862D01*
X32292846Y-68429223D01*
X32318483Y-68397983D01*
X32349723Y-68372346D01*
X32385362Y-68353296D01*
X32424032Y-68341565D01*
X32470388Y-68337000D01*
X33121612Y-68337000D01*
X33167968Y-68341565D01*
G37*
G36*
X37328968Y-68341565D02*
G01*
X37367638Y-68353296D01*
X37403277Y-68372346D01*
X37434517Y-68397983D01*
X37460154Y-68429223D01*
X37479204Y-68464862D01*
X37490935Y-68503532D01*
X37495500Y-68549888D01*
X37495500Y-69626112D01*
X37490935Y-69672468D01*
X37479204Y-69711138D01*
X37460154Y-69746777D01*
X37434517Y-69778017D01*
X37403277Y-69803654D01*
X37367638Y-69822704D01*
X37328968Y-69834435D01*
X37282612Y-69839000D01*
X36631388Y-69839000D01*
X36585032Y-69834435D01*
X36546362Y-69822704D01*
X36510723Y-69803654D01*
X36479483Y-69778017D01*
X36453846Y-69746777D01*
X36434796Y-69711138D01*
X36423065Y-69672468D01*
X36418500Y-69626112D01*
X36418500Y-68549888D01*
X36423065Y-68503532D01*
X36434796Y-68464862D01*
X36453846Y-68429223D01*
X36479483Y-68397983D01*
X36510723Y-68372346D01*
X36546362Y-68353296D01*
X36585032Y-68341565D01*
X36631388Y-68337000D01*
X37282612Y-68337000D01*
X37328968Y-68341565D01*
G37*
G36*
X66497468Y-68554065D02*
G01*
X66536138Y-68565796D01*
X66571777Y-68584846D01*
X66603017Y-68610483D01*
X66628654Y-68641723D01*
X66647704Y-68677362D01*
X66659435Y-68716032D01*
X66664000Y-68762388D01*
X66664000Y-69413612D01*
X66659435Y-69459968D01*
X66647704Y-69498638D01*
X66628654Y-69534277D01*
X66603017Y-69565517D01*
X66571777Y-69591154D01*
X66536138Y-69610204D01*
X66497468Y-69621935D01*
X66451112Y-69626500D01*
X65374888Y-69626500D01*
X65328532Y-69621935D01*
X65289862Y-69610204D01*
X65254223Y-69591154D01*
X65222983Y-69565517D01*
X65197346Y-69534277D01*
X65178296Y-69498638D01*
X65166565Y-69459968D01*
X65162000Y-69413612D01*
X65162000Y-68762388D01*
X65166565Y-68716032D01*
X65178296Y-68677362D01*
X65197346Y-68641723D01*
X65222983Y-68610483D01*
X65254223Y-68584846D01*
X65289862Y-68565796D01*
X65328532Y-68554065D01*
X65374888Y-68549500D01*
X66451112Y-68549500D01*
X66497468Y-68554065D01*
G37*
G36*
X103873500Y-69583500D02*
G01*
X101866500Y-69583500D01*
X101866500Y-67576500D01*
X103873500Y-67576500D01*
X103873500Y-69583500D01*
G37*
G36*
X100456425Y-67581988D02*
G01*
X100622710Y-67615063D01*
X100805336Y-67690709D01*
X100969694Y-67800530D01*
X101109470Y-67940306D01*
X101219291Y-68104664D01*
X101294937Y-68287290D01*
X101333500Y-68481164D01*
X101333500Y-68678836D01*
X101294937Y-68872710D01*
X101219291Y-69055336D01*
X101109470Y-69219694D01*
X100969694Y-69359470D01*
X100805336Y-69469291D01*
X100622710Y-69544937D01*
X100456425Y-69578012D01*
X100428837Y-69583500D01*
X100231163Y-69583500D01*
X100203575Y-69578012D01*
X100037290Y-69544937D01*
X99854664Y-69469291D01*
X99690306Y-69359470D01*
X99550530Y-69219694D01*
X99440709Y-69055336D01*
X99365063Y-68872710D01*
X99326500Y-68678836D01*
X99326500Y-68481164D01*
X99365063Y-68287290D01*
X99440709Y-68104664D01*
X99550530Y-67940306D01*
X99690306Y-67800530D01*
X99854664Y-67690709D01*
X100037290Y-67615063D01*
X100203575Y-67581988D01*
X100231163Y-67576500D01*
X100428837Y-67576500D01*
X100456425Y-67581988D01*
G37*
G36*
X81406425Y-67581988D02*
G01*
X81572710Y-67615063D01*
X81755336Y-67690709D01*
X81919694Y-67800530D01*
X82059470Y-67940306D01*
X82169291Y-68104664D01*
X82244937Y-68287290D01*
X82283500Y-68481164D01*
X82283500Y-68678836D01*
X82244937Y-68872710D01*
X82169291Y-69055336D01*
X82059470Y-69219694D01*
X81919694Y-69359470D01*
X81755336Y-69469291D01*
X81572710Y-69544937D01*
X81406425Y-69578012D01*
X81378837Y-69583500D01*
X81181163Y-69583500D01*
X81153575Y-69578012D01*
X80987290Y-69544937D01*
X80804664Y-69469291D01*
X80640306Y-69359470D01*
X80500530Y-69219694D01*
X80390709Y-69055336D01*
X80315063Y-68872710D01*
X80276500Y-68678836D01*
X80276500Y-68481164D01*
X80315063Y-68287290D01*
X80390709Y-68104664D01*
X80500530Y-67940306D01*
X80640306Y-67800530D01*
X80804664Y-67690709D01*
X80987290Y-67615063D01*
X81153575Y-67581988D01*
X81181163Y-67576500D01*
X81378837Y-67576500D01*
X81406425Y-67581988D01*
G37*
G36*
X84823500Y-69583500D02*
G01*
X82816500Y-69583500D01*
X82816500Y-67576500D01*
X84823500Y-67576500D01*
X84823500Y-69583500D01*
G37*
G36*
X48082468Y-67889065D02*
G01*
X48121138Y-67900796D01*
X48156777Y-67919846D01*
X48188017Y-67945483D01*
X48213654Y-67976723D01*
X48232704Y-68012362D01*
X48244435Y-68051032D01*
X48249000Y-68097388D01*
X48249000Y-68748612D01*
X48244435Y-68794968D01*
X48232704Y-68833638D01*
X48213654Y-68869277D01*
X48188017Y-68900517D01*
X48156777Y-68926154D01*
X48121138Y-68945204D01*
X48082468Y-68956935D01*
X48036112Y-68961500D01*
X46959888Y-68961500D01*
X46913532Y-68956935D01*
X46874862Y-68945204D01*
X46839223Y-68926154D01*
X46807983Y-68900517D01*
X46782346Y-68869277D01*
X46763296Y-68833638D01*
X46751565Y-68794968D01*
X46747000Y-68748612D01*
X46747000Y-68097388D01*
X46751565Y-68051032D01*
X46763296Y-68012362D01*
X46782346Y-67976723D01*
X46807983Y-67945483D01*
X46839223Y-67919846D01*
X46874862Y-67900796D01*
X46913532Y-67889065D01*
X46959888Y-67884500D01*
X48036112Y-67884500D01*
X48082468Y-67889065D01*
G37*
G36*
X45161468Y-67889065D02*
G01*
X45200138Y-67900796D01*
X45235777Y-67919846D01*
X45267017Y-67945483D01*
X45292654Y-67976723D01*
X45311704Y-68012362D01*
X45323435Y-68051032D01*
X45328000Y-68097388D01*
X45328000Y-68748612D01*
X45323435Y-68794968D01*
X45311704Y-68833638D01*
X45292654Y-68869277D01*
X45267017Y-68900517D01*
X45235777Y-68926154D01*
X45200138Y-68945204D01*
X45161468Y-68956935D01*
X45115112Y-68961500D01*
X44038888Y-68961500D01*
X43992532Y-68956935D01*
X43953862Y-68945204D01*
X43918223Y-68926154D01*
X43886983Y-68900517D01*
X43861346Y-68869277D01*
X43842296Y-68833638D01*
X43830565Y-68794968D01*
X43826000Y-68748612D01*
X43826000Y-68097388D01*
X43830565Y-68051032D01*
X43842296Y-68012362D01*
X43861346Y-67976723D01*
X43886983Y-67945483D01*
X43918223Y-67919846D01*
X43953862Y-67900796D01*
X43992532Y-67889065D01*
X44038888Y-67884500D01*
X45115112Y-67884500D01*
X45161468Y-67889065D01*
G37*
G36*
X59571000Y-68126000D02*
G01*
X50919000Y-68126000D01*
X50919000Y-66524000D01*
X59571000Y-66524000D01*
X59571000Y-68126000D01*
G37*
G36*
X48082468Y-66014065D02*
G01*
X48121138Y-66025796D01*
X48156777Y-66044846D01*
X48188017Y-66070483D01*
X48213654Y-66101723D01*
X48232704Y-66137362D01*
X48244435Y-66176032D01*
X48249000Y-66222388D01*
X48249000Y-66873612D01*
X48244435Y-66919968D01*
X48232704Y-66958638D01*
X48213654Y-66994277D01*
X48188017Y-67025517D01*
X48156777Y-67051154D01*
X48121138Y-67070204D01*
X48082468Y-67081935D01*
X48036112Y-67086500D01*
X46959888Y-67086500D01*
X46913532Y-67081935D01*
X46874862Y-67070204D01*
X46839223Y-67051154D01*
X46807983Y-67025517D01*
X46782346Y-66994277D01*
X46763296Y-66958638D01*
X46751565Y-66919968D01*
X46747000Y-66873612D01*
X46747000Y-66222388D01*
X46751565Y-66176032D01*
X46763296Y-66137362D01*
X46782346Y-66101723D01*
X46807983Y-66070483D01*
X46839223Y-66044846D01*
X46874862Y-66025796D01*
X46913532Y-66014065D01*
X46959888Y-66009500D01*
X48036112Y-66009500D01*
X48082468Y-66014065D01*
G37*
G36*
X45161468Y-66014065D02*
G01*
X45200138Y-66025796D01*
X45235777Y-66044846D01*
X45267017Y-66070483D01*
X45292654Y-66101723D01*
X45311704Y-66137362D01*
X45323435Y-66176032D01*
X45328000Y-66222388D01*
X45328000Y-66873612D01*
X45323435Y-66919968D01*
X45311704Y-66958638D01*
X45292654Y-66994277D01*
X45267017Y-67025517D01*
X45235777Y-67051154D01*
X45200138Y-67070204D01*
X45161468Y-67081935D01*
X45115112Y-67086500D01*
X44038888Y-67086500D01*
X43992532Y-67081935D01*
X43953862Y-67070204D01*
X43918223Y-67051154D01*
X43886983Y-67025517D01*
X43861346Y-66994277D01*
X43842296Y-66958638D01*
X43830565Y-66919968D01*
X43826000Y-66873612D01*
X43826000Y-66222388D01*
X43830565Y-66176032D01*
X43842296Y-66137362D01*
X43861346Y-66101723D01*
X43886983Y-66070483D01*
X43918223Y-66044846D01*
X43953862Y-66025796D01*
X43992532Y-66014065D01*
X44038888Y-66009500D01*
X45115112Y-66009500D01*
X45161468Y-66014065D01*
G37*
G36*
X110188500Y-65651000D02*
G01*
X108886500Y-65651000D01*
X108886500Y-64649000D01*
X110188500Y-64649000D01*
X110188500Y-65651000D01*
G37*
G36*
X91138500Y-65651000D02*
G01*
X89836500Y-65651000D01*
X89836500Y-64649000D01*
X91138500Y-64649000D01*
X91138500Y-65651000D01*
G37*
G36*
X83146474Y-61533684D02*
G01*
X83364474Y-61623983D01*
X83518623Y-61687833D01*
X83853548Y-61911623D01*
X84138377Y-62196452D01*
X84362167Y-62531377D01*
X84394562Y-62609586D01*
X84516316Y-62903526D01*
X84594900Y-63298594D01*
X84594900Y-63701406D01*
X84516316Y-64096474D01*
X84465451Y-64219272D01*
X84362167Y-64468623D01*
X84138377Y-64803548D01*
X83853548Y-65088377D01*
X83518623Y-65312167D01*
X83364474Y-65376017D01*
X83146474Y-65466316D01*
X82751406Y-65544900D01*
X82348594Y-65544900D01*
X81953526Y-65466316D01*
X81735526Y-65376017D01*
X81581377Y-65312167D01*
X81246452Y-65088377D01*
X80961623Y-64803548D01*
X80737833Y-64468623D01*
X80634549Y-64219272D01*
X80583684Y-64096474D01*
X80505100Y-63701406D01*
X80505100Y-63298594D01*
X80583684Y-62903526D01*
X80705438Y-62609586D01*
X80737833Y-62531377D01*
X80961623Y-62196452D01*
X81246452Y-61911623D01*
X81581377Y-61687833D01*
X81735526Y-61623983D01*
X81953526Y-61533684D01*
X82348594Y-61455100D01*
X82751406Y-61455100D01*
X83146474Y-61533684D01*
G37*
G36*
X102196474Y-61533684D02*
G01*
X102414474Y-61623983D01*
X102568623Y-61687833D01*
X102903548Y-61911623D01*
X103188377Y-62196452D01*
X103412167Y-62531377D01*
X103444562Y-62609586D01*
X103566316Y-62903526D01*
X103644900Y-63298594D01*
X103644900Y-63701406D01*
X103566316Y-64096474D01*
X103515451Y-64219272D01*
X103412167Y-64468623D01*
X103188377Y-64803548D01*
X102903548Y-65088377D01*
X102568623Y-65312167D01*
X102414474Y-65376017D01*
X102196474Y-65466316D01*
X101801406Y-65544900D01*
X101398594Y-65544900D01*
X101003526Y-65466316D01*
X100785526Y-65376017D01*
X100631377Y-65312167D01*
X100296452Y-65088377D01*
X100011623Y-64803548D01*
X99787833Y-64468623D01*
X99684549Y-64219272D01*
X99633684Y-64096474D01*
X99555100Y-63701406D01*
X99555100Y-63298594D01*
X99633684Y-62903526D01*
X99755438Y-62609586D01*
X99787833Y-62531377D01*
X100011623Y-62196452D01*
X100296452Y-61911623D01*
X100631377Y-61687833D01*
X100785526Y-61623983D01*
X101003526Y-61533684D01*
X101398594Y-61455100D01*
X101801406Y-61455100D01*
X102196474Y-61533684D01*
G37*
G36*
X106950104Y-62609585D02*
G01*
X107118626Y-62679389D01*
X107270291Y-62780728D01*
X107399272Y-62909709D01*
X107500611Y-63061374D01*
X107570415Y-63229896D01*
X107606000Y-63408797D01*
X107606000Y-63591203D01*
X107570415Y-63770104D01*
X107500611Y-63938626D01*
X107399272Y-64090291D01*
X107270291Y-64219272D01*
X107118626Y-64320611D01*
X106950104Y-64390415D01*
X106771203Y-64426000D01*
X106588797Y-64426000D01*
X106409896Y-64390415D01*
X106241374Y-64320611D01*
X106089709Y-64219272D01*
X105960728Y-64090291D01*
X105859389Y-63938626D01*
X105789585Y-63770104D01*
X105754000Y-63591203D01*
X105754000Y-63408797D01*
X105789585Y-63229896D01*
X105859389Y-63061374D01*
X105960728Y-62909709D01*
X106089709Y-62780728D01*
X106241374Y-62679389D01*
X106409896Y-62609585D01*
X106588797Y-62574000D01*
X106771203Y-62574000D01*
X106950104Y-62609585D01*
G37*
G36*
X96790104Y-62609585D02*
G01*
X96958626Y-62679389D01*
X97110291Y-62780728D01*
X97239272Y-62909709D01*
X97340611Y-63061374D01*
X97410415Y-63229896D01*
X97446000Y-63408797D01*
X97446000Y-63591203D01*
X97410415Y-63770104D01*
X97340611Y-63938626D01*
X97239272Y-64090291D01*
X97110291Y-64219272D01*
X96958626Y-64320611D01*
X96790104Y-64390415D01*
X96611203Y-64426000D01*
X96428797Y-64426000D01*
X96249896Y-64390415D01*
X96081374Y-64320611D01*
X95929709Y-64219272D01*
X95800728Y-64090291D01*
X95699389Y-63938626D01*
X95629585Y-63770104D01*
X95594000Y-63591203D01*
X95594000Y-63408797D01*
X95629585Y-63229896D01*
X95699389Y-63061374D01*
X95800728Y-62909709D01*
X95929709Y-62780728D01*
X96081374Y-62679389D01*
X96249896Y-62609585D01*
X96428797Y-62574000D01*
X96611203Y-62574000D01*
X96790104Y-62609585D01*
G37*
G36*
X87900104Y-62609585D02*
G01*
X88068626Y-62679389D01*
X88220291Y-62780728D01*
X88349272Y-62909709D01*
X88450611Y-63061374D01*
X88520415Y-63229896D01*
X88556000Y-63408797D01*
X88556000Y-63591203D01*
X88520415Y-63770104D01*
X88450611Y-63938626D01*
X88349272Y-64090291D01*
X88220291Y-64219272D01*
X88068626Y-64320611D01*
X87900104Y-64390415D01*
X87721203Y-64426000D01*
X87538797Y-64426000D01*
X87359896Y-64390415D01*
X87191374Y-64320611D01*
X87039709Y-64219272D01*
X86910728Y-64090291D01*
X86809389Y-63938626D01*
X86739585Y-63770104D01*
X86704000Y-63591203D01*
X86704000Y-63408797D01*
X86739585Y-63229896D01*
X86809389Y-63061374D01*
X86910728Y-62909709D01*
X87039709Y-62780728D01*
X87191374Y-62679389D01*
X87359896Y-62609585D01*
X87538797Y-62574000D01*
X87721203Y-62574000D01*
X87900104Y-62609585D01*
G37*
G36*
X77740104Y-62609585D02*
G01*
X77908626Y-62679389D01*
X78060291Y-62780728D01*
X78189272Y-62909709D01*
X78290611Y-63061374D01*
X78360415Y-63229896D01*
X78396000Y-63408797D01*
X78396000Y-63591203D01*
X78360415Y-63770104D01*
X78290611Y-63938626D01*
X78189272Y-64090291D01*
X78060291Y-64219272D01*
X77908626Y-64320611D01*
X77740104Y-64390415D01*
X77561203Y-64426000D01*
X77378797Y-64426000D01*
X77199896Y-64390415D01*
X77031374Y-64320611D01*
X76879709Y-64219272D01*
X76750728Y-64090291D01*
X76649389Y-63938626D01*
X76579585Y-63770104D01*
X76544000Y-63591203D01*
X76544000Y-63408797D01*
X76579585Y-63229896D01*
X76649389Y-63061374D01*
X76750728Y-62909709D01*
X76879709Y-62780728D01*
X77031374Y-62679389D01*
X77199896Y-62609585D01*
X77378797Y-62574000D01*
X77561203Y-62574000D01*
X77740104Y-62609585D01*
G37*
G36*
X56799000Y-62803000D02*
G01*
X55297000Y-62803000D01*
X55297000Y-61501000D01*
X56799000Y-61501000D01*
X56799000Y-62803000D01*
G37*
G36*
X54599000Y-62803000D02*
G01*
X53097000Y-62803000D01*
X53097000Y-61501000D01*
X54599000Y-61501000D01*
X54599000Y-62803000D01*
G37*
G36*
X59512468Y-61696065D02*
G01*
X59551138Y-61707796D01*
X59586777Y-61726846D01*
X59618017Y-61752483D01*
X59643654Y-61783723D01*
X59662704Y-61819362D01*
X59674435Y-61858032D01*
X59679000Y-61904388D01*
X59679000Y-62555612D01*
X59674435Y-62601968D01*
X59662704Y-62640638D01*
X59643654Y-62676277D01*
X59618017Y-62707517D01*
X59586777Y-62733154D01*
X59551138Y-62752204D01*
X59512468Y-62763935D01*
X59466112Y-62768500D01*
X58389888Y-62768500D01*
X58343532Y-62763935D01*
X58304862Y-62752204D01*
X58269223Y-62733154D01*
X58237983Y-62707517D01*
X58212346Y-62676277D01*
X58193296Y-62640638D01*
X58181565Y-62601968D01*
X58177000Y-62555612D01*
X58177000Y-61904388D01*
X58181565Y-61858032D01*
X58193296Y-61819362D01*
X58212346Y-61783723D01*
X58237983Y-61752483D01*
X58269223Y-61726846D01*
X58304862Y-61707796D01*
X58343532Y-61696065D01*
X58389888Y-61691500D01*
X59466112Y-61691500D01*
X59512468Y-61696065D01*
G37*
G36*
X51638468Y-61666065D02*
G01*
X51677138Y-61677796D01*
X51712777Y-61696846D01*
X51744017Y-61722483D01*
X51769654Y-61753723D01*
X51788704Y-61789362D01*
X51800435Y-61828032D01*
X51805000Y-61874388D01*
X51805000Y-62525612D01*
X51800435Y-62571968D01*
X51788704Y-62610638D01*
X51769654Y-62646277D01*
X51744017Y-62677517D01*
X51712777Y-62703154D01*
X51677138Y-62722204D01*
X51638468Y-62733935D01*
X51592112Y-62738500D01*
X50515888Y-62738500D01*
X50469532Y-62733935D01*
X50430862Y-62722204D01*
X50395223Y-62703154D01*
X50363983Y-62677517D01*
X50338346Y-62646277D01*
X50319296Y-62610638D01*
X50307565Y-62571968D01*
X50303000Y-62525612D01*
X50303000Y-61874388D01*
X50307565Y-61828032D01*
X50319296Y-61789362D01*
X50338346Y-61753723D01*
X50363983Y-61722483D01*
X50395223Y-61696846D01*
X50430862Y-61677796D01*
X50469532Y-61666065D01*
X50515888Y-61661500D01*
X51592112Y-61661500D01*
X51638468Y-61666065D01*
G37*
G36*
X91138500Y-62351000D02*
G01*
X89836500Y-62351000D01*
X89836500Y-61349000D01*
X91138500Y-61349000D01*
X91138500Y-62351000D01*
G37*
G36*
X110188500Y-62351000D02*
G01*
X108886500Y-62351000D01*
X108886500Y-61349000D01*
X110188500Y-61349000D01*
X110188500Y-62351000D01*
G37*
G36*
X99123205Y-58323881D02*
G01*
X99128645Y-58324000D01*
X99215828Y-58324000D01*
X99232097Y-58327236D01*
X99250956Y-58329515D01*
X99267532Y-58330246D01*
X99352223Y-58351010D01*
X99357518Y-58352184D01*
X99443027Y-58369193D01*
X99458362Y-58375545D01*
X99476401Y-58381455D01*
X99492521Y-58385407D01*
X99571504Y-58422280D01*
X99576494Y-58424477D01*
X99657045Y-58457842D01*
X99670841Y-58467060D01*
X99687393Y-58476382D01*
X99702426Y-58483400D01*
X99772694Y-58534971D01*
X99777192Y-58538122D01*
X99849656Y-58586541D01*
X99861383Y-58598268D01*
X99875809Y-58610648D01*
X99889179Y-58620461D01*
X99889180Y-58620462D01*
X99948021Y-58684733D01*
X99951829Y-58688714D01*
X100013459Y-58750344D01*
X100022674Y-58764135D01*
X100034396Y-58779078D01*
X100045605Y-58791321D01*
X100090799Y-58865874D01*
X100093746Y-58870501D01*
X100142158Y-58942955D01*
X100148505Y-58958277D01*
X100157092Y-58975231D01*
X100165691Y-58989417D01*
X100195478Y-59071368D01*
X100197452Y-59076448D01*
X100230807Y-59156973D01*
X100230807Y-59156974D01*
X100234041Y-59173233D01*
X100239158Y-59191542D01*
X100244825Y-59207134D01*
X100258055Y-59293345D01*
X100259001Y-59298713D01*
X100276000Y-59384173D01*
X100276000Y-59400752D01*
X100277444Y-59419692D01*
X100279963Y-59436104D01*
X100276120Y-59523249D01*
X100276000Y-59528689D01*
X100276000Y-59615825D01*
X100272766Y-59632083D01*
X100270488Y-59650941D01*
X100269756Y-59667531D01*
X100248988Y-59752237D01*
X100247812Y-59757537D01*
X100230807Y-59843027D01*
X100224457Y-59858357D01*
X100218549Y-59876393D01*
X100214595Y-59892520D01*
X100177711Y-59971526D01*
X100175511Y-59976523D01*
X100142158Y-60057045D01*
X100132944Y-60070835D01*
X100123622Y-60087387D01*
X100116602Y-60102424D01*
X100065011Y-60172720D01*
X100061866Y-60177210D01*
X100013461Y-60249654D01*
X99956460Y-60306655D01*
X99951811Y-60311563D01*
X98855248Y-61533684D01*
X98626723Y-61788376D01*
X98498679Y-61905602D01*
X98407706Y-61960750D01*
X98300583Y-62025689D01*
X98082866Y-62104823D01*
X97853895Y-62139961D01*
X97622470Y-62129754D01*
X97397481Y-62074593D01*
X97292727Y-62025689D01*
X97187579Y-61976602D01*
X97089184Y-61904388D01*
X97000823Y-61839539D01*
X96921122Y-61752483D01*
X96844398Y-61668679D01*
X96762564Y-61533685D01*
X96724311Y-61470583D01*
X96645177Y-61252866D01*
X96610039Y-61023895D01*
X96620246Y-60792470D01*
X96675407Y-60567481D01*
X96726972Y-60457028D01*
X96773398Y-60357580D01*
X96773400Y-60357577D01*
X96876114Y-60217622D01*
X97631245Y-59376027D01*
X98162787Y-58783621D01*
X98173681Y-58769589D01*
X98186539Y-58750346D01*
X98243573Y-58693312D01*
X98248223Y-58688403D01*
X98263278Y-58671624D01*
X98284701Y-58652011D01*
X98288682Y-58648203D01*
X98350346Y-58586539D01*
X98364143Y-58577320D01*
X98379102Y-58565585D01*
X98391321Y-58554398D01*
X98423385Y-58534961D01*
X98465830Y-58509231D01*
X98470421Y-58506308D01*
X98542955Y-58457842D01*
X98558300Y-58451486D01*
X98575248Y-58442901D01*
X98589416Y-58434312D01*
X98589417Y-58434312D01*
X98589418Y-58434311D01*
X98671312Y-58404545D01*
X98676410Y-58402563D01*
X98756973Y-58369193D01*
X98773252Y-58365955D01*
X98791542Y-58360844D01*
X98807135Y-58355177D01*
X98893300Y-58341954D01*
X98898663Y-58341009D01*
X98984173Y-58324000D01*
X99000766Y-58324000D01*
X99019709Y-58322555D01*
X99036106Y-58320039D01*
X99123205Y-58323881D01*
G37*
G36*
X80073205Y-58323881D02*
G01*
X80078645Y-58324000D01*
X80165828Y-58324000D01*
X80182097Y-58327236D01*
X80200956Y-58329515D01*
X80217532Y-58330246D01*
X80302223Y-58351010D01*
X80307518Y-58352184D01*
X80393027Y-58369193D01*
X80408362Y-58375545D01*
X80426401Y-58381455D01*
X80442521Y-58385407D01*
X80521504Y-58422280D01*
X80526494Y-58424477D01*
X80607045Y-58457842D01*
X80620841Y-58467060D01*
X80637393Y-58476382D01*
X80652426Y-58483400D01*
X80722694Y-58534971D01*
X80727192Y-58538122D01*
X80799656Y-58586541D01*
X80811383Y-58598268D01*
X80825809Y-58610648D01*
X80839179Y-58620461D01*
X80839180Y-58620462D01*
X80898021Y-58684733D01*
X80901829Y-58688714D01*
X80963459Y-58750344D01*
X80972674Y-58764135D01*
X80984396Y-58779078D01*
X80995605Y-58791321D01*
X81040799Y-58865874D01*
X81043746Y-58870501D01*
X81092158Y-58942955D01*
X81098505Y-58958277D01*
X81107092Y-58975231D01*
X81115691Y-58989417D01*
X81145478Y-59071368D01*
X81147452Y-59076448D01*
X81180807Y-59156973D01*
X81180807Y-59156974D01*
X81184041Y-59173233D01*
X81189158Y-59191542D01*
X81194825Y-59207134D01*
X81208055Y-59293345D01*
X81209001Y-59298713D01*
X81226000Y-59384173D01*
X81226000Y-59400752D01*
X81227444Y-59419692D01*
X81229963Y-59436104D01*
X81226120Y-59523249D01*
X81226000Y-59528689D01*
X81226000Y-59615825D01*
X81222766Y-59632083D01*
X81220488Y-59650941D01*
X81219756Y-59667531D01*
X81198988Y-59752237D01*
X81197812Y-59757537D01*
X81180807Y-59843027D01*
X81174457Y-59858357D01*
X81168549Y-59876393D01*
X81164595Y-59892520D01*
X81127711Y-59971526D01*
X81125511Y-59976523D01*
X81092158Y-60057045D01*
X81082944Y-60070835D01*
X81073622Y-60087387D01*
X81066602Y-60102424D01*
X81015011Y-60172720D01*
X81011866Y-60177210D01*
X80963461Y-60249654D01*
X80906460Y-60306655D01*
X80901811Y-60311563D01*
X79805248Y-61533684D01*
X79576723Y-61788376D01*
X79448679Y-61905602D01*
X79357706Y-61960750D01*
X79250583Y-62025689D01*
X79032866Y-62104823D01*
X78803895Y-62139961D01*
X78572470Y-62129754D01*
X78347481Y-62074593D01*
X78242727Y-62025689D01*
X78137579Y-61976602D01*
X78039184Y-61904388D01*
X77950823Y-61839539D01*
X77871122Y-61752483D01*
X77794398Y-61668679D01*
X77712564Y-61533685D01*
X77674311Y-61470583D01*
X77595177Y-61252866D01*
X77560039Y-61023895D01*
X77570246Y-60792470D01*
X77625407Y-60567481D01*
X77676972Y-60457028D01*
X77723398Y-60357580D01*
X77723400Y-60357577D01*
X77826114Y-60217622D01*
X78581245Y-59376027D01*
X79112787Y-58783621D01*
X79123681Y-58769589D01*
X79136539Y-58750346D01*
X79193573Y-58693312D01*
X79198223Y-58688403D01*
X79213278Y-58671624D01*
X79234701Y-58652011D01*
X79238682Y-58648203D01*
X79300346Y-58586539D01*
X79314143Y-58577320D01*
X79329102Y-58565585D01*
X79341321Y-58554398D01*
X79373385Y-58534961D01*
X79415830Y-58509231D01*
X79420421Y-58506308D01*
X79492955Y-58457842D01*
X79508300Y-58451486D01*
X79525248Y-58442901D01*
X79539416Y-58434312D01*
X79539417Y-58434312D01*
X79539418Y-58434311D01*
X79621312Y-58404545D01*
X79626410Y-58402563D01*
X79706973Y-58369193D01*
X79723252Y-58365955D01*
X79741542Y-58360844D01*
X79757135Y-58355177D01*
X79843300Y-58341954D01*
X79848663Y-58341009D01*
X79934173Y-58324000D01*
X79950766Y-58324000D01*
X79969709Y-58322555D01*
X79986106Y-58320039D01*
X80073205Y-58323881D01*
G37*
G36*
X40021627Y-58865037D02*
G01*
X40191466Y-58916557D01*
X40347991Y-59000222D01*
X40383729Y-59029552D01*
X40485186Y-59112814D01*
X40549796Y-59191543D01*
X40597778Y-59250009D01*
X40681443Y-59406534D01*
X40732963Y-59576373D01*
X40746000Y-59708742D01*
X40746000Y-60797258D01*
X40732963Y-60929627D01*
X40681443Y-61099466D01*
X40597778Y-61255991D01*
X40568448Y-61291729D01*
X40485186Y-61393186D01*
X40347989Y-61505779D01*
X40191467Y-61589442D01*
X40191465Y-61589443D01*
X40021626Y-61640963D01*
X39845000Y-61658359D01*
X39668373Y-61640963D01*
X39498534Y-61589443D01*
X39342009Y-61505778D01*
X39280258Y-61455100D01*
X39204814Y-61393186D01*
X39092221Y-61255989D01*
X39008558Y-61099467D01*
X39008557Y-61099465D01*
X38957037Y-60929626D01*
X38944000Y-60797257D01*
X38944001Y-59708742D01*
X38957038Y-59576373D01*
X39008558Y-59406534D01*
X39092223Y-59250009D01*
X39140205Y-59191543D01*
X39204815Y-59112814D01*
X39306272Y-59029552D01*
X39342010Y-59000222D01*
X39498535Y-58916557D01*
X39668374Y-58865037D01*
X39845000Y-58847641D01*
X40021627Y-58865037D01*
G37*
G36*
X32721627Y-58865037D02*
G01*
X32891466Y-58916557D01*
X33047991Y-59000222D01*
X33083729Y-59029552D01*
X33185186Y-59112814D01*
X33249796Y-59191543D01*
X33297778Y-59250009D01*
X33381443Y-59406534D01*
X33432963Y-59576373D01*
X33446000Y-59708742D01*
X33446000Y-60797258D01*
X33432963Y-60929627D01*
X33381443Y-61099466D01*
X33297778Y-61255991D01*
X33268448Y-61291729D01*
X33185186Y-61393186D01*
X33047989Y-61505779D01*
X32891467Y-61589442D01*
X32891465Y-61589443D01*
X32721626Y-61640963D01*
X32545000Y-61658359D01*
X32368373Y-61640963D01*
X32198534Y-61589443D01*
X32042009Y-61505778D01*
X31980258Y-61455100D01*
X31904814Y-61393186D01*
X31792221Y-61255989D01*
X31708558Y-61099467D01*
X31708557Y-61099465D01*
X31657037Y-60929626D01*
X31644000Y-60797257D01*
X31644001Y-59708742D01*
X31657038Y-59576373D01*
X31708558Y-59406534D01*
X31792223Y-59250009D01*
X31840205Y-59191543D01*
X31904815Y-59112814D01*
X32006272Y-59029552D01*
X32042010Y-59000222D01*
X32198535Y-58916557D01*
X32368374Y-58865037D01*
X32545000Y-58847641D01*
X32721627Y-58865037D01*
G37*
G36*
X38096000Y-61429000D02*
G01*
X34294000Y-61429000D01*
X34294000Y-59077000D01*
X38096000Y-59077000D01*
X38096000Y-61429000D01*
G37*
G36*
X56799000Y-61103000D02*
G01*
X55297000Y-61103000D01*
X55297000Y-59801000D01*
X56799000Y-59801000D01*
X56799000Y-61103000D01*
G37*
G36*
X54599000Y-61103000D02*
G01*
X53097000Y-61103000D01*
X53097000Y-59801000D01*
X54599000Y-59801000D01*
X54599000Y-61103000D01*
G37*
G36*
X59512468Y-59821065D02*
G01*
X59551138Y-59832796D01*
X59586777Y-59851846D01*
X59618017Y-59877483D01*
X59643654Y-59908723D01*
X59662704Y-59944362D01*
X59674435Y-59983032D01*
X59679000Y-60029388D01*
X59679000Y-60680612D01*
X59674435Y-60726968D01*
X59662704Y-60765638D01*
X59643654Y-60801277D01*
X59618017Y-60832517D01*
X59586777Y-60858154D01*
X59551138Y-60877204D01*
X59512468Y-60888935D01*
X59466112Y-60893500D01*
X58389888Y-60893500D01*
X58343532Y-60888935D01*
X58304862Y-60877204D01*
X58269223Y-60858154D01*
X58237983Y-60832517D01*
X58212346Y-60801277D01*
X58193296Y-60765638D01*
X58181565Y-60726968D01*
X58177000Y-60680612D01*
X58177000Y-60029388D01*
X58181565Y-59983032D01*
X58193296Y-59944362D01*
X58212346Y-59908723D01*
X58237983Y-59877483D01*
X58269223Y-59851846D01*
X58304862Y-59832796D01*
X58343532Y-59821065D01*
X58389888Y-59816500D01*
X59466112Y-59816500D01*
X59512468Y-59821065D01*
G37*
G36*
X51638468Y-59791065D02*
G01*
X51677138Y-59802796D01*
X51712777Y-59821846D01*
X51744017Y-59847483D01*
X51769654Y-59878723D01*
X51788704Y-59914362D01*
X51800435Y-59953032D01*
X51805000Y-59999388D01*
X51805000Y-60650612D01*
X51800435Y-60696968D01*
X51788704Y-60735638D01*
X51769654Y-60771277D01*
X51744017Y-60802517D01*
X51712777Y-60828154D01*
X51677138Y-60847204D01*
X51638468Y-60858935D01*
X51592112Y-60863500D01*
X50515888Y-60863500D01*
X50469532Y-60858935D01*
X50430862Y-60847204D01*
X50395223Y-60828154D01*
X50363983Y-60802517D01*
X50338346Y-60771277D01*
X50319296Y-60735638D01*
X50307565Y-60696968D01*
X50303000Y-60650612D01*
X50303000Y-59999388D01*
X50307565Y-59953032D01*
X50319296Y-59914362D01*
X50338346Y-59878723D01*
X50363983Y-59847483D01*
X50395223Y-59821846D01*
X50430862Y-59802796D01*
X50469532Y-59791065D01*
X50515888Y-59786500D01*
X51592112Y-59786500D01*
X51638468Y-59791065D01*
G37*
G36*
X104228127Y-57242261D02*
G01*
X104248900Y-57244000D01*
X104255827Y-57244000D01*
X104350754Y-57262882D01*
X104354348Y-57263542D01*
X104449730Y-57279624D01*
X104456203Y-57282085D01*
X104476228Y-57287841D01*
X104483027Y-57289193D01*
X104545414Y-57315034D01*
X104572443Y-57326230D01*
X104575844Y-57327581D01*
X104666255Y-57361961D01*
X104672127Y-57365640D01*
X104690636Y-57375187D01*
X104697045Y-57377842D01*
X104777563Y-57431642D01*
X104780554Y-57433578D01*
X104862557Y-57484959D01*
X104867584Y-57489700D01*
X104883896Y-57502691D01*
X104889652Y-57506537D01*
X104958110Y-57574995D01*
X104960689Y-57577499D01*
X105031090Y-57643889D01*
X105035095Y-57649519D01*
X105048559Y-57665444D01*
X105053459Y-57670344D01*
X105107244Y-57750839D01*
X105109291Y-57753807D01*
X105165380Y-57832645D01*
X105168214Y-57838958D01*
X105178308Y-57857193D01*
X105182158Y-57862955D01*
X105219220Y-57952430D01*
X105220624Y-57955685D01*
X105260265Y-58043973D01*
X105261815Y-58050725D01*
X105268152Y-58070562D01*
X105270807Y-58076973D01*
X105289692Y-58171917D01*
X105290438Y-58175401D01*
X105312098Y-58269751D01*
X105312098Y-58269754D01*
X105312300Y-58276654D01*
X105314647Y-58297370D01*
X105316000Y-58304174D01*
X105316000Y-58400986D01*
X105316053Y-58404584D01*
X105317188Y-58443277D01*
X105316295Y-58456225D01*
X105316000Y-58464797D01*
X105316000Y-58535826D01*
X105310081Y-58565585D01*
X105309604Y-58567979D01*
X105307500Y-58583750D01*
X105269238Y-59138545D01*
X105240376Y-59309730D01*
X105158038Y-59526255D01*
X105035041Y-59722557D01*
X104876111Y-59891090D01*
X104687355Y-60025380D01*
X104476027Y-60120265D01*
X104250249Y-60172098D01*
X104018698Y-60178889D01*
X104018697Y-60178889D01*
X103973012Y-60171186D01*
X103790270Y-60140376D01*
X103573745Y-60058038D01*
X103377443Y-59935041D01*
X103208910Y-59776111D01*
X103074620Y-59587355D01*
X102979735Y-59376027D01*
X102927902Y-59150249D01*
X102922812Y-58976723D01*
X102963704Y-58383794D01*
X102964000Y-58375196D01*
X102964000Y-58304175D01*
X102982882Y-58209250D01*
X102983544Y-58205645D01*
X102989231Y-58171917D01*
X102999624Y-58110270D01*
X103002085Y-58103799D01*
X103007842Y-58083767D01*
X103009193Y-58076974D01*
X103011843Y-58070576D01*
X103046264Y-57987476D01*
X103047553Y-57984230D01*
X103081962Y-57893745D01*
X103085636Y-57887881D01*
X103095187Y-57869365D01*
X103097842Y-57862955D01*
X103151657Y-57782415D01*
X103153577Y-57779449D01*
X103204959Y-57697443D01*
X103209711Y-57692404D01*
X103222689Y-57676107D01*
X103226537Y-57670348D01*
X103294993Y-57601892D01*
X103297546Y-57599262D01*
X103318023Y-57577548D01*
X103363889Y-57528910D01*
X103369521Y-57524903D01*
X103385447Y-57511438D01*
X103390346Y-57506539D01*
X103470824Y-57452766D01*
X103473806Y-57450710D01*
X103552645Y-57394620D01*
X103558955Y-57391787D01*
X103577194Y-57381691D01*
X103582951Y-57377844D01*
X103582954Y-57377843D01*
X103582955Y-57377842D01*
X103672429Y-57340781D01*
X103675687Y-57339375D01*
X103763973Y-57299735D01*
X103770725Y-57298185D01*
X103790562Y-57291848D01*
X103796973Y-57289193D01*
X103891899Y-57270311D01*
X103895446Y-57269551D01*
X103989751Y-57247901D01*
X103992130Y-57247831D01*
X103996665Y-57247698D01*
X104017381Y-57245351D01*
X104024174Y-57244000D01*
X104120959Y-57244000D01*
X104124584Y-57243947D01*
X104221302Y-57241110D01*
X104228127Y-57242261D01*
G37*
G36*
X85178127Y-57242261D02*
G01*
X85198900Y-57244000D01*
X85205827Y-57244000D01*
X85300754Y-57262882D01*
X85304348Y-57263542D01*
X85399730Y-57279624D01*
X85406203Y-57282085D01*
X85426228Y-57287841D01*
X85433027Y-57289193D01*
X85495414Y-57315034D01*
X85522443Y-57326230D01*
X85525844Y-57327581D01*
X85616255Y-57361961D01*
X85622127Y-57365640D01*
X85640636Y-57375187D01*
X85647045Y-57377842D01*
X85727563Y-57431642D01*
X85730554Y-57433578D01*
X85812557Y-57484959D01*
X85817584Y-57489700D01*
X85833896Y-57502691D01*
X85839652Y-57506537D01*
X85908110Y-57574995D01*
X85910689Y-57577499D01*
X85981090Y-57643889D01*
X85985095Y-57649519D01*
X85998559Y-57665444D01*
X86003459Y-57670344D01*
X86057244Y-57750839D01*
X86059291Y-57753807D01*
X86115380Y-57832645D01*
X86118214Y-57838958D01*
X86128308Y-57857193D01*
X86132158Y-57862955D01*
X86169220Y-57952430D01*
X86170624Y-57955685D01*
X86210265Y-58043973D01*
X86211815Y-58050725D01*
X86218152Y-58070562D01*
X86220807Y-58076973D01*
X86239692Y-58171917D01*
X86240438Y-58175401D01*
X86262098Y-58269751D01*
X86262098Y-58269754D01*
X86262300Y-58276654D01*
X86264647Y-58297370D01*
X86266000Y-58304174D01*
X86266000Y-58400986D01*
X86266053Y-58404584D01*
X86267188Y-58443277D01*
X86266295Y-58456225D01*
X86266000Y-58464797D01*
X86266000Y-58535826D01*
X86260081Y-58565585D01*
X86259604Y-58567979D01*
X86257500Y-58583750D01*
X86219238Y-59138545D01*
X86190376Y-59309730D01*
X86108038Y-59526255D01*
X85985041Y-59722557D01*
X85826111Y-59891090D01*
X85637355Y-60025380D01*
X85426027Y-60120265D01*
X85200249Y-60172098D01*
X84968698Y-60178889D01*
X84968697Y-60178889D01*
X84923012Y-60171186D01*
X84740270Y-60140376D01*
X84523745Y-60058038D01*
X84327443Y-59935041D01*
X84158910Y-59776111D01*
X84024620Y-59587355D01*
X83929735Y-59376027D01*
X83877902Y-59150249D01*
X83872812Y-58976723D01*
X83913704Y-58383794D01*
X83914000Y-58375196D01*
X83914000Y-58304175D01*
X83932882Y-58209250D01*
X83933544Y-58205645D01*
X83939231Y-58171917D01*
X83949624Y-58110270D01*
X83952085Y-58103799D01*
X83957842Y-58083767D01*
X83959193Y-58076974D01*
X83961843Y-58070576D01*
X83996264Y-57987476D01*
X83997553Y-57984230D01*
X84031962Y-57893745D01*
X84035636Y-57887881D01*
X84045187Y-57869365D01*
X84047842Y-57862955D01*
X84101657Y-57782415D01*
X84103577Y-57779449D01*
X84154959Y-57697443D01*
X84159711Y-57692404D01*
X84172689Y-57676107D01*
X84176537Y-57670348D01*
X84244993Y-57601892D01*
X84247546Y-57599262D01*
X84268023Y-57577548D01*
X84313889Y-57528910D01*
X84319521Y-57524903D01*
X84335447Y-57511438D01*
X84340346Y-57506539D01*
X84420824Y-57452766D01*
X84423806Y-57450710D01*
X84502645Y-57394620D01*
X84508955Y-57391787D01*
X84527194Y-57381691D01*
X84532951Y-57377844D01*
X84532954Y-57377843D01*
X84532955Y-57377842D01*
X84622429Y-57340781D01*
X84625687Y-57339375D01*
X84713973Y-57299735D01*
X84720725Y-57298185D01*
X84740562Y-57291848D01*
X84746973Y-57289193D01*
X84841899Y-57270311D01*
X84845446Y-57269551D01*
X84939751Y-57247901D01*
X84942130Y-57247831D01*
X84946665Y-57247698D01*
X84967381Y-57245351D01*
X84974174Y-57244000D01*
X85070959Y-57244000D01*
X85074584Y-57243947D01*
X85171302Y-57241110D01*
X85178127Y-57242261D01*
G37*
G36*
X32721627Y-54365037D02*
G01*
X32891466Y-54416557D01*
X33047991Y-54500222D01*
X33083729Y-54529552D01*
X33185186Y-54612814D01*
X33268448Y-54714271D01*
X33297778Y-54750009D01*
X33381443Y-54906534D01*
X33432963Y-55076373D01*
X33446000Y-55208742D01*
X33446000Y-56297258D01*
X33432963Y-56429627D01*
X33381443Y-56599466D01*
X33297778Y-56755991D01*
X33268448Y-56791729D01*
X33185186Y-56893186D01*
X33047989Y-57005779D01*
X32891467Y-57089442D01*
X32891465Y-57089443D01*
X32721626Y-57140963D01*
X32545000Y-57158359D01*
X32368373Y-57140963D01*
X32198534Y-57089443D01*
X32042009Y-57005778D01*
X32006271Y-56976448D01*
X31904814Y-56893186D01*
X31792221Y-56755989D01*
X31708558Y-56599467D01*
X31708557Y-56599465D01*
X31657037Y-56429626D01*
X31644000Y-56297257D01*
X31644001Y-55208742D01*
X31657038Y-55076373D01*
X31708558Y-54906534D01*
X31792223Y-54750009D01*
X31821553Y-54714271D01*
X31904815Y-54612814D01*
X32006272Y-54529552D01*
X32042010Y-54500222D01*
X32198535Y-54416557D01*
X32368374Y-54365037D01*
X32545000Y-54347641D01*
X32721627Y-54365037D01*
G37*
G36*
X40021627Y-54365037D02*
G01*
X40191466Y-54416557D01*
X40347991Y-54500222D01*
X40383729Y-54529552D01*
X40485186Y-54612814D01*
X40568448Y-54714271D01*
X40597778Y-54750009D01*
X40681443Y-54906534D01*
X40732963Y-55076373D01*
X40746000Y-55208742D01*
X40746000Y-56297258D01*
X40732963Y-56429627D01*
X40681443Y-56599466D01*
X40597778Y-56755991D01*
X40568448Y-56791729D01*
X40485186Y-56893186D01*
X40347989Y-57005779D01*
X40191467Y-57089442D01*
X40191465Y-57089443D01*
X40021626Y-57140963D01*
X39845000Y-57158359D01*
X39668373Y-57140963D01*
X39498534Y-57089443D01*
X39342009Y-57005778D01*
X39306271Y-56976448D01*
X39204814Y-56893186D01*
X39092221Y-56755989D01*
X39008558Y-56599467D01*
X39008557Y-56599465D01*
X38957037Y-56429626D01*
X38944000Y-56297257D01*
X38944001Y-55208742D01*
X38957038Y-55076373D01*
X39008558Y-54906534D01*
X39092223Y-54750009D01*
X39121553Y-54714271D01*
X39204815Y-54612814D01*
X39306272Y-54529552D01*
X39342010Y-54500222D01*
X39498535Y-54416557D01*
X39668374Y-54365037D01*
X39845000Y-54347641D01*
X40021627Y-54365037D01*
G37*
M02*
